<svg width="42" height="42" viewBox="0 0 42 42" fill="none" xmlns="http://www.w3.org/2000/svg">
<path d="M31.3027 19.0695C33.744 18.7265 35.6235 16.6335 35.6287 14.0978C35.6287 11.5988 33.807 9.52677 31.4182 9.13477" stroke="#ADD274" stroke-width="2" stroke-linecap="round" stroke-linejoin="round"/>
<path d="M34.5254 24.9375C36.8896 25.291 38.5399 26.1187 38.5399 27.825C38.5399 28.9992 37.7629 29.7622 36.5064 30.2417" stroke="#ADD274" stroke-width="2" stroke-linecap="round" stroke-linejoin="round"/>
<path fill-rule="evenodd" clip-rule="evenodd" d="M20.8013 25.6621C15.1768 25.6621 10.373 26.5144 10.373 29.9181C10.373 33.3201 15.147 34.1969 20.8013 34.1969C26.4258 34.1969 31.2278 33.3534 31.2278 29.9479C31.2278 26.5424 26.4555 25.6621 20.8013 25.6621Z" stroke="#ADD274" stroke-width="2" stroke-linecap="round" stroke-linejoin="round"/>
<path fill-rule="evenodd" clip-rule="evenodd" d="M20.8024 20.804C24.4932 20.804 27.4857 17.8133 27.4857 14.1208C27.4857 10.43 24.4932 7.4375 20.8024 7.4375C17.1117 7.4375 14.1192 10.43 14.1192 14.1208C14.1052 17.7993 17.0749 20.7918 20.7534 20.804H20.8024Z" stroke="#ADD274" stroke-width="2" stroke-linecap="round" stroke-linejoin="round"/>
<path d="M10.2987 19.0695C7.85566 18.7265 5.97791 16.6335 5.97266 14.0978C5.97266 11.5988 7.79441 9.52677 10.1832 9.13477" stroke="#ADD274" stroke-width="2" stroke-linecap="round" stroke-linejoin="round"/>
<path d="M7.077 24.9375C4.71275 25.291 3.0625 26.1187 3.0625 27.825C3.0625 28.9992 3.8395 29.7622 5.096 30.2417" stroke="#ADD274" stroke-width="2" stroke-linecap="round" stroke-linejoin="round"/>
</svg>
