<?xml version="1.0" standalone="no"?>
<!DOCTYPE svg PUBLIC "-//W3C//DTD SVG 20010904//EN"
 "http://www.w3.org/TR/2001/REC-SVG-20010904/DTD/svg10.dtd">
<svg version="1.0" xmlns="http://www.w3.org/2000/svg"
 width="256.000000pt" height="256.000000pt" viewBox="0 0 256.000000 256.000000"
 preserveAspectRatio="xMidYMid meet">

<g transform="translate(0.000000,256.000000) scale(0.100000,-0.100000)"
fill="#FFFFFF" stroke="none">
<path d="M1141 2175 c-234 -66 -389 -305 -352 -544 43 -278 311 -467 583 -410
177 37 328 180 374 354 20 75 18 201 -6 276 -43 140 -160 261 -298 312 -75 27
-225 33 -301 12z m253 -165 c141 -53 225 -199 205 -357 -14 -107 -86 -204
-187 -251 -77 -36 -203 -38 -273 -3 -75 36 -125 86 -161 159 -29 59 -33 76
-33 147 1 59 6 92 22 127 38 85 126 162 213 189 51 15 158 10 214 -11z"/>
<path d="M545 2069 c-163 -56 -258 -192 -259 -369 0 -75 4 -93 31 -152 59
-126 169 -210 299 -227 67 -10 95 -2 118 31 39 55 4 112 -76 122 -65 9 -106
28 -147 68 -42 41 -60 77 -68 133 -16 122 89 254 205 255 88 0 133 79 77 135
-31 32 -95 33 -180 4z"/>
<path d="M1823 2068 c-23 -24 -29 -61 -17 -93 9 -22 57 -45 94 -45 67 0 146
-54 182 -124 27 -53 29 -146 4 -196 -40 -77 -104 -123 -191 -135 -60 -9 -95
-37 -95 -77 0 -66 41 -90 132 -78 212 29 360 230 326 445 -26 173 -174 310
-346 322 -61 5 -69 3 -89 -19z"/>
<path d="M475 1133 c-159 -20 -258 -58 -314 -118 -89 -97 -77 -241 27 -321 42
-32 151 -74 192 -74 33 0 73 44 73 78 0 43 -26 68 -88 86 -86 26 -118 61 -99
111 11 28 81 55 195 74 61 10 117 25 125 32 7 8 16 29 20 46 5 27 1 37 -24 63
-30 29 -40 32 -107 23z"/>
<path d="M1985 1128 c-43 -25 -57 -68 -35 -108 15 -29 37 -37 129 -50 181 -25
252 -80 187 -145 -13 -13 -43 -29 -67 -35 -65 -16 -86 -29 -99 -61 -14 -33 -6
-62 23 -89 27 -25 51 -25 132 2 69 22 145 79 169 127 57 110 5 247 -117 305
-84 40 -286 74 -322 54z"/>
<path d="M1033 1060 c-273 -31 -428 -116 -469 -258 -46 -157 53 -303 244 -362
134 -42 247 -52 517 -47 205 4 266 9 338 26 160 37 272 111 312 207 8 20 15
66 15 103 0 163 -109 261 -346 311 -79 17 -144 22 -319 25 -121 2 -253 0 -292
-5z m574 -174 c178 -37 257 -109 219 -200 -43 -102 -343 -161 -696 -136 -218
15 -339 48 -393 108 -44 49 -27 132 35 170 46 28 159 60 248 71 111 14 500 5
587 -13z"/>
</g>
</svg>
