<svg width="26" height="25" viewBox="0 0 26 25" fill="none" xmlns="http://www.w3.org/2000/svg">
<g clip-path="url(#clip0_6497_21998)">
<path d="M6.68519 8.78691L7.04389 6.60648H5.51562L7.72432 3.33691L7.36563 5.51952H8.89389L6.68519 8.78691Z" fill="#F44336"/>
<path d="M21.9609 12.4756V21.606H20.6566V15.6038L20.1609 15.1799L17.1131 12.5843L13.2653 15.6169V21.606H11.9609V15.006L17.1435 10.9277L20.5435 13.8147L20.6566 13.9103C20.6588 13.4343 20.6631 12.9538 20.6675 12.4756H21.9609Z" fill="#F44336"/>
<path d="M12.7542 3.18457C11.252 3.18457 9.83247 3.54544 8.57812 4.18674L9.42378 5.21501C10.252 4.82805 11.1564 4.58022 12.1086 4.50414C15.9499 4.19979 19.2803 6.64979 20.3281 10.0867H21.6716C20.6455 6.12153 17.039 3.18457 12.7542 3.18457Z" fill="#F44336"/>
<path d="M17.6168 17.4756H16.3125V21.606H17.6168V17.4756Z" fill="#F44336"/>
<path d="M12.1834 12.4762C12.5436 12.4762 12.8356 12.1842 12.8356 11.824C12.8356 11.4639 12.5436 11.1719 12.1834 11.1719C11.8232 11.1719 11.5312 11.4639 11.5312 11.824C11.5312 12.1842 11.8232 12.4762 12.1834 12.4762Z" fill="#F44336"/>
<path d="M13.9192 9.64984C14.1593 9.64984 14.3539 9.45518 14.3539 9.21506C14.3539 8.97493 14.1593 8.78027 13.9192 8.78027C13.679 8.78027 13.4844 8.97493 13.4844 9.21506C13.4844 9.45518 13.679 9.64984 13.9192 9.64984Z" fill="#F44336"/>
<path d="M10.5526 14.867C10.7327 14.867 10.8787 14.721 10.8787 14.5409C10.8787 14.3608 10.7327 14.2148 10.5526 14.2148C10.3726 14.2148 10.2266 14.3608 10.2266 14.5409C10.2266 14.721 10.3726 14.867 10.5526 14.867Z" fill="#F44336"/>
<path d="M10.444 9.8674C10.564 9.8674 10.6613 9.77007 10.6613 9.65001C10.6613 9.52995 10.564 9.43262 10.444 9.43262C10.3239 9.43262 10.2266 9.52995 10.2266 9.65001C10.2266 9.77007 10.3239 9.8674 10.444 9.8674Z" fill="#F44336"/>
<path d="M15.2252 11.3889C15.3453 11.3889 15.4426 11.2916 15.4426 11.1715C15.4426 11.0514 15.3453 10.9541 15.2252 10.9541C15.1051 10.9541 15.0078 11.0514 15.0078 11.1715C15.0078 11.2916 15.1051 11.3889 15.2252 11.3889Z" fill="#F44336"/>
<path d="M17.1783 9.64963C17.2984 9.64963 17.3957 9.5523 17.3957 9.43224C17.3957 9.31217 17.2984 9.21484 17.1783 9.21484C17.0583 9.21484 16.9609 9.31217 16.9609 9.43224C16.9609 9.5523 17.0583 9.64963 17.1783 9.64963Z" fill="#F44336"/>
<path d="M9.34103 12.6928C9.58116 12.6928 9.77582 12.4981 9.77582 12.258C9.77582 12.0179 9.58116 11.8232 9.34103 11.8232C9.10091 11.8232 8.90625 12.0179 8.90625 12.258C8.90625 12.4981 9.10091 12.6928 9.34103 12.6928Z" fill="#F44336"/>
<path d="M12.5071 10.0846C12.5672 10.0846 12.6158 10.0359 12.6158 9.97588C12.6158 9.91585 12.5672 9.86719 12.5071 9.86719C12.4471 9.86719 12.3984 9.91585 12.3984 9.97588C12.3984 10.0359 12.4471 10.0846 12.5071 10.0846Z" fill="#F44336"/>
<path d="M16.5847 7.96297L15.7499 8.96514C14.9325 8.28471 13.8956 7.91079 12.8325 7.91079C10.3151 7.91079 8.26732 9.95862 8.26732 12.476C8.26732 13.0477 8.3695 13.5999 8.57602 14.1238C10.2434 14.5717 11.4738 16.0956 11.4738 17.9021C11.4738 19.2325 10.8065 20.4108 9.78906 21.1151C9.15645 21.5564 8.38689 21.8151 7.5608 21.8151C5.40211 21.8151 3.64776 20.0608 3.64776 17.9021C3.64776 17.1564 3.85645 16.4608 4.2195 15.8673C3.78037 14.7956 3.53906 13.6217 3.53906 12.3956C3.53906 10.6021 4.05428 8.92818 4.94341 7.51079L5.8195 8.57601C5.2695 9.56949 4.92602 10.6912 4.84993 11.8782C4.78471 12.8956 4.91298 13.876 5.20211 14.7847C5.7608 14.3586 6.43471 14.0825 7.16732 14.0086C7.03037 13.513 6.96298 12.9999 6.96298 12.476C6.96298 9.23905 9.59558 6.60645 12.8325 6.60645C14.1999 6.60645 15.5325 7.08688 16.5847 7.96297Z" fill="#F44336"/>
<path d="M8.2106 15.4385H6.90625V18.2646H8.2106V15.4385Z" fill="white"/>
<path d="M7.55842 20.4381C7.91861 20.4381 8.2106 20.1461 8.2106 19.786C8.2106 19.4258 7.91861 19.1338 7.55842 19.1338C7.19824 19.1338 6.90625 19.4258 6.90625 19.786C6.90625 20.1461 7.19824 20.4381 7.55842 20.4381Z" fill="white"/>
</g>
<defs>
<clipPath id="clip0_6497_21998">
<rect width="25" height="25" fill="white" transform="translate(0.25)"/>
</clipPath>
</defs>
</svg>
