<?xml version="1.0" standalone="no"?>
<!DOCTYPE svg PUBLIC "-//W3C//DTD SVG 20010904//EN"
 "http://www.w3.org/TR/2001/REC-SVG-20010904/DTD/svg10.dtd">
<svg version="1.0" xmlns="http://www.w3.org/2000/svg"
 width="512.000000pt" height="512.000000pt" viewBox="0 0 512.000000 512.000000"
 preserveAspectRatio="xMidYMid meet">

<g transform="translate(0.000000,512.000000) scale(0.100000,-0.100000)"
fill="white" stroke="white">
<path d="M4453 3805 c-163 -44 -293 -165 -349 -323 -31 -88 -33 -221 -4 -314
l20 -63 -421 -421 -421 -421 -62 20 c-86 28 -220 28 -301 -1 l-60 -21 -297
297 -297 297 21 60 c27 78 28 206 3 293 -67 232 -310 390 -550 355 -263 -38
-453 -274 -432 -536 3 -40 13 -94 23 -121 l17 -48 -298 -298 -298 -298 -34 14
c-18 8 -68 19 -111 25 -150 20 -309 -35 -418 -146 -198 -201 -193 -523 12
-715 108 -100 235 -147 378 -137 203 13 381 149 444 341 29 88 30 218 2 308
l-20 63 294 294 295 295 63 -20 c87 -26 233 -26 306 1 l53 19 294 -295 295
-294 -21 -85 c-70 -276 89 -542 368 -615 243 -63 507 80 595 323 29 79 31 234
4 315 l-19 59 423 423 423 423 34 -14 c67 -28 181 -37 263 -20 245 51 409 248
410 491 0 232 -153 430 -381 490 -68 18 -178 18 -246 0z"/>
</g>
</svg>
