<?xml version="1.0" standalone="no"?>
<!DOCTYPE svg PUBLIC "-//W3C//DTD SVG 20010904//EN"
 "http://www.w3.org/TR/2001/REC-SVG-20010904/DTD/svg10.dtd">
<svg version="1.0" xmlns="http://www.w3.org/2000/svg"
 width="256.000000pt" height="256.000000pt" viewBox="0 0 256.000000 256.000000"
 preserveAspectRatio="xMidYMid meet">

<g transform="translate(0.000000,256.000000) scale(0.100000,-0.100000)"
fill="#FFFFFF" stroke="none">
<path d="M2059 2387 c-209 -59 -278 -319 -125 -472 139 -139 362 -104 451 69
56 111 34 246 -57 333 -67 64 -182 94 -269 70z m130 -165 c37 -20 71 -73 71
-110 0 -61 -61 -122 -122 -122 -83 0 -134 56 -125 137 5 49 27 79 72 99 41 18
64 17 104 -4z"/>
<path d="M730 2300 c-252 -34 -443 -209 -495 -457 -23 -105 -22 -1095 1 -1196
51 -229 216 -395 439 -442 103 -22 1098 -21 1200 0 222 47 383 207 439 436 13
55 16 136 16 511 0 421 -1 447 -19 469 -25 31 -86 32 -111 1 -17 -20 -18 -59
-22 -464 -4 -423 -6 -446 -26 -510 -43 -131 -139 -235 -254 -275 -49 -17 -96
-18 -628 -18 -527 0 -579 1 -620 18 -112 44 -194 128 -243 247 -22 54 -22 62
-25 595 -3 389 0 555 8 595 38 173 164 298 334 329 37 7 219 11 482 11 l423 0
20 26 c35 45 26 95 -20 119 -23 13 -96 15 -436 14 -224 -1 -433 -5 -463 -9z"/>
<path d="M1683 1532 c-26 -32 -90 -113 -142 -180 -52 -67 -97 -122 -100 -122
-3 0 -75 54 -159 120 -84 66 -164 123 -178 126 -15 4 -34 0 -48 -10 -27 -17
-338 -418 -357 -459 -15 -33 6 -77 45 -96 48 -23 74 0 221 192 75 97 139 177
143 177 4 0 75 -54 158 -119 83 -65 160 -122 171 -125 37 -12 69 11 135 96
219 280 278 362 278 382 0 13 -9 35 -21 50 -16 20 -29 26 -59 26 -36 0 -44 -5
-87 -58z"/>
</g>
</svg>
