<svg width="40" height="40" viewBox="0 0 40 40" fill="none" xmlns="http://www.w3.org/2000/svg">
<path d="M10.2854 14.2303L10.8593 10.7416H8.41406L11.948 5.50684L11.3741 9.00249H13.8193L10.2854 14.2303Z" fill="#87BE33"/>
<path d="M34.7344 20.1328V34.7415H32.6474V25.138L31.8544 24.4597L26.9779 20.3067L20.8213 25.1589V34.7415H18.7344V24.1815L27.0265 17.6562L32.4665 22.2754L32.6474 22.4284C32.6509 21.6667 32.6579 20.898 32.6648 20.1328H34.7344Z" fill="#87BE33"/>
<path d="M19.9917 5.25977C17.5882 5.25977 15.3169 5.83716 13.31 6.86324L14.663 8.50846C15.9882 7.88933 17.4352 7.49281 18.9587 7.37107C25.1048 6.88411 30.4335 10.8041 32.11 16.3032H34.2596C32.6178 9.9589 26.8474 5.25977 19.9917 5.25977ZM7.3552 19.1728C7.47694 17.2737 8.02651 15.4789 8.90651 13.8893L7.50477 12.185C6.08216 14.4528 5.25781 17.1311 5.25781 20.0006C5.25781 26.4667 9.44912 31.9763 15.2578 33.9519V31.7467C10.3709 29.7745 6.98999 24.8319 7.3552 19.1728Z" fill="#87BE33"/>
<path d="M27.7823 28.1289H25.6953V34.7376H27.7823V28.1289Z" fill="#87BE33"/>
<path d="M11.6805 24.2409C11.0509 22.9539 10.7344 21.5731 10.7344 20.1296C10.7344 14.9505 14.9465 10.7383 20.1257 10.7383C22.3135 10.7383 24.4457 11.5105 26.1292 12.9087L24.7935 14.5122C23.4857 13.4235 21.8265 12.8218 20.1257 12.8218C16.0979 12.8218 12.8213 16.0983 12.8213 20.1261C12.8213 21.2461 13.0683 22.3209 13.5587 23.3191L11.6839 24.2374L11.6805 24.2409Z" fill="#87BE33"/>
<path d="M19.0825 20.1289C19.6588 20.1289 20.126 19.6618 20.126 19.0855C20.126 18.5092 19.6588 18.042 19.0825 18.042C18.5062 18.042 18.0391 18.5092 18.0391 19.0855C18.0391 19.6618 18.5062 20.1289 19.0825 20.1289Z" fill="#87BE33"/>
<path d="M21.8675 15.6071C22.2517 15.6071 22.5632 15.2957 22.5632 14.9115C22.5632 14.5273 22.2517 14.2158 21.8675 14.2158C21.4833 14.2158 21.1719 14.5273 21.1719 14.9115C21.1719 15.2957 21.4833 15.6071 21.8675 15.6071Z" fill="#87BE33"/>
<path d="M16.4749 23.9556C16.763 23.9556 16.9966 23.722 16.9966 23.4338C16.9966 23.1457 16.763 22.9121 16.4749 22.9121C16.1867 22.9121 15.9531 23.1457 15.9531 23.4338C15.9531 23.722 16.1867 23.9556 16.4749 23.9556Z" fill="#87BE33"/>
<path d="M16.301 15.9554C16.4931 15.9554 16.6488 15.7997 16.6488 15.6076C16.6488 15.4155 16.4931 15.2598 16.301 15.2598C16.1089 15.2598 15.9531 15.4155 15.9531 15.6076C15.9531 15.7997 16.1089 15.9554 16.301 15.9554Z" fill="#87BE33"/>
<path d="M23.9494 18.3939C24.1415 18.3939 24.2972 18.2382 24.2972 18.0461C24.2972 17.854 24.1415 17.6982 23.9494 17.6982C23.7573 17.6982 23.6016 17.854 23.6016 18.0461C23.6016 18.2382 23.7573 18.3939 23.9494 18.3939Z" fill="#87BE33"/>
<path d="M27.0822 15.6107C27.2743 15.6107 27.43 15.455 27.43 15.2629C27.43 15.0708 27.2743 14.915 27.0822 14.915C26.8901 14.915 26.7344 15.0708 26.7344 15.2629C26.7344 15.455 26.8901 15.6107 27.0822 15.6107Z" fill="#87BE33"/>
<path d="M13.8635 26.7416C14.0556 26.7416 14.2113 26.5858 14.2113 26.3937C14.2113 26.2016 14.0556 26.0459 13.8635 26.0459C13.6714 26.0459 13.5156 26.2016 13.5156 26.3937C13.5156 26.5858 13.6714 26.7416 13.8635 26.7416Z" fill="#87BE33"/>
<path d="M14.5316 20.4772C14.9158 20.4772 15.2272 20.1658 15.2272 19.7816C15.2272 19.3974 14.9158 19.0859 14.5316 19.0859C14.1474 19.0859 13.8359 19.3974 13.8359 19.7816C13.8359 20.1658 14.1474 20.4772 14.5316 20.4772Z" fill="#87BE33"/>
<path d="M19.6036 16.3029C19.6997 16.3029 19.7775 16.225 19.7775 16.129C19.7775 16.0329 19.6997 15.9551 19.6036 15.9551C19.5076 15.9551 19.4297 16.0329 19.4297 16.129C19.4297 16.225 19.5076 16.3029 19.6036 16.3029Z" fill="#87BE33"/>
</svg>
