<svg width="41" height="40" viewBox="0 0 41 40" fill="none" xmlns="http://www.w3.org/2000/svg">
<g clip-path="url(#clip0_6497_22041)">
<path d="M20.1406 4C11.3163 4 4.14062 11.1791 4.14062 20C4.14062 28.8209 11.3163 36 20.1406 36C28.965 36 36.1406 28.8243 36.1406 20C36.1406 11.1757 28.9615 4 20.1406 4ZM20.1406 33.913C12.4676 33.913 6.22758 27.673 6.22758 20C6.22758 12.327 12.4676 6.08696 20.1406 6.08696C27.8137 6.08696 34.0537 12.3304 34.0537 20C34.0537 27.6696 27.8102 33.913 20.1406 33.913Z" fill="#3583CD"/>
<path d="M11.9827 18.9531H7.46094V21.0401H11.9827V18.9531Z" fill="#3583CD"/>
<path d="M9.69192 12.7434L8.64844 14.5508L12.5644 16.8117L13.6079 15.0043L9.69192 12.7434Z" fill="#3583CD"/>
<path d="M14.7292 8.48582L12.9219 9.5293L15.1827 13.4452L16.9901 12.4018L14.7292 8.48582Z" fill="#3583CD"/>
<path d="M21.2198 7.31836H19.1328V11.8401H21.2198V7.31836Z" fill="#3583CD"/>
<path d="M30.6425 12.7743L26.7266 15.0352L27.77 16.8425L31.686 14.5816L30.6425 12.7743Z" fill="#3583CD"/>
<path d="M32.8499 18.9883H28.3281V21.0752H32.8499V18.9883Z" fill="#3583CD"/>
<path d="M26.5108 9.12305C24.9073 12.7544 23.3073 16.3891 21.7038 20.0204C21.6934 20.8761 20.9942 21.5648 20.1386 21.5648C18.6568 21.6204 18.0064 19.5404 19.2203 18.737L26.5108 9.12305Z" fill="#3583CD"/>
<path d="M15.7511 25.0566C14.8468 25.0566 14.1094 25.794 14.1094 26.6984C14.1094 27.6027 14.8468 28.3401 15.7511 28.3401C16.6555 28.3401 17.3929 27.6027 17.3929 26.6984C17.3929 25.794 16.6555 25.0566 15.7511 25.0566ZM15.7511 27.1679C15.4937 27.1679 15.2815 26.9558 15.2815 26.6984C15.2815 26.441 15.4937 26.2288 15.7511 26.2288C16.0085 26.2288 16.2207 26.441 16.2207 26.6984C16.2207 26.9558 16.0085 27.1679 15.7511 27.1679Z" fill="#3583CD"/>
<path d="M20.4152 25.0566C19.5108 25.0566 18.7734 25.794 18.7734 26.6984C18.7734 27.6027 19.5108 28.3401 20.4152 28.3401C21.3195 28.3401 22.0569 27.6027 22.0569 26.6984C22.0569 25.794 21.3195 25.0566 20.4152 25.0566ZM20.4152 27.1679C20.1578 27.1679 19.9456 26.9558 19.9456 26.6984C19.9456 26.441 20.1578 26.2288 20.4152 26.2288C20.6726 26.2288 20.8847 26.441 20.8847 26.6984C20.8847 26.9558 20.6726 27.1679 20.4152 27.1679Z" fill="#3583CD"/>
<path d="M25.0871 25.0361C24.1827 25.0361 23.4453 25.7735 23.4453 26.6779C23.4453 27.5822 24.1827 28.3196 25.0871 28.3196C25.9914 28.3196 26.7288 27.5822 26.7288 26.6779C26.7288 25.7735 25.9914 25.0361 25.0871 25.0361ZM25.0871 27.1474C24.8297 27.1474 24.6175 26.9353 24.6175 26.6779C24.6175 26.4205 24.8297 26.2083 25.0871 26.2083C25.3444 26.2083 25.5566 26.4205 25.5566 26.6779C25.5566 26.9353 25.3444 27.1474 25.0871 27.1474Z" fill="#3583CD"/>
</g>
<defs>
<clipPath id="clip0_6497_22041">
<rect width="40" height="40" fill="white" transform="translate(0.25)"/>
</clipPath>
</defs>
</svg>
