<?xml version="1.0" standalone="no"?>
<!DOCTYPE svg PUBLIC "-//W3C//DTD SVG 20010904//EN"
 "http://www.w3.org/TR/2001/REC-SVG-20010904/DTD/svg10.dtd">
<svg version="1.0" xmlns="http://www.w3.org/2000/svg"
 width="512.000000pt" height="512.000000pt" viewBox="0 0 512.000000 512.000000"
 preserveAspectRatio="xMidYMid meet">

<g transform="translate(0.000000,512.000000) scale(0.100000,-0.100000)"
fill="#FFFFFF" stroke="none">
<path d="M2360 4860 c-123 -31 -283 -103 -467 -211 -185 -110 -964 -596 -1088
-679 -345 -233 -477 -414 -541 -740 -15 -74 -18 -188 -21 -875 -5 -803 1
-1011 33 -1208 44 -269 117 -437 258 -585 187 -197 412 -281 836 -312 182 -13
2215 -13 2391 0 279 22 446 62 614 149 74 38 108 64 190 146 148 148 216 283
264 520 44 218 46 278 46 1190 0 791 -2 879 -18 965 -23 126 -50 207 -103 310
-86 168 -205 283 -479 465 -170 112 -873 550 -1057 659 -162 95 -336 174 -442
201 -125 32 -300 34 -416 5z m321 -376 c148 -44 237 -93 794 -437 671 -416
797 -502 882 -606 56 -69 78 -111 103 -203 34 -126 40 -270 40 -958 0 -832
-12 -1045 -71 -1235 -45 -150 -134 -262 -251 -319 -74 -36 -221 -72 -363 -88
-174 -19 -2336 -19 -2510 0 -245 28 -383 78 -481 177 -125 124 -172 284 -195
660 -14 233 -6 1596 10 1675 46 232 117 324 391 509 141 95 997 626 1135 704
224 126 376 162 516 121z"/>
<path d="M2475 2944 c-96 -52 -99 -64 -105 -364 l-5 -255 -255 -5 c-211 -4
-260 -8 -285 -21 -110 -61 -127 -219 -33 -306 52 -48 81 -53 338 -53 l240 0 0
-245 c0 -222 2 -249 19 -283 35 -67 104 -112 174 -112 46 0 115 38 151 83 l31
39 3 259 3 259 242 0 c232 0 245 1 287 23 24 12 57 39 74 59 60 76 41 202 -40
264 l-37 29 -261 5 -261 5 -5 255 c-6 284 -8 294 -76 347 -30 23 -49 28 -103
30 -47 2 -75 -1 -96 -13z"/>
</g>
</svg>
