<?xml version="1.0" standalone="no"?>
<!DOCTYPE svg PUBLIC "-//W3C//DTD SVG 20010904//EN"
 "http://www.w3.org/TR/2001/REC-SVG-20010904/DTD/svg10.dtd">
<svg version="1.0" xmlns="http://www.w3.org/2000/svg"
 width="512.000000pt" height="512.000000pt" viewBox="0 0 512.000000 512.000000"
 preserveAspectRatio="xMidYMid meet">

<g transform="translate(0.000000,512.000000) scale(0.100000,-0.100000)"
fill="#4d6a00" stroke="#4d6a00">
<path d="M1870 5114 c-19 -2 -80 -14 -134 -25 -468 -97 -862 -449 -1011 -903
-53 -163 -68 -279 -62 -479 7 -235 40 -364 144 -570 186 -366 524 -624 933
-713 107 -24 417 -26 525 -5 558 110 982 536 1091 1097 23 119 24 356 1 480
-33 181 -111 371 -220 534 -63 95 -259 290 -357 355 -153 102 -320 171 -505
210 -77 16 -330 28 -405 19z m389 -410 c344 -87 612 -356 707 -709 28 -105 26
-380 -3 -487 -98 -349 -368 -612 -720 -700 -125 -31 -331 -31 -456 0 -362 91
-632 362 -724 730 -24 96 -24 352 0 442 67 246 185 424 371 562 238 177 536
236 825 162z"/>
<path d="M4315 3581 c-43 -26 -82 -75 -95 -119 -5 -20 -10 -112 -10 -204 l0
-168 -185 0 c-206 0 -229 -5 -282 -61 -75 -80 -72 -190 8 -266 19 -17 47 -37
62 -42 16 -6 107 -11 213 -11 l184 0 0 -175 c0 -191 7 -225 58 -278 40 -42 80
-60 137 -60 56 0 85 12 128 52 57 52 61 70 65 274 l4 187 183 0 c106 0 196 5
212 11 64 24 122 109 123 179 0 49 -37 118 -83 154 l-39 31 -198 3 -198 3 -4
187 c-4 203 -8 220 -65 274 -15 15 -41 32 -56 37 -45 17 -128 13 -162 -8z"/>
<path d="M1645 1924 c-557 -33 -899 -101 -1158 -230 -130 -65 -193 -109 -277
-194 -87 -88 -140 -173 -177 -285 -23 -70 -26 -97 -27 -215 -1 -115 3 -146 22
-210 67 -214 208 -369 440 -488 162 -83 351 -141 589 -181 535 -90 1391 -90
1926 0 329 55 595 158 773 298 123 97 229 264 260 411 22 104 14 291 -16 380
-138 410 -568 624 -1405 701 -116 10 -828 20 -950 13z m900 -394 c770 -67
1128 -251 1102 -568 -7 -93 -55 -182 -129 -242 -180 -145 -520 -234 -1028
-270 -189 -13 -766 -13 -945 0 -597 44 -954 156 -1096 344 -47 62 -64 121 -63
214 3 223 218 375 654 462 168 34 379 58 605 70 194 10 734 4 900 -10z"/>
</g>
</svg>
