<svg width="41" height="40" viewBox="0 0 41 40" fill="none" xmlns="http://www.w3.org/2000/svg">
<g clip-path="url(#clip0_635_6833)">
<path d="M5.72461 7.82617V32.174H34.942V7.82617H5.72461ZM7.81157 9.91313H32.855V16.174H7.81157V9.91313ZM32.855 30.087H7.81157V18.261H32.855V30.087Z" fill="#33BFBF"/>
<path d="M24.6093 28.1908L25.0928 24.97H23.0371L26.0075 20.1387L25.5275 23.363H27.5797L24.6093 28.1908Z" fill="#33BFBF"/>
<path d="M13.8399 5.75391H9.66602V13.0583H13.8399V5.75391Z" fill="#33BFBF"/>
<path d="M30.8829 5.75391H26.709V13.0583H30.8829V5.75391Z" fill="#33BFBF"/>
<path d="M11.9268 20.0137H9.83984V22.1006H11.9268V20.0137Z" fill="#33BFBF"/>
<path d="M11.9268 23.1445H9.83984V25.2315H11.9268V23.1445Z" fill="#33BFBF"/>
<path d="M11.9268 26.2754H9.83984V28.3623H11.9268V26.2754Z" fill="#33BFBF"/>
<path d="M15.544 20.0137H13.457V22.1006H15.544V20.0137Z" fill="#33BFBF"/>
<path d="M15.544 23.1445H13.457V25.2315H15.544V23.1445Z" fill="#33BFBF"/>
<path d="M15.544 26.2754H13.457V28.3623H15.544V26.2754Z" fill="#33BFBF"/>
<path d="M19.1612 20.0137H17.0742V22.1006H19.1612V20.0137Z" fill="#33BFBF"/>
<path d="M19.1612 23.1445H17.0742V25.2315H19.1612V23.1445Z" fill="#33BFBF"/>
<path d="M19.1612 26.2754H17.0742V28.3623H19.1612V26.2754Z" fill="#33BFBF"/>
<path d="M22.7784 20.0137H20.6914V22.1006H22.7784V20.0137Z" fill="#33BFBF"/>
<path d="M22.7784 26.2754H20.6914V28.3623H22.7784V26.2754Z" fill="#33BFBF"/>
<path d="M30.0147 20.0137H27.9277V22.1006H30.0147V20.0137Z" fill="#33BFBF"/>
<path d="M30.0147 23.1445H27.9277V25.2315H30.0147V23.1445Z" fill="#33BFBF"/>
<path d="M30.0147 26.2754H27.9277V28.3623H30.0147V26.2754Z" fill="#33BFBF"/>
<path d="M22.71 23.1445H20.623V25.2315H22.71V23.1445Z" fill="#33BFBF"/>
</g>
<defs>
<clipPath id="clip0_635_6833">
<rect width="40" height="40" fill="white" transform="translate(0.333984)"/>
</clipPath>
</defs>
</svg>
