<svg width="34" height="36" viewBox="0 0 34 36" fill="none" xmlns="http://www.w3.org/2000/svg">
<path fill-rule="evenodd" clip-rule="evenodd" d="M25.7971 21.1491C26.9217 21.1491 27.8656 22.0771 27.6936 23.1877C26.6849 29.721 21.0919 34.5719 14.3463 34.5719C6.88311 34.5719 0.833984 28.5227 0.833984 21.0613C0.833984 14.914 5.50416 9.18766 10.7621 7.89292C11.8919 7.61397 13.0498 8.40871 13.0498 9.57187C13.0498 17.4526 13.3147 19.4912 14.8112 20.5999C16.3077 21.7087 18.0673 21.1491 25.7971 21.1491Z" stroke="#87BE33" stroke-width="1.5" stroke-linecap="round" stroke-linejoin="round"/>
<path fill-rule="evenodd" clip-rule="evenodd" d="M33.1555 14.586C33.245 9.52284 27.0257 1.36144 19.4468 1.50179C18.8573 1.51231 18.3853 2.00354 18.359 2.59126C18.1678 6.75442 18.4257 12.1492 18.5696 14.5948C18.6134 15.3562 19.2117 15.9544 19.9713 15.9983C22.4853 16.1421 28.0766 16.3386 32.1801 15.7176C32.738 15.6334 33.1468 15.1492 33.1555 14.586Z" stroke="#87BE33" stroke-width="1.5" stroke-linecap="round" stroke-linejoin="round"/>
</svg>
