<svg width="40" height="40" viewBox="0 0 40 40" fill="none" xmlns="http://www.w3.org/2000/svg">
<path d="M19.8887 4C11.0643 4 3.88867 11.1791 3.88867 20C3.88867 28.8209 11.0643 36 19.8887 36C28.713 36 35.8887 28.8243 35.8887 20C35.8887 11.1757 28.7095 4 19.8887 4ZM19.8887 33.913C12.2156 33.913 5.97563 27.673 5.97563 20C5.97563 12.327 12.2156 6.08696 19.8887 6.08696C27.5617 6.08696 33.8017 12.3304 33.8017 20C33.8017 27.6696 27.5582 33.913 19.8887 33.913Z" fill="#3583CD"/>
<path d="M11.7327 18.9531H7.21094V21.0401H11.7327V18.9531Z" fill="#3583CD"/>
<path d="M9.44192 12.7434L8.39844 14.5508L12.3144 16.8117L13.3579 15.0043L9.44192 12.7434Z" fill="#3583CD"/>
<path d="M14.4792 8.48582L12.6719 9.5293L14.9327 13.4452L16.7401 12.4018L14.4792 8.48582Z" fill="#3583CD"/>
<path d="M20.9678 7.31836H18.8809V11.8401H20.9678V7.31836Z" fill="#3583CD"/>
<path d="M30.3886 12.7743L26.4727 15.0352L27.5161 16.8425L31.4321 14.5816L30.3886 12.7743Z" fill="#3583CD"/>
<path d="M32.6018 18.9883H28.0801V21.0752H32.6018V18.9883Z" fill="#3583CD"/>
<path d="M25.3019 8.51765L23.041 12.4336L24.8484 13.4771L27.1092 9.56113L25.3019 8.51765Z" fill="#3583CD"/>
<path d="M18.3132 28.1042L19.5445 21.7877H14.2715L21.8924 12.3164L20.6611 18.6399H25.9341L18.3132 28.1042Z" fill="#3583CD"/>
<path d="M11.7661 24.6258C12.2463 24.6258 12.6356 24.2365 12.6356 23.7563C12.6356 23.276 12.2463 22.8867 11.7661 22.8867C11.2858 22.8867 10.8965 23.276 10.8965 23.7563C10.8965 24.2365 11.2858 24.6258 11.7661 24.6258Z" fill="#3583CD"/>
<path d="M25.6799 24.9732C25.9681 24.9732 26.2017 24.7396 26.2017 24.4514C26.2017 24.1633 25.9681 23.9297 25.6799 23.9297C25.3918 23.9297 25.1582 24.1633 25.1582 24.4514C25.1582 24.7396 25.3918 24.9732 25.6799 24.9732Z" fill="#3583CD"/>
<path d="M22.3757 32.6264C23.1441 32.6264 23.767 32.0035 23.767 31.2351C23.767 30.4667 23.1441 29.8438 22.3757 29.8438C21.6073 29.8438 20.9844 30.4667 20.9844 31.2351C20.9844 32.0035 21.6073 32.6264 22.3757 32.6264Z" fill="#3583CD"/>
<path d="M31.2444 23.9302C31.5325 23.9302 31.7661 23.6966 31.7661 23.4085C31.7661 23.1203 31.5325 22.8867 31.2444 22.8867C30.9562 22.8867 30.7227 23.1203 30.7227 23.4085C30.7227 23.6966 30.9562 23.9302 31.2444 23.9302Z" fill="#3583CD"/>
<path d="M14.8967 28.4517C15.1849 28.4517 15.4185 28.2181 15.4185 27.9299C15.4185 27.6418 15.1849 27.4082 14.8967 27.4082C14.6086 27.4082 14.375 27.6418 14.375 27.9299C14.375 28.2181 14.6086 28.4517 14.8967 28.4517Z" fill="#3583CD"/>
<path d="M9.85369 27.4085C10.0458 27.4085 10.2015 27.2528 10.2015 27.0607C10.2015 26.8686 10.0458 26.7129 9.85369 26.7129C9.66159 26.7129 9.50586 26.8686 9.50586 27.0607C9.50586 27.2528 9.66159 27.4085 9.85369 27.4085Z" fill="#3583CD"/>
</svg>
