<?xml version="1.0" standalone="no"?>
<!DOCTYPE svg PUBLIC "-//W3C//DTD SVG 20010904//EN"
 "http://www.w3.org/TR/2001/REC-SVG-20010904/DTD/svg10.dtd">
<svg version="1.0" xmlns="http://www.w3.org/2000/svg"
 width="512.000000pt" height="512.000000pt" viewBox="0 0 512.000000 512.000000"
 preserveAspectRatio="xMidYMid meet">

<g transform="translate(0.000000,512.000000) scale(0.100000,-0.100000)"
fill="white" stroke="white">
<path d="M2241 4286 c-198 -349 -361 -638 -361 -643 0 -4 142 -7 315 -5 l315
3 0 -358 c0 -302 2 -355 14 -343 18 20 746 1236 746 1247 0 4 -143 7 -319 5
l-319 -3 -7 365 c-4 202 -11 366 -15 366 -4 0 -170 -285 -369 -634z"/>
<path d="M643 3079 c-49 -24 -99 -77 -120 -127 -8 -18 -32 -104 -54 -190 -22
-87 -75 -287 -119 -447 -171 -634 -200 -750 -200 -803 0 -108 70 -186 202
-226 92 -28 412 -114 547 -147 84 -20 90 -21 145 -5 40 12 70 29 102 60 l45
43 367 -306 c508 -423 656 -542 707 -568 90 -47 213 -48 384 -4 l84 22 26 -25
c78 -74 255 -110 338 -68 47 24 103 84 122 130 13 31 16 32 71 32 134 0 243
83 265 200 l6 35 67 1 c191 2 329 174 281 348 -11 38 -10 41 21 66 l33 27 43
-43 c49 -50 133 -80 187 -69 17 4 124 47 237 97 113 49 254 110 313 136 60 26
126 62 146 79 50 43 81 109 81 174 0 55 8 35 -215 544 -46 105 -133 305 -195
445 -61 140 -127 291 -146 335 -44 99 -91 148 -164 176 -72 27 -103 22 -255
-45 -66 -29 -207 -90 -313 -137 -109 -47 -210 -98 -231 -116 -22 -19 -48 -55
-61 -85 -12 -29 -24 -54 -25 -56 -2 -2 -70 17 -152 42 -289 88 -532 136 -684
136 -41 0 -137 -7 -214 -15 -168 -18 -598 -31 -676 -21 -56 7 -57 8 -63 45 -7
48 -55 119 -100 149 -22 15 -154 57 -358 113 -354 97 -403 104 -475 68z m200
-195 c88 -22 472 -126 519 -140 9 -3 19 -12 22 -21 4 -9 -31 -156 -78 -327
-46 -171 -127 -473 -180 -671 -53 -198 -101 -370 -106 -382 -5 -13 -18 -23
-29 -23 -17 0 -366 88 -541 136 -93 26 -110 35 -110 58 0 20 34 150 216 821
40 149 89 333 109 410 36 136 47 165 67 165 5 0 55 -12 111 -26z m3385 -114
c12 -25 97 -216 188 -425 92 -209 207 -472 256 -585 112 -256 116 -267 97
-284 -8 -7 -45 -27 -84 -44 -357 -158 -509 -222 -525 -222 -24 0 -23 -2 -101
175 -435 992 -502 1149 -492 1163 5 9 43 31 84 49 388 172 508 222 529 220 19
-1 31 -13 48 -47z m-1423 -258 c119 -25 309 -77 494 -135 l135 -42 24 -55 c13
-30 113 -264 221 -520 l198 -465 -44 -29 c-38 -25 -46 -27 -57 -15 -8 8 -49
55 -91 104 -43 50 -155 173 -250 275 -95 102 -198 214 -229 250 -114 133 -258
241 -373 281 -172 59 -304 26 -526 -133 -170 -123 -233 -146 -296 -113 -97 50
-46 312 109 558 30 47 30 47 88 48 31 1 84 5 117 9 108 15 370 4 480 -18z
m-927 -90 c-100 -216 -130 -383 -92 -512 24 -82 108 -161 200 -190 119 -36
209 -7 399 130 125 91 189 121 269 127 118 10 238 -47 359 -170 213 -215 643
-697 688 -771 26 -42 25 -110 -1 -136 -23 -23 -104 -28 -161 -9 -24 8 -119 96
-314 290 -244 243 -286 280 -318 286 -32 5 -40 2 -72 -30 -26 -26 -35 -44 -35
-68 0 -30 26 -60 280 -314 255 -256 280 -283 286 -321 8 -53 -7 -81 -49 -89
-63 -12 -98 12 -333 230 -360 333 -343 322 -409 264 -28 -25 -35 -38 -35 -68
0 -20 8 -45 18 -57 9 -11 126 -121 259 -243 255 -234 252 -231 210 -279 -22
-24 -67 -29 -112 -12 -15 6 -110 91 -210 190 -171 168 -186 180 -220 180 -29
0 -45 -8 -71 -34 -54 -54 -48 -72 58 -182 50 -52 89 -97 86 -100 -10 -9 -144
-17 -179 -10 -41 7 -127 75 -700 553 l-427 355 9 32 c9 32 150 567 216 821 20
77 40 154 45 172 6 21 18 35 36 42 15 5 102 10 194 10 l166 0 -40 -87z"/>
<path d="M580 1854 c-80 -35 -130 -111 -130 -199 0 -67 17 -110 60 -153 49
-50 88 -66 155 -66 234 0 299 328 83 418 -47 20 -122 20 -168 0z m108 -202 c3
-18 -1 -22 -22 -22 -19 0 -26 5 -26 18 0 39 43 43 48 4z"/>
<path d="M4360 1794 c-57 -25 -96 -60 -119 -108 -51 -109 -8 -233 99 -289 105
-55 217 -22 283 85 52 83 44 173 -21 250 -55 66 -167 94 -242 62z m98 -202 c3
-18 -2 -22 -22 -22 -19 0 -26 5 -26 19 0 36 43 38 48 3z"/>
</g>
</svg>
