<svg width="92" height="91" viewBox="0 0 92 91" fill="none" xmlns="http://www.w3.org/2000/svg">
<path fill-rule="evenodd" clip-rule="evenodd" d="M55.3931 16.8429L82.9538 64.6753C83.5604 66.103 83.8258 67.264 83.9016 68.47C84.0532 71.2879 83.0676 74.0268 81.1342 76.1346C79.2007 78.2349 76.5849 79.4747 73.7416 79.625H18.241C17.0658 79.5536 15.8906 79.2869 14.7912 78.8736C9.29418 76.6569 6.64046 70.42 8.87717 65.0134L36.6275 16.8091C37.5752 15.1146 39.0158 13.6531 40.7976 12.7138C45.9534 9.85462 52.5119 11.7332 55.3931 16.8429ZM49.2895 48.3655C49.2895 50.1689 47.811 51.6755 45.9913 51.6755C44.1716 51.6755 42.6552 50.1689 42.6552 48.3655V37.7365C42.6552 35.9293 44.1716 34.4677 45.9913 34.4677C47.811 34.4677 49.2895 35.9293 49.2895 37.7365V48.3655ZM45.9913 64.525C44.1716 64.525 42.6552 63.0184 42.6552 61.2187C42.6552 59.4115 44.1716 57.9086 45.9913 57.9086C47.811 57.9086 49.2895 59.3777 49.2895 61.1774C49.2895 63.0184 47.811 64.525 45.9913 64.525Z" fill="#F7A042"/>
</svg>
