<svg width="19" height="22" viewBox="0 0 19 22" fill="none" xmlns="http://www.w3.org/2000/svg">
<path d="M13.3531 6.45045C13.3531 6.45045 13.3531 6.43942 13.3531 6.42839C13.3531 4.89529 10.1656 4.0791 7.17655 4.0791C4.18754 4.0791 1 4.89529 1 6.42839V17.0168C1 18.0204 2.66546 19.1675 6.29418 19.344V19.366C6.29418 20.8992 9.48172 21.7153 12.4707 21.7153C15.4597 21.7153 18.6473 20.8881 18.6473 19.366V8.77769C18.6473 7.39899 16.0553 6.59384 13.3531 6.45045ZM18.0627 8.77769C18.0627 9.61593 15.7686 10.5424 12.4707 10.5424C9.17289 10.5424 6.87875 9.61593 6.87875 8.77769C6.87875 7.93944 9.17289 7.01296 12.4707 7.01296C15.7686 7.01296 18.0627 7.93944 18.0627 8.77769ZM7.17655 4.66367C10.4744 4.66367 12.7685 5.59015 12.7685 6.42839H12.4707C9.90084 6.42839 7.18757 7.03502 6.48168 8.17106C3.54782 8.04974 1.5956 7.1784 1.5956 6.42839C1.5956 5.59015 3.88974 4.66367 7.18757 4.66367H7.17655ZM1.58457 7.46517C2.50002 8.21518 4.37504 8.65636 6.29418 8.75563V8.77769V11.6895C3.47062 11.5351 1.58457 10.6858 1.58457 9.94682V7.45414V7.46517ZM1.58457 10.9946C2.50002 11.7446 4.37504 12.1858 6.29418 12.2851V15.23C3.47062 15.0756 1.58457 14.2263 1.58457 13.4873V10.9946ZM1.58457 17.0168V14.5131C2.35663 15.1528 3.88974 15.6932 6.29418 15.8145V18.7594C3.47062 18.605 1.58457 17.7557 1.58457 17.0168ZM12.4707 21.1308C9.17289 21.1308 6.87875 20.2043 6.87875 19.366V16.8844C7.93758 17.7337 10.2538 18.1859 12.4707 18.1859C14.6877 18.1859 17.0039 17.7337 18.0627 16.8844V19.366C18.0627 20.2043 15.7686 21.1308 12.4707 21.1308ZM12.4707 17.6013C9.17289 17.6013 6.87875 16.6748 6.87875 15.8366V13.3549C7.93758 14.2042 10.2538 14.6564 12.4707 14.6564C14.6877 14.6564 17.0039 14.2042 18.0627 13.3549V15.8366C18.0627 16.6748 15.7686 17.6013 12.4707 17.6013ZM12.4707 14.0719C9.17289 14.0719 6.87875 13.1454 6.87875 12.3071V9.82549C7.93758 10.6748 10.2538 11.127 12.4707 11.127C14.6877 11.127 17.0039 10.6748 18.0627 9.82549V12.3071C18.0627 13.1454 15.7686 14.0719 12.4707 14.0719Z" fill="#87BE33" stroke="#87BE33" stroke-width="0.5"/>
<path d="M3.49276 10.5742C3.61408 10.6072 3.73541 10.6514 3.86776 10.6845C3.88982 10.6845 3.91188 10.6845 3.94497 10.6845C4.0332 10.6845 4.12144 10.6403 4.18762 10.5521C4.25379 10.4749 4.29791 10.3536 4.30894 10.2322C4.30894 10.1109 4.29791 9.98959 4.24276 9.89032C4.18762 9.79106 4.11041 9.72488 4.02217 9.70282C3.90085 9.66973 3.77952 9.63664 3.66923 9.60356C3.62511 9.59253 3.56996 9.5815 3.52584 9.60356C3.48173 9.60356 3.42658 9.63665 3.39349 9.66973C3.34937 9.70282 3.31628 9.74694 3.28319 9.80209C3.25011 9.85724 3.23908 9.91238 3.22805 9.97856C3.22805 10.0447 3.21702 10.1109 3.22805 10.1771C3.22805 10.2433 3.25011 10.3094 3.28319 10.3646C3.30525 10.4197 3.33834 10.4639 3.38246 10.508C3.42658 10.5411 3.4707 10.5742 3.51481 10.5852L3.49276 10.5742Z" fill="#87BE33"/>
<path d="M9.52559 11.9089C9.40427 11.8758 9.28294 11.8427 9.17265 11.8096C9.12853 11.7986 9.07338 11.7876 9.02926 11.8096C8.98514 11.8096 8.94103 11.8427 8.89691 11.8758C8.85279 11.9089 8.8197 11.953 8.78661 12.0081C8.75352 12.0633 8.74249 12.1184 8.73146 12.1846C8.73146 12.2508 8.72043 12.317 8.73146 12.3831C8.73146 12.4493 8.75352 12.5155 8.78661 12.5706C8.80867 12.6258 8.84176 12.6699 8.88588 12.714C8.93 12.7471 8.97411 12.7802 9.01823 12.7912C9.13956 12.8243 9.26088 12.8684 9.39324 12.9015C9.4153 12.9015 9.43735 12.9015 9.47044 12.9015C9.55868 12.9015 9.64692 12.8574 9.71309 12.7692C9.77927 12.692 9.82339 12.5706 9.83442 12.4493C9.83442 12.328 9.82339 12.2067 9.76824 12.1074C9.71309 12.0081 9.63589 11.942 9.54765 11.9199L9.52559 11.9089Z" fill="#87BE33"/>
<path d="M16.2318 6.99014C16.2318 6.05263 16.4965 5.2585 17.037 4.60776C17.5774 3.95702 18.2281 3.63716 19.0002 3.63716C18.2281 3.63716 17.5774 3.3173 17.037 2.66656C16.4965 2.01582 16.2318 1.22169 16.2318 0.28418C16.2318 1.22169 15.9671 2.01582 15.4266 2.66656C14.8862 3.3173 14.2354 3.63716 13.4634 3.63716C14.2354 3.63716 14.8862 3.95702 15.4266 4.60776C15.9671 5.2585 16.2318 6.05263 16.2318 6.99014Z" fill="#87BE33"/>
<path d="M11.4785 3.6588C11.4785 3.33895 11.5668 3.07424 11.7543 2.85365C11.9418 2.63306 12.1624 2.52276 12.416 2.52276C12.1513 2.52276 11.9307 2.41247 11.7543 2.19188C11.5778 1.97128 11.4785 1.70658 11.4785 1.38672C11.4785 1.70658 11.3903 1.97128 11.2028 2.19188C11.0153 2.41247 10.7947 2.52276 10.541 2.52276C10.8057 2.52276 11.0263 2.63306 11.2028 2.85365C11.3793 3.07424 11.4785 3.33895 11.4785 3.6588Z" fill="#87BE33"/>
</svg>
