<?xml version="1.0" standalone="no"?>
<!DOCTYPE svg PUBLIC "-//W3C//DTD SVG 20010904//EN"
 "http://www.w3.org/TR/2001/REC-SVG-20010904/DTD/svg10.dtd">
<svg version="1.0" xmlns="http://www.w3.org/2000/svg"
 width="256.000000pt" height="256.000000pt" viewBox="0 0 256.000000 256.000000"
 preserveAspectRatio="xMidYMid meet">

<g transform="translate(0.000000,256.000000) scale(0.100000,-0.100000)"
fill="#4d6a00" stroke="none">
<path d="M1458 2176 c-26 -7 -65 -24 -86 -39 -27 -17 -190 -218 -493 -604
-249 -318 -463 -596 -475 -618 -39 -72 -39 -99 11 -312 34 -148 51 -203 68
-221 22 -23 22 -23 237 -20 233 3 248 7 313 67 22 20 655 817 762 960 11 14
53 69 94 121 93 119 110 157 111 238 0 115 -42 181 -192 298 -159 125 -248
159 -350 130z m101 -156 c70 -20 266 -185 280 -235 14 -51 4 -75 -68 -167
l-68 -87 -179 140 c-98 78 -185 146 -192 153 -10 10 -1 27 46 87 94 118 112
129 181 109z m-148 -461 c98 -78 182 -145 185 -150 8 -14 -674 -878 -699 -884
-12 -3 -85 -4 -161 -3 l-140 3 -33 140 c-20 86 -30 148 -25 162 9 28 671 873
684 873 5 0 90 -64 189 -141z"/>
<path d="M1408 490 c-25 -26 -29 -36 -24 -63 13 -68 7 -67 418 -67 l369 0 24
25 c40 39 32 96 -16 120 -23 12 -91 15 -384 15 l-357 0 -30 -30z"/>
</g>
</svg>
