<svg width="24" height="26" viewBox="0 0 24 26" fill="none" xmlns="http://www.w3.org/2000/svg">
<path fill-rule="evenodd" clip-rule="evenodd" d="M5.91139 3.24726C5.91139 1.84204 7.04878 0.701172 8.45748 0.701172H13.5462C14.9514 0.701172 16.0923 1.83856 16.0923 3.24726H18.6383C20.0436 3.24726 21.1844 4.38465 21.1844 5.79335V22.7568C21.1844 24.162 20.047 25.3029 18.6383 25.3029H3.37226C1.96704 25.3029 0.826172 24.1655 0.826172 22.7568V5.79335C0.826172 4.38813 1.96356 3.24726 3.37226 3.24726H5.91835H5.91139ZM5.91139 4.94117H3.3653C2.89574 4.94117 2.51661 5.3203 2.51661 5.78987V22.7533C2.51661 23.2229 2.89574 23.602 3.3653 23.602H18.6314C19.101 23.602 19.4801 23.2229 19.4801 22.7533V5.78987C19.4801 5.3203 19.101 4.94117 18.6314 4.94117H16.0853V5.78987C16.0853 7.19509 14.9479 8.33595 13.5392 8.33595H8.45052C7.0453 8.33595 5.90443 7.19856 5.90443 5.78987V4.94117H5.91139ZM14.3914 3.24726C14.3914 2.77769 14.0123 2.39856 13.5427 2.39856H8.454C7.98443 2.39856 7.6053 2.77769 7.6053 3.24726V5.79335C7.6053 6.26291 7.98443 6.64204 8.454 6.64204H13.5427C14.0123 6.64204 14.3914 6.26291 14.3914 5.79335V3.24726Z" fill="#979797"/>
<path fill-rule="evenodd" clip-rule="evenodd" d="M9.93952 14.2736H15.0282C15.4978 14.2736 15.8769 13.8944 15.8769 13.4249C15.8769 12.9553 15.4978 12.5762 15.0282 12.5762H9.93952C9.46995 12.5762 9.09082 12.9553 9.09082 13.4249C9.09082 13.8944 9.46995 14.2736 9.93952 14.2736Z" fill="#979797"/>
<path fill-rule="evenodd" clip-rule="evenodd" d="M9.93952 19.3624H15.0282C15.4978 19.3624 15.8769 18.9833 15.8769 18.5137C15.8769 18.0442 15.4978 17.665 15.0282 17.665H9.93952C9.46995 17.665 9.09082 18.0442 9.09082 18.5137C9.09082 18.9833 9.46995 19.3624 9.93952 19.3624Z" fill="#979797"/>
<path fill-rule="evenodd" clip-rule="evenodd" d="M6.54792 14.2736C7.01748 14.2736 7.39661 13.8944 7.39661 13.4249C7.39661 12.9553 7.01748 12.5762 6.54792 12.5762C6.07835 12.5762 5.69922 12.9553 5.69922 13.4249C5.69922 13.8944 6.07835 14.2736 6.54792 14.2736Z" fill="#979797"/>
<path fill-rule="evenodd" clip-rule="evenodd" d="M6.54792 19.3624C7.01748 19.3624 7.39661 18.9833 7.39661 18.5137C7.39661 18.0442 7.01748 17.665 6.54792 17.665C6.07835 17.665 5.69922 18.0442 5.69922 18.5137C5.69922 18.9833 6.07835 19.3624 6.54792 19.3624Z" fill="#979797"/>
<path d="M20.4851 21.894C22.4061 21.894 23.9634 20.3368 23.9634 18.4158C23.9634 16.4948 22.4061 14.9375 20.4851 14.9375C18.5641 14.9375 17.0068 16.4948 17.0068 18.4158C17.0068 20.3368 18.5641 21.894 20.4851 21.894Z" fill="#979797"/>
<path d="M21.1181 15.9951H19.8555V18.729H21.1181V15.9951Z" fill="white"/>
<path d="M20.485 20.8333C20.8327 20.8333 21.1146 20.5515 21.1146 20.2038C21.1146 19.8561 20.8327 19.5742 20.485 19.5742C20.1373 19.5742 19.8555 19.8561 19.8555 20.2038C19.8555 20.5515 20.1373 20.8333 20.485 20.8333Z" fill="white"/>
</svg>
