<svg width="13" height="15" viewBox="0 0 13 15" fill="none" xmlns="http://www.w3.org/2000/svg">
<mask id="mask0_1553_14756" style="mask-type:luminance" maskUnits="userSpaceOnUse" x="0" y="0" width="13" height="15">
<path fill-rule="evenodd" clip-rule="evenodd" d="M0.125 0.425293H12.204V14.4882H0.125V0.425293Z" fill="white"/>
</mask>
<g mask="url(#mask0_1553_14756)">
<path fill-rule="evenodd" clip-rule="evenodd" d="M3.36428 1.48779C2.19057 1.48779 1.21591 2.43838 1.18828 3.61067V11.1863C1.16207 12.3997 2.11832 13.3991 3.31966 13.426H9.03166C10.2139 13.3772 11.1503 12.3947 11.1418 11.1905V4.90763L7.85866 1.48779H3.37278H3.36428ZM3.37278 14.4885H3.29557C1.50916 14.4482 0.0868233 12.9621 0.125782 11.175V3.59792C0.166865 1.84054 1.61824 0.425293 3.36286 0.425293H3.37491H8.08532C8.22982 0.425293 8.36795 0.484085 8.46853 0.58821L12.0562 4.32608C12.1512 4.42454 12.2043 4.557 12.2043 4.69371V11.1863C12.217 12.9635 10.8329 14.4156 9.05291 14.4878L3.37278 14.4885Z" fill="#808080"/>
</g>
<path fill-rule="evenodd" clip-rule="evenodd" d="M11.6689 5.36399H9.71744C8.42119 5.36045 7.36719 4.30362 7.36719 3.00878V0.948242C7.36719 0.654992 7.60519 0.416992 7.89844 0.416992C8.19169 0.416992 8.42969 0.654992 8.42969 0.948242V3.00878C8.42969 3.71995 9.0084 4.29937 9.71885 4.30149H11.6689C11.9621 4.30149 12.2001 4.53949 12.2001 4.83274C12.2001 5.12599 11.9621 5.36399 11.6689 5.36399" fill="#808080"/>
<path fill-rule="evenodd" clip-rule="evenodd" d="M7.77031 10.4102H3.94531C3.65206 10.4102 3.41406 10.1722 3.41406 9.87891C3.41406 9.58566 3.65206 9.34766 3.94531 9.34766H7.77031C8.06356 9.34766 8.30156 9.58566 8.30156 9.87891C8.30156 10.1722 8.06356 10.4102 7.77031 10.4102" fill="#808080"/>
<path fill-rule="evenodd" clip-rule="evenodd" d="M6.31467 7.75244H3.9375C3.64425 7.75244 3.40625 7.51444 3.40625 7.22119C3.40625 6.92794 3.64425 6.68994 3.9375 6.68994H6.31467C6.60792 6.68994 6.84592 6.92794 6.84592 7.22119C6.84592 7.51444 6.60792 7.75244 6.31467 7.75244" fill="#808080"/>
</svg>
