<svg width="20" height="20" viewBox="0 0 20 20" fill="none" xmlns="http://www.w3.org/2000/svg">
<path d="M13.0398 5.87461C13.0398 5.87461 13.0398 5.86461 13.0398 5.85461C13.0398 4.46461 10.1498 3.72461 7.43984 3.72461C4.72984 3.72461 1.83984 4.46461 1.83984 5.85461V15.4546C1.83984 16.3646 3.34984 17.4046 6.63984 17.5646V17.5846C6.63984 18.9746 9.52984 19.7146 12.2398 19.7146C14.9498 19.7146 17.8398 18.9646 17.8398 17.5846V7.98461C17.8398 6.73461 15.4898 6.00461 13.0398 5.87461ZM17.3098 7.98461C17.3098 8.74461 15.2298 9.58461 12.2398 9.58461C9.24984 9.58461 7.16984 8.74461 7.16984 7.98461C7.16984 7.22461 9.24984 6.38461 12.2398 6.38461C15.2298 6.38461 17.3098 7.22461 17.3098 7.98461ZM7.43984 4.25461C10.4298 4.25461 12.5098 5.09461 12.5098 5.85461H12.2398C9.90984 5.85461 7.44984 6.40461 6.80984 7.43461C4.14984 7.32461 2.37984 6.53461 2.37984 5.85461C2.37984 5.09461 4.45984 4.25461 7.44984 4.25461H7.43984ZM2.36984 6.79461C3.19984 7.47461 4.89984 7.87461 6.63984 7.96461V7.98461V10.6246C4.07984 10.4846 2.36984 9.71461 2.36984 9.04461V6.78461V6.79461ZM2.36984 9.99461C3.19984 10.6746 4.89984 11.0746 6.63984 11.1646V13.8346C4.07984 13.6946 2.36984 12.9246 2.36984 12.2546V9.99461ZM2.36984 15.4546V13.1846C3.06984 13.7646 4.45984 14.2546 6.63984 14.3646V17.0346C4.07984 16.8946 2.36984 16.1246 2.36984 15.4546ZM12.2398 19.1846C9.24984 19.1846 7.16984 18.3446 7.16984 17.5846V15.3346C8.12984 16.1046 10.2298 16.5146 12.2398 16.5146C14.2498 16.5146 16.3498 16.1046 17.3098 15.3346V17.5846C17.3098 18.3446 15.2298 19.1846 12.2398 19.1846ZM12.2398 15.9846C9.24984 15.9846 7.16984 15.1446 7.16984 14.3846V12.1346C8.12984 12.9046 10.2298 13.3146 12.2398 13.3146C14.2498 13.3146 16.3498 12.9046 17.3098 12.1346V14.3846C17.3098 15.1446 15.2298 15.9846 12.2398 15.9846ZM12.2398 12.7846C9.24984 12.7846 7.16984 11.9446 7.16984 11.1846V8.93461C8.12984 9.70461 10.2298 10.1146 12.2398 10.1146C14.2498 10.1146 16.3498 9.70461 17.3098 8.93461V11.1846C17.3098 11.9446 15.2298 12.7846 12.2398 12.7846Z" fill="#91918A" stroke="#91918A" stroke-width="0.5"/>
<path d="M4.09991 9.6142C4.20991 9.6442 4.31991 9.6842 4.43991 9.7142C4.45991 9.7142 4.47991 9.7142 4.50991 9.7142C4.58991 9.7142 4.66991 9.6742 4.72991 9.5942C4.78991 9.5242 4.82991 9.4142 4.83991 9.3042C4.83991 9.1942 4.82991 9.0842 4.77991 8.9942C4.72991 8.9042 4.65991 8.8442 4.57991 8.8242C4.46991 8.7942 4.35991 8.7642 4.25991 8.7342C4.21991 8.7242 4.16991 8.7142 4.12991 8.7342C4.08991 8.7342 4.03991 8.7642 4.00991 8.7942C3.96991 8.8242 3.93991 8.8642 3.90991 8.9142C3.87991 8.9642 3.86991 9.0142 3.85991 9.0742C3.85991 9.1342 3.84991 9.1942 3.85991 9.2542C3.85991 9.3142 3.87991 9.3742 3.90991 9.4242C3.92991 9.4742 3.95991 9.5142 3.99991 9.5542C4.03991 9.5842 4.07991 9.6142 4.11991 9.6242L4.09991 9.6142Z" fill="#91918A"/>
<path d="M9.57015 10.8242C9.46015 10.7942 9.35015 10.7642 9.25015 10.7342C9.21015 10.7242 9.16015 10.7142 9.12015 10.7342C9.08015 10.7342 9.04015 10.7642 9.00015 10.7942C8.96015 10.8242 8.93015 10.8642 8.90015 10.9142C8.87015 10.9642 8.86015 11.0142 8.85015 11.0742C8.85015 11.1342 8.84015 11.1942 8.85015 11.2542C8.85015 11.3142 8.87015 11.3742 8.90015 11.4242C8.92015 11.4742 8.95015 11.5142 8.99015 11.5542C9.03015 11.5842 9.07015 11.6142 9.11015 11.6242C9.22015 11.6542 9.33015 11.6942 9.45015 11.7242C9.47015 11.7242 9.49015 11.7242 9.52015 11.7242C9.60015 11.7242 9.68015 11.6842 9.74015 11.6042C9.80015 11.5342 9.84015 11.4242 9.85015 11.3142C9.85015 11.2042 9.84015 11.0942 9.79015 11.0042C9.74015 10.9142 9.67015 10.8542 9.59015 10.8342L9.57015 10.8242Z" fill="#91918A"/>
<path d="M15.6496 6.36516C15.6496 5.51516 15.8896 4.79516 16.3796 4.20516C16.8696 3.61516 17.4596 3.32516 18.1596 3.32516C17.4596 3.32516 16.8696 3.03516 16.3796 2.44516C15.8896 1.85516 15.6496 1.13516 15.6496 0.285156C15.6496 1.13516 15.4096 1.85516 14.9196 2.44516C14.4296 3.03516 13.8396 3.32516 13.1396 3.32516C13.8396 3.32516 14.4296 3.61516 14.9196 4.20516C15.4096 4.79516 15.6496 5.51516 15.6496 6.36516Z" fill="#91918A"/>
<path d="M11.3402 3.34516C11.3402 3.05516 11.4202 2.81516 11.5902 2.61516C11.7602 2.41516 11.9602 2.31516 12.1902 2.31516C11.9502 2.31516 11.7502 2.21516 11.5902 2.01516C11.4302 1.81516 11.3402 1.57516 11.3402 1.28516C11.3402 1.57516 11.2602 1.81516 11.0902 2.01516C10.9202 2.21516 10.7202 2.31516 10.4902 2.31516C10.7302 2.31516 10.9302 2.41516 11.0902 2.61516C11.2502 2.81516 11.3402 3.05516 11.3402 3.34516Z" fill="#91918A"/>
</svg>
