<?xml version="1.0" standalone="no"?>
<!DOCTYPE svg PUBLIC "-//W3C//DTD SVG 20010904//EN"
 "http://www.w3.org/TR/2001/REC-SVG-20010904/DTD/svg10.dtd">
<svg version="1.0" xmlns="http://www.w3.org/2000/svg"
 width="256.000000pt" height="256.000000pt" viewBox="0 0 256.000000 256.000000"
 preserveAspectRatio="xMidYMid meet">

<g transform="translate(0.000000,256.000000) scale(0.100000,-0.100000)"
fill="rgb(255 255 255)" stroke="none">
<path d="M1360 2318 c-19 -13 -44 -41 -55 -63 -19 -40 -19 -42 4 -390 12 -192
25 -372 28 -398 7 -56 35 -102 82 -134 43 -29 65 -29 456 -3 417 27 400 25
447 69 56 52 63 98 33 216 -102 403 -457 701 -860 722 -93 5 -102 4 -135 -19z
m216 -149 c276 -51 523 -271 613 -548 29 -90 28 -111 -6 -111 -16 0 -154 -9
-308 -20 -154 -11 -303 -20 -330 -20 l-51 0 -18 278 c-9 152 -20 312 -23 355
l-6 77 35 0 c19 0 61 -5 94 -11z"/>
<path d="M865 1899 c-312 -88 -562 -359 -631 -683 -17 -82 -20 -266 -4 -346
68 -354 348 -639 703 -716 85 -19 256 -21 347 -4 375 68 668 371 725 748 16
110 5 160 -47 209 -57 53 -67 54 -418 32 -266 -17 -325 -18 -336 -7 -9 9 -19
111 -34 323 -12 171 -26 324 -31 342 -15 47 -47 83 -93 104 -51 23 -92 23
-181 -2z m120 -148 c3 -5 15 -146 26 -313 11 -167 25 -321 31 -343 13 -52 72
-110 126 -124 33 -9 111 -8 360 8 174 11 320 16 325 12 4 -4 0 -43 -8 -88
-102 -536 -717 -785 -1159 -469 -327 233 -408 686 -183 1016 91 133 221 232
377 286 72 25 96 29 105 15z"/>
</g>
</svg>
