<svg width="41" height="40" viewBox="0 0 41 40" fill="none" xmlns="http://www.w3.org/2000/svg">
<g clip-path="url(#clip0_638_11249)">
<path fill-rule="evenodd" clip-rule="evenodd" d="M9.85452 23.5583C10.1815 24.2575 10.2441 25.0401 10.0319 25.7775C9.81974 26.5148 9.34669 27.1583 8.69278 27.5931C8.03887 28.0279 7.2493 28.2296 6.45626 28.1601C5.66669 28.0905 4.92582 27.7566 4.36234 27.2175C3.80234 26.6748 3.45452 25.9618 3.38147 25.2001C3.30843 24.4383 3.51713 23.6766 3.9693 23.047C4.42147 22.4175 5.08582 21.9618 5.85104 21.7566C6.61626 21.5514 7.43017 21.6105 8.15713 21.927L12.1502 18.0801C11.9171 17.5827 11.8163 17.0366 11.858 16.4905C11.8997 15.9444 12.0841 15.4192 12.3902 14.9601C12.6963 14.5009 13.1206 14.1253 13.618 13.8609C14.1154 13.6001 14.6754 13.4644 15.2423 13.4644C15.8093 13.4644 16.3658 13.6001 16.8667 13.8609C17.3641 14.1218 17.785 14.5009 18.0945 14.9601C18.4006 15.4192 18.585 15.9444 18.6267 16.4905C18.6684 17.0366 18.5676 17.5827 18.3345 18.0801L22.3276 21.927C22.7658 21.7357 23.2423 21.6348 23.7223 21.6348C24.2023 21.6348 24.6789 21.7357 25.1171 21.927L30.8076 16.4453C30.4806 15.7461 30.418 14.9635 30.6302 14.2261C30.8423 13.4888 31.3154 12.8453 31.9693 12.4105C32.6232 11.9757 33.4128 11.774 34.2058 11.8435C34.9954 11.9131 35.7363 12.247 36.2997 12.7861C36.8597 13.3288 37.2076 14.0418 37.2806 14.8035C37.3536 15.5653 37.145 16.327 36.6928 16.9566C36.2406 17.5861 35.5763 18.0418 34.811 18.247C34.0458 18.4522 33.2319 18.3931 32.5049 18.0766L26.8145 23.5583C27.0476 24.0557 27.1484 24.6018 27.1067 25.1479C27.065 25.694 26.8806 26.2192 26.5745 26.6783C26.2684 27.1375 25.8441 27.5131 25.3467 27.7775C24.8493 28.0383 24.2893 28.174 23.7223 28.174C23.1554 28.174 22.5989 28.0383 22.098 27.7775C21.6006 27.5166 21.1797 27.1375 20.8702 26.6783C20.5641 26.2192 20.3797 25.694 20.338 25.1479C20.2963 24.6018 20.3971 24.0557 20.6302 23.5583L16.6371 19.7114C16.1989 19.9027 15.7223 20.0035 15.2423 20.0035C14.7623 20.0035 14.2858 19.9027 13.8476 19.7114L9.85452 23.5583Z" fill="#F99741"/>
</g>
<defs>
<clipPath id="clip0_638_11249">
<rect width="40" height="40" fill="white" transform="translate(0.333984)"/>
</clipPath>
</defs>
</svg>
