<svg width="40" height="41" viewBox="0 0 40 41" fill="none" xmlns="http://www.w3.org/2000/svg">
<path d="M28.3341 20.5834C28.2515 20.5839 28.1701 20.5643 28.0967 20.5263L20.2198 16.7285C20.128 16.6841 20.0505 16.6148 19.9961 16.5286C19.9417 16.4423 19.9126 16.3425 19.9121 16.2406V7.74386C19.9125 7.65173 19.9361 7.56117 19.9806 7.48052C20.0252 7.39987 20.0893 7.33171 20.1671 7.28233C20.2411 7.23922 20.3244 7.21434 20.41 7.20976C20.4956 7.20517 20.5811 7.22101 20.6594 7.25595L28.5715 11.0494C28.6632 11.0938 28.7407 11.163 28.7951 11.2493C28.8495 11.3355 28.8786 11.4353 28.8791 11.5373V20.0384C28.8755 20.1268 28.8504 20.2131 28.806 20.2897C28.7616 20.3663 28.6992 20.4309 28.6242 20.4779C28.539 20.539 28.4386 20.5755 28.3341 20.5834ZM20.9846 15.8845L27.789 19.1592V11.8889L20.9846 8.6098V15.8845Z" fill="white"/>
<path d="M28.3341 12.0823C28.2521 12.0821 28.1711 12.0641 28.0967 12.0296L20.2198 8.23177C20.1273 8.18704 20.0494 8.11709 19.995 8.02999C19.9405 7.94289 19.9118 7.84218 19.9121 7.73946C19.9121 7.63738 19.941 7.53739 19.9955 7.45104C20.0499 7.3647 20.1277 7.29553 20.2198 7.25155L28.1319 3.45814C28.2054 3.42333 28.2857 3.40527 28.3671 3.40527C28.4484 3.40527 28.5287 3.42333 28.6022 3.45814L36.5143 7.25594C36.6068 7.30067 36.6847 7.37062 36.7392 7.45772C36.7936 7.54483 36.8223 7.64554 36.822 7.74825C36.8205 7.85402 36.7875 7.95693 36.7272 8.04384C36.6669 8.13075 36.5821 8.19771 36.4835 8.23616L28.5715 12.0296C28.4971 12.0641 28.4161 12.0821 28.3341 12.0823ZM21.6967 7.73946L28.3341 10.9351L34.9758 7.74825L28.3385 4.55265L21.6967 7.73946Z" fill="white"/>
<path d="M28.3341 20.5837C28.2317 20.5824 28.1315 20.5535 28.044 20.5002C27.969 20.4531 27.9066 20.3885 27.8622 20.3119C27.8178 20.2354 27.7927 20.1491 27.7891 20.0606V11.5463C27.7891 11.4443 27.818 11.3443 27.8724 11.2579C27.9269 11.1716 28.0046 11.1024 28.0968 11.0584L36.0088 7.25624C36.0911 7.21596 36.1823 7.19724 36.2738 7.20186C36.3653 7.20647 36.4541 7.23426 36.5319 7.28261C36.6097 7.332 36.6738 7.40015 36.7184 7.4808C36.7629 7.56145 36.7865 7.65201 36.7869 7.74415V16.2409C36.7864 16.3428 36.7572 16.4426 36.7029 16.5288C36.6485 16.6151 36.571 16.6844 36.4792 16.7288L28.5715 20.5266C28.4982 20.5646 28.4167 20.5842 28.3341 20.5837ZM28.8792 11.8892V19.1727L35.6836 15.8848V8.61008L28.8792 11.8892Z" fill="white"/>
<path d="M24.3873 10.1701C24.2714 10.1589 24.1622 10.1109 24.0755 10.0332C23.9889 9.95543 23.9294 9.85198 23.9058 9.73798C23.8823 9.62398 23.8958 9.50543 23.9444 9.39968C23.9931 9.29393 24.0744 9.20654 24.1763 9.15031L32.0884 5.3569C32.2129 5.32501 32.3446 5.33812 32.4604 5.39392C32.5761 5.44972 32.6684 5.54462 32.721 5.66188C32.7736 5.77913 32.783 5.91119 32.7477 6.03474C32.7124 6.15829 32.6346 6.26539 32.5279 6.33712L24.6158 10.1305C24.5431 10.159 24.4654 10.1724 24.3873 10.1701Z" fill="white"/>
<path d="M25.4459 13.9105C25.3639 13.9099 25.283 13.8919 25.2085 13.8578L22.8789 12.7369C22.8091 12.7095 22.7458 12.668 22.6928 12.615C22.6399 12.562 22.5984 12.4987 22.571 12.429C22.5436 12.3593 22.5308 12.2846 22.5336 12.2098C22.5363 12.1349 22.5544 12.0614 22.5868 11.9938C22.6193 11.9263 22.6652 11.8661 22.7219 11.8172C22.7786 11.7682 22.8448 11.7314 22.9164 11.7092C22.9879 11.6869 23.0633 11.6796 23.1377 11.6878C23.2122 11.696 23.2842 11.7194 23.3492 11.7567L25.6833 12.8776C25.7928 12.9321 25.8809 13.0219 25.9332 13.1326C25.9855 13.2432 25.999 13.3683 25.9716 13.4876C25.9442 13.6068 25.8774 13.7134 25.7821 13.7902C25.6867 13.8669 25.5683 13.9093 25.4459 13.9105Z" fill="white"/>
<path d="M17.7908 10.7062H11.1974C11.0571 10.7028 10.9236 10.6449 10.8251 10.5448C10.7267 10.4447 10.671 10.3103 10.6699 10.1699V5.24243C10.6699 5.09788 10.7273 4.95924 10.8296 4.85702C10.9318 4.7548 11.0704 4.69738 11.215 4.69738H13.6853C14.0591 4.07362 14.5944 3.56234 15.2346 3.21749C15.8748 2.87264 16.5963 2.707 17.3228 2.73806C18.0493 2.76912 18.754 2.99573 19.3625 3.39396C19.9709 3.79219 20.4606 4.34729 20.7798 5.00067C20.8365 5.1291 20.8415 5.27445 20.7937 5.40645C20.7459 5.53845 20.649 5.64692 20.5232 5.70925C20.3974 5.77158 20.2524 5.78297 20.1184 5.74104C19.9845 5.69912 19.8718 5.60711 19.804 5.48419C19.5618 4.98549 19.1842 4.56501 18.7143 4.27082C18.2444 3.97663 17.7012 3.82062 17.1468 3.82062C16.5925 3.82062 16.0493 3.97663 15.5794 4.27082C15.1095 4.56501 14.7319 4.98549 14.4897 5.48419C14.4455 5.57582 14.3762 5.65298 14.2898 5.70669C14.2034 5.76039 14.1035 5.78841 14.0018 5.78749H11.76V9.61606H17.7908C17.9354 9.61606 18.074 9.67349 18.1762 9.7757C18.2784 9.87792 18.3359 10.0166 18.3359 10.1611C18.3359 10.3057 18.2784 10.4443 18.1762 10.5465C18.074 10.6487 17.9354 10.7062 17.7908 10.7062Z" fill="white" stroke="white" stroke-width="0.5"/>
<path d="M27.768 38.2668H3.78118C3.71018 38.2668 3.63987 38.2528 3.57428 38.2256C3.50868 38.1984 3.44908 38.1586 3.39888 38.1084C3.34867 38.0582 3.30885 37.9986 3.28168 37.933C3.25451 37.8674 3.24052 37.7971 3.24052 37.7261V7.21181C3.23816 7.13934 3.2504 7.06714 3.27652 6.9995C3.30263 6.93186 3.34208 6.87017 3.39252 6.81809C3.44296 6.766 3.50337 6.7246 3.57013 6.69634C3.6369 6.66807 3.70868 6.65353 3.78118 6.65357H10.2163C10.2917 6.64677 10.3677 6.65576 10.4395 6.67996C10.5112 6.70415 10.5771 6.74302 10.633 6.79409C10.6888 6.84516 10.7335 6.90731 10.764 6.97658C10.7945 7.04585 10.8103 7.12072 10.8103 7.19642C10.8103 7.27212 10.7945 7.34699 10.764 7.41626C10.7335 7.48553 10.6888 7.54768 10.633 7.59875C10.5771 7.64982 10.5112 7.68869 10.4395 7.71289C10.3677 7.73708 10.2917 7.74607 10.2163 7.73928H4.32623V37.1898H27.768C28.3637 37.1898 28.935 36.9532 29.3563 36.5319C29.7775 36.1107 30.0141 35.5394 30.0141 34.9437V22.2184C30.0074 22.143 30.0163 22.067 30.0405 21.9953C30.0647 21.9236 30.1036 21.8577 30.1547 21.8018C30.2057 21.7459 30.2679 21.7013 30.3372 21.6707C30.4064 21.6402 30.4813 21.6244 30.557 21.6244C30.6327 21.6244 30.7076 21.6402 30.7768 21.6707C30.8461 21.7013 30.9083 21.7459 30.9593 21.8018C31.0104 21.8577 31.0493 21.9236 31.0735 21.9953C31.0977 22.067 31.1067 22.143 31.0999 22.2184V34.9349C31.0987 35.8182 30.7473 36.665 30.1227 37.2896C29.4981 37.9142 28.6513 38.2656 27.768 38.2668Z" fill="white" stroke="white" stroke-width="0.5"/>
<path d="M9.45533 22.7198H9.43335C9.34639 22.7185 9.26103 22.6962 9.18451 22.6549C9.10799 22.6136 9.04256 22.5544 8.99379 22.4824L7.80697 20.7594C7.7505 20.7031 7.70704 20.6352 7.67966 20.5603C7.65228 20.4855 7.64165 20.4056 7.64851 20.3261C7.65537 20.2467 7.67957 20.1698 7.71939 20.1008C7.7592 20.0317 7.81368 19.9723 7.87897 19.9266C7.94426 19.8809 8.01878 19.85 8.09728 19.8363C8.17578 19.8225 8.25634 19.8261 8.3333 19.8468C8.41025 19.8675 8.48173 19.9049 8.54268 19.9562C8.60364 20.0076 8.65259 20.0717 8.6861 20.144L9.45972 21.2692L12.0224 18.144C12.0654 18.0824 12.1207 18.0303 12.1849 17.9911C12.249 17.9519 12.3205 17.9264 12.395 17.9162C12.4695 17.906 12.5452 17.9113 12.6176 17.9317C12.6899 17.9522 12.7572 17.9874 12.8152 18.0351C12.8733 18.0829 12.9209 18.1421 12.9549 18.2091C12.989 18.2761 13.0089 18.3494 13.0133 18.4244C13.0176 18.4994 13.0065 18.5746 12.9804 18.6451C12.9544 18.7156 12.914 18.7799 12.8619 18.8341L9.8773 22.522C9.82537 22.5834 9.76078 22.6329 9.68794 22.667C9.61511 22.7012 9.53576 22.7192 9.45533 22.7198Z" fill="white"/>
<path d="M9.45525 28.135H9.43328C9.34654 28.1326 9.26157 28.1099 9.18522 28.0687C9.10886 28.0274 9.04327 27.9689 8.99372 27.8976L7.8069 26.1789C7.75145 26.1226 7.70893 26.0548 7.68228 25.9804C7.65563 25.9059 7.6455 25.8266 7.65258 25.7478C7.65967 25.6691 7.68381 25.5928 7.72331 25.5243C7.76282 25.4558 7.81676 25.3968 7.88138 25.3512C7.94601 25.3056 8.01977 25.2747 8.09755 25.2605C8.17533 25.2463 8.25528 25.2492 8.33183 25.269C8.40838 25.2888 8.47972 25.325 8.54088 25.3751C8.60204 25.4252 8.65157 25.488 8.68602 25.5592L9.45965 26.6844L12.0223 23.5548C12.1126 23.4393 12.2451 23.3646 12.3906 23.3468C12.5361 23.3291 12.6827 23.3699 12.7981 23.4603C12.9135 23.5506 12.9883 23.6831 13.006 23.8286C13.0238 23.9741 12.983 24.1207 12.8926 24.2361L9.87723 27.924C9.82698 27.9883 9.76303 28.0406 9.69004 28.0771C9.61705 28.1136 9.53685 28.1334 9.45525 28.135Z" fill="white"/>
<path d="M9.45525 33.5508H9.43328C9.34664 33.5504 9.2614 33.529 9.18485 33.4884C9.1083 33.4478 9.04271 33.3893 8.99372 33.3179L7.8069 31.5992C7.75145 31.5428 7.70893 31.4751 7.68228 31.4006C7.65563 31.3262 7.6455 31.2468 7.65258 31.1681C7.65967 31.0893 7.68381 31.0131 7.72331 30.9446C7.76282 30.8761 7.81676 30.817 7.88138 30.7715C7.94601 30.7259 8.01977 30.6949 8.09755 30.6807C8.17533 30.6665 8.25528 30.6694 8.33183 30.6892C8.40838 30.709 8.47972 30.7452 8.54088 30.7953C8.60204 30.8454 8.65157 30.9082 8.68602 30.9794L9.45965 32.1047L12.0223 28.975C12.0653 28.9134 12.1207 28.8614 12.1848 28.8222C12.2489 28.783 12.3205 28.7575 12.3949 28.7473C12.4694 28.737 12.5452 28.7423 12.6175 28.7628C12.6898 28.7833 12.7571 28.8185 12.8152 28.8662C12.8732 28.9139 12.9208 28.9731 12.9549 29.0401C12.9889 29.1071 13.0088 29.1804 13.0132 29.2554C13.0176 29.3305 13.0064 29.4056 12.9803 29.4761C12.9543 29.5466 12.914 29.611 12.8618 29.6651L9.84646 33.353C9.79832 33.4111 9.73874 33.4586 9.67144 33.4926C9.60414 33.5267 9.53055 33.5465 9.45525 33.5508Z" fill="white"/>
<path d="M15 21H22V22H15V21Z" fill="white" stroke="white" stroke-width="0.5"/>
<path d="M15 26H27V27H15V26Z" fill="white" stroke="white" stroke-width="0.5"/>
<path d="M15 31H27V32H15V31Z" fill="white" stroke="white" stroke-width="0.5"/>
</svg>
