<svg width="18" height="19" viewBox="0 0 18 19" fill="none" xmlns="http://www.w3.org/2000/svg">
<path d="M3.75 17C3.3375 17 2.98438 16.8531 2.69063 16.5594C2.39688 16.2656 2.25 15.9125 2.25 15.5V7.04375C2.025 6.90625 1.84375 6.72813 1.70625 6.50938C1.56875 6.29063 1.5 6.0375 1.5 5.75V3.5C1.5 3.0875 1.64687 2.73438 1.94063 2.44063C2.23438 2.14687 2.5875 2 3 2H15C15.4125 2 15.7656 2.14687 16.0594 2.44063C16.3531 2.73438 16.5 3.0875 16.5 3.5V5.75C16.5 6.0375 16.4313 6.29063 16.2938 6.50938C16.1563 6.72813 15.975 6.90625 15.75 7.04375V15.5C15.75 15.9125 15.6031 16.2656 15.3094 16.5594C15.0156 16.8531 14.6625 17 14.25 17H3.75ZM3.75 7.25V15.5H14.25V7.25H3.75ZM3 5.75H15V3.5H3V5.75ZM6.75 11H11.25V9.5H6.75V11Z" fill="#4D6A00"/>
</svg>
