<svg width="26" height="25" viewBox="0 0 26 25" fill="none" xmlns="http://www.w3.org/2000/svg">
<g clip-path="url(#clip0_6497_21961)">
<path d="M6.68519 8.78691L7.04389 6.60648H5.51562L7.72432 3.33691L7.36563 5.51952H8.89389L6.68519 8.78691Z" fill="#919290"/>
<path d="M21.9609 12.4756V21.606H20.6566V15.6038L20.1609 15.1799L17.1131 12.5843L13.2653 15.6169V21.606H11.9609V15.006L17.1435 10.9277L20.5435 13.8147L20.6566 13.9103C20.6588 13.4343 20.6631 12.9538 20.6675 12.4756H21.9609Z" fill="#919290"/>
<path d="M12.7464 3.18457C11.2442 3.18457 9.82466 3.54544 8.57031 4.18674L9.41596 5.21501C10.2442 4.82805 11.1486 4.58022 12.1007 4.50414C15.9421 4.19979 19.2725 6.64979 20.3203 10.0867H21.6638C20.6377 6.12153 17.0312 3.18457 12.7464 3.18457Z" fill="#919290"/>
<path d="M17.6168 17.4756H16.3125V21.606H17.6168V17.4756Z" fill="#919290"/>
<path d="M12.1756 12.4762C12.5358 12.4762 12.8278 12.1842 12.8278 11.824C12.8278 11.4639 12.5358 11.1719 12.1756 11.1719C11.8154 11.1719 11.5234 11.4639 11.5234 11.824C11.5234 12.1842 11.8154 12.4762 12.1756 12.4762Z" fill="#919290"/>
<path d="M13.9192 9.64984C14.1593 9.64984 14.3539 9.45518 14.3539 9.21506C14.3539 8.97493 14.1593 8.78027 13.9192 8.78027C13.679 8.78027 13.4844 8.97493 13.4844 9.21506C13.4844 9.45518 13.679 9.64984 13.9192 9.64984Z" fill="#919290"/>
<path d="M10.5448 14.867C10.7249 14.867 10.8709 14.721 10.8709 14.5409C10.8709 14.3608 10.7249 14.2148 10.5448 14.2148C10.3647 14.2148 10.2188 14.3608 10.2188 14.5409C10.2188 14.721 10.3647 14.867 10.5448 14.867Z" fill="#919290"/>
<path d="M10.4361 9.8674C10.5562 9.8674 10.6535 9.77007 10.6535 9.65001C10.6535 9.52995 10.5562 9.43262 10.4361 9.43262C10.3161 9.43262 10.2188 9.52995 10.2188 9.65001C10.2188 9.77007 10.3161 9.8674 10.4361 9.8674Z" fill="#919290"/>
<path d="M15.2252 11.3889C15.3453 11.3889 15.4426 11.2916 15.4426 11.1715C15.4426 11.0514 15.3453 10.9541 15.2252 10.9541C15.1051 10.9541 15.0078 11.0514 15.0078 11.1715C15.0078 11.2916 15.1051 11.3889 15.2252 11.3889Z" fill="#919290"/>
<path d="M17.1783 9.64963C17.2984 9.64963 17.3957 9.5523 17.3957 9.43224C17.3957 9.31217 17.2984 9.21484 17.1783 9.21484C17.0583 9.21484 16.9609 9.31217 16.9609 9.43224C16.9609 9.5523 17.0583 9.64963 17.1783 9.64963Z" fill="#919290"/>
<path d="M9.33322 12.6928C9.57334 12.6928 9.768 12.4981 9.768 12.258C9.768 12.0179 9.57334 11.8232 9.33322 11.8232C9.0931 11.8232 8.89844 12.0179 8.89844 12.258C8.89844 12.4981 9.0931 12.6928 9.33322 12.6928Z" fill="#919290"/>
<path d="M12.5071 10.0846C12.5672 10.0846 12.6158 10.0359 12.6158 9.97588C12.6158 9.91585 12.5672 9.86719 12.5071 9.86719C12.4471 9.86719 12.3984 9.91585 12.3984 9.97588C12.3984 10.0359 12.4471 10.0846 12.5071 10.0846Z" fill="#919290"/>
<path d="M12.8325 6.6084C9.59558 6.6084 6.96298 9.24101 6.96298 12.478C6.96298 13.0019 7.03037 13.5149 7.16732 14.0106C6.43471 14.0845 5.7608 14.3606 5.20211 14.7867C4.91298 13.878 4.78471 12.8975 4.84993 11.8801C4.92602 10.6932 5.2695 9.57144 5.8195 8.57796L4.94341 7.51275C4.05428 8.93014 3.53906 10.6041 3.53906 12.3975C3.53906 13.6236 3.78037 14.7975 4.2195 15.8693C3.85645 16.4627 3.64776 17.1584 3.64776 17.904C3.64776 20.0627 5.40211 21.8171 7.5608 21.8171C8.38689 21.8171 9.15645 21.5584 9.78906 21.1171C10.8065 20.4127 11.4738 19.2345 11.4738 17.904C11.4738 16.0975 10.2434 14.5736 8.57602 14.1258C8.3695 13.6019 8.26732 13.0497 8.26732 12.478C8.26732 9.96057 10.3151 7.91275 12.8325 7.91275C13.8956 7.91275 14.9325 8.28666 15.7499 8.96709L16.5847 7.96492C15.5325 7.08883 14.1999 6.6084 12.8325 6.6084ZM8.67602 15.8627L8.99993 16.1867C9.05428 16.2084 9.09993 16.2519 9.12167 16.3084L9.59776 16.7867L8.48471 17.9019L9.59776 19.0149L9.16298 19.4497L8.67602 19.9388L7.5608 18.8236L6.44558 19.9388L5.52385 19.0149L5.94341 18.5954L6.63906 17.9019L5.52385 16.7867L5.91732 16.3932L6.44558 15.8627L7.5608 16.978L8.67602 15.8627Z" fill="#919290"/>
<path d="M8.48431 17.9024L9.59735 19.0155L9.16257 19.4502L8.67561 19.9394L7.56039 18.8241L6.44518 19.9394L5.52344 19.0155L5.943 18.5959L6.63865 17.9024L5.52344 16.7872L5.91692 16.3937L6.44518 15.8633L7.56039 16.9785L8.67561 15.8633L9.12126 16.3089L9.59735 16.7872L8.48431 17.9024Z" fill="white"/>
</g>
<defs>
<clipPath id="clip0_6497_21961">
<rect width="25" height="25" fill="white" transform="translate(0.25)"/>
</clipPath>
</defs>
</svg>
