<svg width="16" height="16" viewBox="0 0 16 16" fill="none" xmlns="http://www.w3.org/2000/svg">
<path opacity="0.4" d="M14.6668 8.00065C14.6668 11.6833 11.6822 14.6673 8.00016 14.6673C4.31816 14.6673 1.3335 11.6833 1.3335 8.00065C1.3335 4.31932 4.31816 1.33398 8.00016 1.33398C11.6822 1.33398 14.6668 4.31932 14.6668 8.00065Z" fill="#87BE33"/>
<path fill-rule="evenodd" clip-rule="evenodd" d="M7.42074 7.58914C7.42074 7.26781 7.68274 7.00581 8.00407 7.00581C8.3254 7.00581 8.5874 7.26781 8.5874 7.58914L8.5874 10.5358C8.5874 10.8571 8.3254 11.1191 8.00407 11.1191C7.68274 11.1191 7.42074 10.8571 7.42074 10.5358L7.42074 7.58914ZM8.58407 5.47394C8.58407 5.79527 8.3234 6.05727 8.00407 6.05727C7.6754 6.05727 7.41407 5.79527 7.41407 5.47394C7.41407 5.15261 7.6754 4.89061 7.9974 4.89061C8.32074 4.89061 8.58407 5.15261 8.58407 5.47394Z" fill="#4D6A00"/>
</svg>
