<svg width="24" height="24" viewBox="0 0 24 24" fill="none" xmlns="http://www.w3.org/2000/svg">
<path opacity="0.4" d="M22 12C22 17.524 17.523 22 12 22C6.477 22 2 17.524 2 12C2 6.478 6.477 2 12 2C17.523 2 22 6.478 22 12Z" fill="#87BE33"/>
<path fill-rule="evenodd" clip-rule="evenodd" d="M11.1309 11.3847C11.1309 10.9027 11.5239 10.5097 12.0059 10.5097C12.4879 10.5097 12.8809 10.9027 12.8809 11.3847L12.8809 15.8047C12.8809 16.2867 12.4879 16.6797 12.0059 16.6797C11.5239 16.6797 11.1309 16.2867 11.1309 15.8047L11.1309 11.3847ZM12.8759 8.21189C12.8759 8.69389 12.4849 9.08689 12.0059 9.08689C11.5129 9.08689 11.1209 8.69389 11.1209 8.21189C11.1209 7.72989 11.5129 7.33689 11.9959 7.33689C12.4809 7.33689 12.8759 7.72989 12.8759 8.21189Z" fill="#4D6A00"/>
</svg>
