<svg width="31" height="30" viewBox="0 0 31 30" fill="none" xmlns="http://www.w3.org/2000/svg">
<g clip-path="url(#clip0_7162_560)">
<path d="M7.49987 28.4998H1.49998C0.946992 28.4998 0.5 28.0518 0.5 27.4998V17.5C0.5 16.948 0.946992 16.5 1.49998 16.5H7.49987C8.05286 16.5 8.49985 16.948 8.49985 17.5V27.4998C8.49985 28.0518 8.05286 28.4998 7.49987 28.4998ZM2.49996 26.4998H6.49989V18.5H2.49996V26.4998Z" fill="#F7A042"/>
<path d="M18.4999 28.4997H12.5C11.947 28.4997 11.5 28.0517 11.5 27.4997V13.5C11.5 12.948 11.947 12.5 12.5 12.5H18.4999C19.0529 12.5 19.4999 12.948 19.4999 13.5V27.4997C19.4999 28.0517 19.0529 28.4997 18.4999 28.4997ZM13.5 26.4997H17.4999V14.5H13.5V26.4997Z" fill="#F7A042"/>
<path d="M29.4999 28.5006H23.5C22.947 28.5006 22.5 28.0526 22.5 27.5006V9.50096C22.5 8.94897 22.947 8.50098 23.5 8.50098H29.4999C30.0529 8.50098 30.4999 8.94897 30.4999 9.50096V27.5006C30.4999 28.0526 30.0529 28.5006 29.4999 28.5006ZM24.5 26.5006H28.4999V10.5009H24.5V26.5006Z" fill="#F7A042"/>
<path d="M1.50053 14.5004C1.10254 14.5004 0.724544 14.2594 0.569547 13.8654C0.36755 13.3515 0.620546 12.7705 1.13454 12.5695L29.134 1.56967C29.643 1.36768 30.229 1.61967 30.43 2.13466C30.632 2.64865 30.379 3.22964 29.865 3.43064L1.86552 14.4304C1.74652 14.4784 1.62253 14.5004 1.50053 14.5004Z" fill="#F7A042"/>
</g>
<defs>
<clipPath id="clip0_7162_560">
<rect width="30" height="30" fill="white" transform="translate(0.5)"/>
</clipPath>
</defs>
</svg>
