<svg width="20" height="20" viewBox="0 0 20 20" fill="none" xmlns="http://www.w3.org/2000/svg">
<path d="M12.2801 4.10922V4.07922C12.2801 2.69922 9.39008 1.94922 6.68008 1.94922C3.97008 1.94922 1.08008 2.69922 1.08008 4.07922V13.6792C1.08008 14.5992 2.59008 15.6292 5.88008 15.7892V15.8192C5.88008 17.1992 8.76008 17.9492 11.4801 17.9492C12.1101 17.9492 12.7601 17.9092 13.3701 17.8192C13.2601 17.6692 13.1601 17.5092 13.0801 17.3392C12.5901 17.3892 12.0501 17.4192 11.4801 17.4192C8.49008 17.4192 6.41008 16.5692 6.41008 15.8192V13.5692C7.37008 14.3392 9.47008 14.7492 11.4801 14.7492C11.9601 14.7492 12.4501 14.7292 12.9301 14.6792C12.9901 14.4892 13.0701 14.2992 13.1701 14.1192C12.6501 14.1892 12.0901 14.2192 11.4801 14.2192C8.49008 14.2192 6.41008 13.3692 6.41008 12.6192V10.3692C7.37008 11.1392 9.47008 11.5492 11.4801 11.5492C13.4901 11.5492 15.5901 11.1392 16.5401 10.3692V12.3392C16.7201 12.3492 16.9001 12.3792 17.0801 12.4292V6.21922C17.0801 4.96922 14.7301 4.23922 12.2801 4.10922ZM5.88008 15.2592C3.32008 15.1192 1.61008 14.3492 1.61008 13.6792V11.4192C2.31008 11.9992 3.70008 12.4892 5.88008 12.5992V15.2592ZM5.88008 12.0592C3.32008 11.9192 1.61008 11.1492 1.61008 10.4792V8.21922C2.45008 8.89922 4.14008 9.29922 5.88008 9.38922V12.0592ZM5.88008 8.85922C3.31008 8.71922 1.61008 7.94922 1.61008 7.27922V5.01922C2.44008 5.69922 4.14008 6.09922 5.88008 6.18922V8.85922ZM6.04008 5.66922C3.39008 5.55922 1.61008 4.76922 1.61008 4.07922C1.61008 3.32922 3.69008 2.47922 6.68008 2.47922C9.67008 2.47922 11.7401 3.32922 11.7401 4.07922H11.4801C9.15008 4.07922 6.69008 4.63922 6.04008 5.66922ZM16.5401 9.41922C16.5401 10.1692 14.4601 11.0192 11.4801 11.0192C8.50008 11.0192 6.41008 10.1692 6.41008 9.41922V7.16922C7.37008 7.93922 9.47008 8.34922 11.4801 8.34922C13.4901 8.34922 15.5901 7.93922 16.5401 7.16922V9.41922ZM11.4801 7.81922C8.49008 7.81922 6.41008 6.96922 6.41008 6.21922C6.41008 5.46922 8.49008 4.61922 11.4801 4.61922C14.4701 4.61922 16.5401 5.45922 16.5401 6.21922C16.5401 6.97922 14.4601 7.81922 11.4801 7.81922Z" fill="#91918A" stroke="#91918A" stroke-width="0.5"/>
<path d="M3.34015 7.83881C3.45015 7.86881 3.56015 7.90881 3.68015 7.93881C3.70015 7.93881 3.72015 7.93881 3.75015 7.93881C3.83015 7.93881 3.91015 7.89881 3.97015 7.81881C4.03015 7.74881 4.07015 7.63881 4.08015 7.52881C4.08015 7.41881 4.07015 7.30881 4.02015 7.21881C3.97015 7.12881 3.90015 7.06881 3.82015 7.04881C3.71015 7.01881 3.60015 6.98881 3.50015 6.95881C3.46015 6.94881 3.41015 6.93881 3.37015 6.95881C3.33015 6.95881 3.28015 6.98881 3.25015 7.01881C3.21015 7.04881 3.18015 7.08881 3.15015 7.13881C3.12015 7.18881 3.11015 7.23881 3.10015 7.29881C3.10015 7.35881 3.09015 7.41881 3.10015 7.47881C3.10015 7.53881 3.12015 7.59881 3.15015 7.64881C3.17015 7.69881 3.20015 7.73881 3.24015 7.77881C3.28015 7.80881 3.32015 7.83881 3.36015 7.84881L3.34015 7.83881Z" fill="#91918A"/>
<path d="M8.81038 9.05858C8.70038 9.02858 8.59038 8.99858 8.49038 8.96858C8.45038 8.95858 8.40038 8.94858 8.36038 8.96858C8.32038 8.96858 8.28038 8.99858 8.24038 9.02858C8.20038 9.05858 8.17038 9.09858 8.14038 9.14858C8.11038 9.19858 8.10038 9.24858 8.09038 9.30858C8.09038 9.36858 8.08038 9.42858 8.09038 9.48858C8.09038 9.54858 8.11038 9.60858 8.14038 9.65858C8.16038 9.70858 8.19038 9.74858 8.23038 9.78858C8.27038 9.81858 8.31038 9.84858 8.35038 9.85858C8.46038 9.88858 8.57038 9.92858 8.69038 9.95858C8.71038 9.95858 8.73038 9.95858 8.76038 9.95858C8.84038 9.95858 8.92038 9.91858 8.98038 9.83858C9.04038 9.76858 9.08038 9.65858 9.09038 9.54858C9.09038 9.43858 9.08038 9.32858 9.03038 9.23858C8.98038 9.14858 8.91038 9.08858 8.83038 9.06858L8.81038 9.05858Z" fill="#91918A"/>
<path d="M16.54 13.5684V13.5984C16.54 13.5984 16.51 13.5984 16.5 13.5984C16.52 13.5884 16.53 13.5784 16.54 13.5684Z" fill="white"/>
<path d="M15.1287 15.5789L15.8293 16.2795L15.9 16.3502L15.9707 16.2795L16.3607 15.8895L16.4312 15.819L16.361 15.7483L14.991 14.3683L14.9203 14.2971L14.8493 14.3681L13.4693 15.7481L13.3986 15.8188L13.4693 15.8895L13.8593 16.2795L13.93 16.3502L14.0008 16.2795L14.3666 15.9136C14.3752 16.1587 14.4202 16.3987 14.5062 16.6332L14.506 16.6333L14.5081 16.6382C14.5681 16.7782 14.6308 16.9147 14.7254 17.0521C14.8096 17.1988 14.9144 17.3346 15.0393 17.4595C15.0404 17.4606 15.0416 17.4617 15.0428 17.463C15.0572 17.4774 15.0813 17.5018 15.1098 17.5195C15.5558 17.9412 16.0579 18.1488 16.69 18.1488C17.3274 18.1488 17.8726 17.9177 18.3307 17.4595C18.7889 17.0013 19.02 16.4561 19.02 15.8188C19.02 15.1819 18.7893 14.6266 18.3307 14.1681C17.9889 13.8263 17.5826 13.6059 17.1032 13.5312C17.0703 13.5208 17.0254 13.5099 16.9772 13.5089C16.8337 13.49 16.6922 13.4792 16.5484 13.4968C16.5452 13.4962 16.542 13.4957 16.5387 13.4953C16.5221 13.4933 16.5078 13.4948 16.4967 13.497C16.4926 13.4978 16.489 13.4987 16.4863 13.4995C16.1419 13.5216 15.819 13.6268 15.5086 13.813L15.3988 13.8789L15.4893 13.9695L15.6393 14.1195L15.8993 14.3795L15.9492 14.4293L16.0128 14.3992C16.1923 14.3142 16.3696 14.2679 16.5453 14.2587L16.5453 14.2591L16.5542 14.2578C16.6837 14.2393 16.8116 14.2393 16.9483 14.2664C16.961 14.2695 16.9729 14.2717 16.9827 14.2734C16.9861 14.274 16.9892 14.2745 16.9919 14.275C16.9986 14.2761 17.0037 14.277 17.0092 14.2781C17.0205 14.2804 17.0244 14.282 17.025 14.2823L17.0413 14.2932L17.061 14.297C17.349 14.3527 17.5909 14.4916 17.7978 14.7079L17.7977 14.708L17.8004 14.7106C18.11 15.0107 18.26 15.3844 18.26 15.8188C18.26 16.2523 18.1106 16.6169 17.7993 16.9281C17.4881 17.2393 17.1235 17.3888 16.69 17.3888C16.3691 17.3888 16.0699 17.3043 15.8185 17.1376C15.7327 17.0707 15.6568 17.0041 15.5807 16.9281C15.5249 16.8723 15.478 16.8162 15.4282 16.7564C15.3076 16.5982 15.2232 16.4205 15.1663 16.2218C15.1072 16.0072 15.0947 15.7932 15.1287 15.5789ZM16.4795 13.5014C16.479 13.5016 16.4793 13.5015 16.4802 13.5012L16.4795 13.5014Z" fill="#91918A" stroke="#91918A" stroke-width="0.2"/>
</svg>
