<svg width="20" height="20" viewBox="0 0 20 20" fill="none" xmlns="http://www.w3.org/2000/svg">
<path d="M12.2801 4.1102V4.0802C12.2801 2.7002 9.39008 1.9502 6.68008 1.9502C3.97008 1.9502 1.08008 2.7002 1.08008 4.0802V13.6802C1.08008 14.6002 2.59008 15.6302 5.88008 15.7902V15.8202C5.88008 17.2002 8.76008 17.9502 11.4801 17.9502C12.1101 17.9502 12.7601 17.9102 13.3701 17.8202C13.2601 17.6702 13.1601 17.5102 13.0801 17.3402C12.5901 17.3902 12.0501 17.4202 11.4801 17.4202C8.49008 17.4202 6.41008 16.5702 6.41008 15.8202V13.5702C7.37008 14.3402 9.47008 14.7502 11.4801 14.7502C11.9601 14.7502 12.4501 14.7302 12.9301 14.6802C12.9901 14.4902 13.0701 14.3002 13.1701 14.1202C12.6501 14.1902 12.0901 14.2202 11.4801 14.2202C8.49008 14.2202 6.41008 13.3702 6.41008 12.6202V10.3702C7.37008 11.1402 9.47008 11.5502 11.4801 11.5502C13.4901 11.5502 15.5901 11.1402 16.5401 10.3702V12.3402C16.7201 12.3502 16.9001 12.3802 17.0801 12.4302V6.2202C17.0801 4.9702 14.7301 4.2402 12.2801 4.1102ZM5.88008 15.2602C3.32008 15.1202 1.61008 14.3502 1.61008 13.6802V11.4202C2.31008 12.0002 3.70008 12.4902 5.88008 12.6002V15.2602ZM5.88008 12.0602C3.32008 11.9202 1.61008 11.1502 1.61008 10.4802V8.2202C2.45008 8.9002 4.14008 9.3002 5.88008 9.3902V12.0602ZM5.88008 8.8602C3.31008 8.7202 1.61008 7.9502 1.61008 7.2802V5.0202C2.44008 5.7002 4.14008 6.10019 5.88008 6.1902V8.8602ZM6.04008 5.6702C3.39008 5.5602 1.61008 4.7702 1.61008 4.0802C1.61008 3.3302 3.69008 2.4802 6.68008 2.4802C9.67008 2.4802 11.7401 3.3302 11.7401 4.0802H11.4801C9.15008 4.0802 6.69008 4.6402 6.04008 5.6702ZM16.5401 9.4202C16.5401 10.1702 14.4601 11.0202 11.4801 11.0202C8.50008 11.0202 6.41008 10.1702 6.41008 9.4202V7.1702C7.37008 7.9402 9.47008 8.3502 11.4801 8.3502C13.4901 8.3502 15.5901 7.9402 16.5401 7.1702V9.4202ZM11.4801 7.8202C8.49008 7.8202 6.41008 6.9702 6.41008 6.2202C6.41008 5.4702 8.49008 4.6202 11.4801 4.6202C14.4701 4.6202 16.5401 5.4602 16.5401 6.2202C16.5401 6.9802 14.4601 7.8202 11.4801 7.8202Z" fill="#4D6A00" stroke="#4D6A00" stroke-width="0.5"/>
<path d="M3.34015 7.83979C3.45015 7.86979 3.56015 7.90979 3.68015 7.93979C3.70015 7.93979 3.72015 7.93979 3.75015 7.93979C3.83015 7.93979 3.91015 7.89979 3.97015 7.81979C4.03015 7.74979 4.07015 7.63979 4.08015 7.52979C4.08015 7.41979 4.07015 7.30979 4.02015 7.21979C3.97015 7.12979 3.90015 7.06979 3.82015 7.04979C3.71015 7.01979 3.60015 6.98979 3.50015 6.95979C3.46015 6.94979 3.41015 6.93979 3.37015 6.95979C3.33015 6.95979 3.28015 6.98979 3.25015 7.01979C3.21015 7.04979 3.18015 7.08979 3.15015 7.13979C3.12015 7.18979 3.11015 7.23979 3.10015 7.29979C3.10015 7.35979 3.09015 7.41979 3.10015 7.47979C3.10015 7.53979 3.12015 7.59979 3.15015 7.64979C3.17015 7.69979 3.20015 7.73979 3.24015 7.77979C3.28015 7.80979 3.32015 7.83979 3.36015 7.84979L3.34015 7.83979Z" fill="#4D6A00"/>
<path d="M8.81038 9.06053C8.70038 9.03053 8.59038 9.00053 8.49038 8.97053C8.45038 8.96053 8.40038 8.95053 8.36038 8.97053C8.32038 8.97053 8.28038 9.00053 8.24038 9.03053C8.20038 9.06053 8.17038 9.10053 8.14038 9.15053C8.11038 9.20053 8.10038 9.25053 8.09038 9.31053C8.09038 9.37053 8.08038 9.43053 8.09038 9.49053C8.09038 9.55053 8.11038 9.61053 8.14038 9.66053C8.16038 9.71053 8.19038 9.75053 8.23038 9.79053C8.27038 9.82053 8.31038 9.85053 8.35038 9.86053C8.46038 9.89053 8.57038 9.93053 8.69038 9.96053C8.71038 9.96053 8.73038 9.96053 8.76038 9.96053C8.84038 9.96053 8.92038 9.92053 8.98038 9.84053C9.04038 9.77053 9.08038 9.66053 9.09038 9.55053C9.09038 9.44053 9.08038 9.33053 9.03038 9.24053C8.98038 9.15053 8.91038 9.09053 8.83038 9.07053L8.81038 9.06053Z" fill="#4D6A00"/>
<path d="M16.54 13.5703V13.6003C16.54 13.6003 16.51 13.6003 16.5 13.6003C16.52 13.5903 16.53 13.5803 16.54 13.5703Z" fill="white"/>
<path d="M15.1287 15.5799L15.8293 16.2805L15.9 16.3512L15.9707 16.2805L16.3607 15.8905L16.4312 15.82L16.361 15.7493L14.991 14.3693L14.9203 14.2981L14.8493 14.3691L13.4693 15.7491L13.3986 15.8198L13.4693 15.8905L13.8593 16.2805L13.93 16.3512L14.0008 16.2805L14.3666 15.9146C14.3752 16.1597 14.4202 16.3997 14.5062 16.6342L14.506 16.6342L14.5081 16.6392C14.5681 16.7792 14.6308 16.9157 14.7254 17.0531C14.8096 17.1998 14.9144 17.3356 15.0393 17.4605C15.0404 17.4616 15.0416 17.4627 15.0428 17.464C15.0572 17.4784 15.0813 17.5027 15.1098 17.5205C15.5558 17.9422 16.0579 18.1498 16.69 18.1498C17.3274 18.1498 17.8726 17.9186 18.3307 17.4605C18.7889 17.0023 19.02 16.4571 19.02 15.8198C19.02 15.1829 18.7893 14.6276 18.3307 14.1691C17.9889 13.8272 17.5826 13.6069 17.1032 13.5322C17.0703 13.5217 17.0254 13.5108 16.9772 13.5098C16.8337 13.4909 16.6922 13.4802 16.5484 13.4978C16.5452 13.4972 16.542 13.4967 16.5387 13.4963C16.5221 13.4943 16.5078 13.4957 16.4967 13.498C16.4926 13.4988 16.489 13.4997 16.4863 13.5004C16.1419 13.5226 15.819 13.6278 15.5086 13.814L15.3988 13.8799L15.4893 13.9705L15.6393 14.1205L15.8993 14.3805L15.9492 14.4303L16.0128 14.4001C16.1923 14.3151 16.3696 14.2689 16.5453 14.2596L16.5453 14.26L16.5542 14.2588C16.6837 14.2403 16.8116 14.2403 16.9483 14.2674C16.961 14.2705 16.9729 14.2727 16.9827 14.2744C16.9861 14.275 16.9892 14.2755 16.9919 14.276C16.9986 14.2771 17.0037 14.278 17.0092 14.2791C17.0205 14.2813 17.0244 14.283 17.025 14.2832L17.0413 14.2941L17.061 14.2979C17.349 14.3537 17.5909 14.4926 17.7978 14.7089L17.7977 14.7089L17.8004 14.7116C18.11 15.0117 18.26 15.3853 18.26 15.8198C18.26 16.2533 18.1106 16.6178 17.7993 16.9291C17.4881 17.2403 17.1235 17.3898 16.69 17.3898C16.3691 17.3898 16.0699 17.3053 15.8185 17.1386C15.7327 17.0717 15.6568 17.0051 15.5807 16.9291C15.5249 16.8732 15.478 16.8171 15.4282 16.7574C15.3076 16.5992 15.2232 16.4215 15.1663 16.2227C15.1072 16.0082 15.0947 15.7942 15.1287 15.5799ZM16.4795 13.5024C16.479 13.5026 16.4793 13.5025 16.4802 13.5022L16.4795 13.5024Z" fill="#4D6A00" stroke="#496B14" stroke-width="0.2"/>
</svg>
