<?xml version="1.0" standalone="no"?>
<!DOCTYPE svg PUBLIC "-//W3C//DTD SVG 20010904//EN"
 "http://www.w3.org/TR/2001/REC-SVG-20010904/DTD/svg10.dtd">
<svg version="1.0" xmlns="http://www.w3.org/2000/svg"
 width="256.000000pt" height="256.000000pt" viewBox="0 0 256.000000 256.000000"
 preserveAspectRatio="xMidYMid meet">

<g transform="translate(0.000000,256.000000) scale(0.100000,-0.100000)"
fill="#000000" stroke="none">
<path d="M655 2260 c-244 -32 -432 -206 -501 -465 -17 -64 -19 -112 -19 -520
0 -399 2 -458 18 -520 55 -216 202 -379 404 -447 67 -22 75 -23 644 -26 641
-3 662 -2 794 61 141 68 246 181 307 332 l33 80 0 520 0 520 -27 67 c-90 225
-270 368 -501 398 -86 11 -1066 11 -1152 0z m1149 -160 c142 -23 269 -118 334
-249 l37 -75 0 -500 0 -501 -32 -68 c-63 -132 -189 -233 -325 -257 -36 -7
-260 -10 -620 -8 -557 3 -564 3 -618 25 -123 51 -219 159 -262 296 -22 70 -23
83 -23 512 0 428 1 442 22 511 52 164 169 276 323 310 68 15 1075 19 1164 4z"/>
<path d="M580 1650 c-23 -23 -27 -77 -7 -103 6 -9 122 -104 257 -212 282 -225
309 -240 430 -233 50 3 89 12 116 26 41 21 508 391 531 421 35 45 -5 121 -63
121 -29 0 -66 -26 -263 -185 -126 -101 -244 -193 -263 -205 -39 -23 -107 -26
-146 -6 -15 8 -134 100 -266 205 -204 163 -243 191 -272 191 -21 0 -42 -8 -54
-20z"/>
</g>
</svg>
