<svg width="27" height="28" viewBox="0 0 27 28" fill="none" xmlns="http://www.w3.org/2000/svg">
<path d="M21.942 9.30422V0.260742H0.724609V27.739H21.942V23.9129H19.855V25.652H2.81157V2.3477H5.942V6.86944H16.7246V2.3477H19.855V9.30422H21.942ZM14.6377 4.78248H8.02896V2.3477H14.6377V4.78248Z" fill="#FFAD33"/>
<path d="M21.2259 19.1655C21.4902 18.8107 21.7094 18.4316 21.8902 18.0246C22.2276 17.2733 22.412 16.4385 22.412 15.5655C22.412 14.6924 22.2276 13.8576 21.8902 13.1063C21.4381 12.0837 20.7111 11.2072 19.8033 10.5742C18.8155 9.88199 17.6155 9.47852 16.325 9.47852C15.8276 9.47852 15.3442 9.53765 14.8815 9.65243H4.67285V11.7394H11.5946C11.1007 12.3481 10.7215 13.0576 10.492 13.8263H4.67285V15.9133H10.2485C10.2902 16.6507 10.4642 17.3568 10.7494 18.0003H4.67285V20.0872H12.2555C13.3337 21.0611 14.7633 21.6524 16.325 21.6524C17.5807 21.6524 18.7529 21.2698 19.7233 20.6124L24.805 25.6942L26.2798 24.2194L21.2259 19.1655ZM19.8033 17.5376C19.1146 18.7481 17.8137 19.5655 16.325 19.5655C14.1198 19.5655 12.325 17.7707 12.325 15.5655C12.325 13.7637 13.5215 12.2368 15.1633 11.7394C15.5285 11.6246 15.9215 11.5655 16.325 11.5655C16.7285 11.5655 17.1181 11.6246 17.4868 11.7394C18.4746 12.0385 19.3024 12.7133 19.8033 13.5933C20.1372 14.1776 20.325 14.8489 20.325 15.5655C20.325 16.282 20.1372 16.9533 19.8033 17.5376Z" fill="#FFAD33"/>
<path d="M13.8901 16.6083C14.3703 16.6083 14.7596 16.219 14.7596 15.7387C14.7596 15.2585 14.3703 14.8691 13.8901 14.8691C13.4098 14.8691 13.0205 15.2585 13.0205 15.7387C13.0205 16.219 13.4098 16.6083 13.8901 16.6083Z" fill="#FFAD33"/>
<path d="M16.3246 16.6083C16.8049 16.6083 17.1942 16.219 17.1942 15.7387C17.1942 15.2585 16.8049 14.8691 16.3246 14.8691C15.8444 14.8691 15.4551 15.2585 15.4551 15.7387C15.4551 16.219 15.8444 16.6083 16.3246 16.6083Z" fill="#FFAD33"/>
<path d="M18.7592 16.6083C19.2395 16.6083 19.6288 16.219 19.6288 15.7387C19.6288 15.2585 19.2395 14.8691 18.7592 14.8691C18.279 14.8691 17.8896 15.2585 17.8896 15.7387C17.8896 16.219 18.279 16.6083 18.7592 16.6083Z" fill="#FFAD33"/>
</svg>
