<?xml version="1.0" standalone="no"?>
<!DOCTYPE svg PUBLIC "-//W3C//DTD SVG 20010904//EN"
 "http://www.w3.org/TR/2001/REC-SVG-20010904/DTD/svg10.dtd">
<svg version="1.0" xmlns="http://www.w3.org/2000/svg"
 width="256.000000pt" height="256.000000pt" viewBox="0 0 256.000000 256.000000"
 preserveAspectRatio="xMidYMid meet">

<g transform="translate(0.000000,256.000000) scale(0.100000,-0.100000)"
fill="#000000" stroke="none">
<path d="M1190 2420 c-213 -23 -430 -140 -556 -298 -58 -74 -111 -183 -129
-269 -8 -37 -15 -116 -15 -174 0 -122 -19 -190 -72 -265 -18 -26 -43 -60 -55
-78 -67 -96 -88 -280 -44 -401 55 -153 186 -267 357 -309 214 -53 994 -53
1208 0 119 29 244 111 301 197 56 85 77 158 78 267 0 107 -22 181 -77 259
-102 144 -107 159 -116 346 -6 124 -11 163 -33 223 -116 329 -477 543 -847
502z m261 -175 c106 -28 205 -83 289 -162 124 -116 170 -224 170 -397 0 -170
33 -275 122 -394 58 -78 72 -116 72 -202 0 -95 -28 -163 -91 -221 -93 -86
-159 -101 -510 -121 -227 -12 -571 -2 -738 22 -193 29 -309 149 -309 320 0 86
14 124 73 202 22 29 54 84 72 122 29 62 33 82 41 210 11 180 22 230 64 315 26
51 55 89 113 143 171 161 406 221 632 163z"/>
<path d="M989 406 c-32 -16 -53 -57 -46 -87 17 -68 158 -160 273 -179 119 -19
259 27 347 114 54 54 62 96 27 134 -36 39 -82 32 -138 -20 -106 -98 -242 -100
-348 -5 -56 50 -82 60 -115 43z"/>
</g>
</svg>
