<?xml version="1.0" standalone="no"?>
<!DOCTYPE svg PUBLIC "-//W3C//DTD SVG 20010904//EN"
 "http://www.w3.org/TR/2001/REC-SVG-20010904/DTD/svg10.dtd">
<svg version="1.0" xmlns="http://www.w3.org/2000/svg"
 width="512.000000pt" height="512.000000pt" viewBox="0 0 512.000000 512.000000"
 preserveAspectRatio="xMidYMid meet">

<g transform="translate(0.000000,512.000000) scale(0.100000,-0.100000)"
fill="rgb(255 255 255)" stroke="none">
<path d="M1997 4629 c-32 -5 -106 -24 -165 -44 -596 -200 -1125 -752 -1341
-1402 -222 -665 -95 -1400 337 -1960 412 -531 1027 -833 1702 -833 595 0 1144
232 1550 656 107 111 154 171 243 304 186 281 337 715 325 931 -8 140 -87 253
-223 320 l-70 34 -400 0 c-220 0 -551 -2 -735 -5 -355 -5 -409 -1 -495 42 -55
28 -122 94 -150 149 -49 95 -84 294 -100 576 -4 62 -10 300 -14 530 l-6 418
-27 57 c-76 163 -245 252 -431 227z m149 -270 c60 -37 61 -43 68 -509 9 -696
39 -939 138 -1140 56 -116 142 -201 258 -259 160 -78 218 -82 1140 -68 542 9
545 9 578 -12 42 -27 72 -77 72 -121 0 -19 -11 -83 -24 -141 -122 -537 -457
-979 -944 -1246 -441 -241 -1007 -291 -1492 -131 -279 92 -502 226 -718 433
-233 223 -393 475 -491 770 -132 398 -130 792 6 1195 36 108 151 340 220 445
260 393 652 696 1027 795 77 21 114 18 162 -11z"/>
<path d="M3905 4578 c-21 -13 -53 -43 -70 -66 l-30 -44 -3 -198 -3 -199 -218
-3 -218 -3 -41 -28 c-54 -35 -86 -96 -85 -162 0 -57 18 -97 60 -137 55 -52 85
-58 302 -58 l200 0 3 -192 c3 -173 5 -197 24 -233 32 -62 91 -98 169 -103 86
-6 145 22 186 86 l29 46 0 197 0 198 218 3 c196 3 220 5 251 23 106 63 135
204 59 291 -58 66 -70 68 -308 74 l-215 5 -5 200 c-6 227 -11 245 -82 292 -59
39 -165 44 -223 11z"/>
</g>
</svg>
