<svg width="25" height="24" viewBox="0 0 25 24" fill="none" xmlns="http://www.w3.org/2000/svg">
<path d="M5.33398 22C4.78398 22 4.31315 21.8042 3.92148 21.4125C3.52982 21.0208 3.33398 20.55 3.33398 20V8.725C3.03398 8.54167 2.79232 8.30417 2.60898 8.0125C2.42565 7.72083 2.33398 7.38333 2.33398 7V4C2.33398 3.45 2.52982 2.97917 2.92148 2.5875C3.31315 2.19583 3.78398 2 4.33398 2H20.334C20.884 2 21.3548 2.19583 21.7465 2.5875C22.1382 2.97917 22.334 3.45 22.334 4V7C22.334 7.38333 22.2423 7.72083 22.059 8.0125C21.8757 8.30417 21.634 8.54167 21.334 8.725V20C21.334 20.55 21.1382 21.0208 20.7465 21.4125C20.3548 21.8042 19.884 22 19.334 22H5.33398ZM5.33398 9V20H19.334V9H5.33398ZM4.33398 7H20.334V4H4.33398V7ZM9.33398 14H15.334V12H9.33398V14Z" fill="#EF9835"/>
</svg>
