<svg width="41" height="40" viewBox="0 0 41 40" fill="none" xmlns="http://www.w3.org/2000/svg">
<g clip-path="url(#clip0_6497_21933)">
<path d="M31.108 15.3042V6.26074H9.89062V33.739H31.108V29.9129H29.0211V31.652H11.9776V8.3477H15.108V12.8694H25.8906V8.3477H29.0211V15.3042H31.108ZM23.8037 10.7825H17.195V8.3477H23.8037V10.7825Z" fill="#FFAD33"/>
<path d="M30.389 25.1655C30.6533 24.8107 30.8725 24.4316 31.0533 24.0246C31.3907 23.2733 31.5751 22.4385 31.5751 21.5655C31.5751 20.6924 31.3907 19.8576 31.0533 19.1063C30.6012 18.0837 29.8742 17.2072 28.9664 16.5742C27.9785 15.882 26.7785 15.4785 25.4881 15.4785C24.9907 15.4785 24.5072 15.5376 24.0446 15.6524H13.8359V17.7394H20.7577C20.2638 18.3481 19.8846 19.0576 19.6551 19.8263H13.8359V21.9133H19.4116C19.4533 22.6507 19.6272 23.3568 19.9125 24.0003H13.8359V26.0872H21.4185C22.4968 27.0611 23.9264 27.6524 25.4881 27.6524C26.7438 27.6524 27.9159 27.2698 28.8864 26.6124L33.9681 31.6942L35.4429 30.2194L30.389 25.1655ZM28.9664 23.5376C28.2777 24.7481 26.9768 25.5655 25.4881 25.5655C23.2829 25.5655 21.4881 23.7707 21.4881 21.5655C21.4881 19.7637 22.6846 18.2368 24.3264 17.7394C24.6916 17.6246 25.0846 17.5655 25.4881 17.5655C25.8916 17.5655 26.2812 17.6246 26.6499 17.7394C27.6377 18.0385 28.4655 18.7133 28.9664 19.5933C29.3003 20.1776 29.4881 20.8489 29.4881 21.5655C29.4881 22.282 29.3003 22.9533 28.9664 23.5376Z" fill="#FFAD33"/>
<path d="M23.0571 22.6083C23.5373 22.6083 23.9266 22.219 23.9266 21.7387C23.9266 21.2585 23.5373 20.8691 23.0571 20.8691C22.5768 20.8691 22.1875 21.2585 22.1875 21.7387C22.1875 22.219 22.5768 22.6083 23.0571 22.6083Z" fill="#FFAD33"/>
<path d="M25.4868 22.6083C25.967 22.6083 26.3563 22.219 26.3563 21.7387C26.3563 21.2585 25.967 20.8691 25.4868 20.8691C25.0065 20.8691 24.6172 21.2585 24.6172 21.7387C24.6172 22.219 25.0065 22.6083 25.4868 22.6083Z" fill="#FFAD33"/>
<path d="M27.9243 22.6083C28.4045 22.6083 28.7938 22.219 28.7938 21.7387C28.7938 21.2585 28.4045 20.8691 27.9243 20.8691C27.444 20.8691 27.0547 21.2585 27.0547 21.7387C27.0547 22.219 27.444 22.6083 27.9243 22.6083Z" fill="#FFAD33"/>
</g>
<defs>
<clipPath id="clip0_6497_21933">
<rect width="40" height="40" fill="white" transform="translate(0.5)"/>
</clipPath>
</defs>
</svg>
