<svg width="51" height="50" viewBox="0 0 51 50" fill="none" xmlns="http://www.w3.org/2000/svg">
<path d="M13.7182 24.3955C13.7182 24.3955 13.6965 24.3955 13.6834 24.3955C13.3487 24.3955 13.0791 24.6651 13.0791 24.9999C13.0791 25.3346 13.3487 25.6042 13.6834 25.6042C13.7008 25.6042 13.7139 25.6042 13.7313 25.6042C14.0443 25.5825 14.2878 25.3216 14.2878 25.0042C14.2878 24.6868 14.0356 24.4216 13.7182 24.3999" fill="#4D6A00"/>
<path d="M13.6831 25.8212C13.2309 25.8212 12.8613 25.4516 12.8613 24.9995C12.8613 24.5473 13.2309 24.1777 13.6831 24.1777H13.7309C14.1657 24.2038 14.5048 24.5647 14.5048 24.9995C14.5048 25.4343 14.17 25.7864 13.7483 25.8169C13.7309 25.8169 13.7092 25.8169 13.6874 25.8169L13.6831 25.8212ZM13.6961 24.6125C13.47 24.6125 13.2961 24.7864 13.2961 24.9995C13.2961 25.2125 13.47 25.3864 13.6831 25.3864C13.9135 25.369 14.07 25.1995 14.07 24.9995C14.07 24.7995 13.9135 24.6299 13.7092 24.6125H13.6961Z" fill="#4D6A00"/>
<path d="M25.5002 40.4345C17.135 40.4345 10.0654 33.3649 10.0654 24.9997C10.0654 20.9997 11.9524 16.7692 15.022 13.804L14.222 13.004C14.048 12.8301 13.9959 12.5736 14.0915 12.3475C14.1828 12.1214 14.4046 11.9736 14.648 11.9736H19.4698C19.8046 11.9736 20.0741 12.2432 20.0741 12.5779V17.3997C20.0741 17.6432 19.9263 17.8649 19.7002 17.9562C19.4741 18.0475 19.2133 17.9953 19.0437 17.8258L18.0089 16.791C16.3046 18.4127 14.9611 20.6866 14.5263 22.7258C14.4567 23.0519 14.135 23.2562 13.8089 23.191C13.4828 23.1214 13.2741 22.7997 13.3437 22.4736C13.8654 20.0301 15.548 17.2953 17.635 15.4997C17.8741 15.2953 18.2306 15.3084 18.4524 15.5301L18.8654 15.9432V13.1779H16.1002L16.3133 13.391C16.4306 13.5084 16.4959 13.6692 16.4915 13.8345C16.4872 13.9997 16.4133 14.1562 16.2915 14.2692C13.1959 17.0214 11.2741 21.1345 11.2741 24.9953C11.2741 32.7084 17.7915 39.2258 25.5046 39.2258C33.2176 39.2258 39.735 32.7084 39.735 24.9953C39.735 17.2823 33.5567 11.1084 26.1089 10.7779V12.591C32.4698 12.9301 37.9263 18.5823 37.9263 24.9953C37.9263 28.191 36.5524 31.3866 34.1567 33.7562C31.7306 36.1519 28.6089 37.4388 25.3437 37.4171C19.6915 37.3214 14.5393 33.0692 13.3524 27.5214C13.2828 27.1953 13.4915 26.8736 13.8176 26.804C14.1437 26.7345 14.4654 26.9432 14.535 27.2692C15.5872 32.1997 20.3437 36.1258 25.3611 36.2084C28.2872 36.2388 31.1133 35.0649 33.3089 32.8953C35.4785 30.7519 36.722 27.8692 36.722 24.9953C36.722 19.0214 31.4828 13.7823 25.5089 13.7823C25.1741 13.7823 24.9046 13.5127 24.9046 13.1779V10.1649C24.9046 9.83011 25.1741 9.56055 25.5089 9.56055C33.8741 9.56055 40.9437 16.6301 40.9437 24.9953C40.9437 33.3605 33.8741 40.4301 25.5089 40.4301L25.5002 40.4345Z" fill="#4D6A00"/>
<path d="M31.4829 21.2388L28.2959 20.0431L25.5742 19.0257C25.5264 19.0083 25.4786 19.0083 25.4307 19.0257L19.522 21.2649C19.522 21.2649 19.4916 21.2779 19.4786 21.2866C19.4786 21.2866 19.4786 21.2866 19.4742 21.291C19.4699 21.291 19.4655 21.2997 19.4612 21.304C19.4525 21.3127 19.4438 21.3214 19.4351 21.3301C19.4351 21.3344 19.4264 21.3388 19.422 21.3475C19.4133 21.3605 19.409 21.3692 19.4046 21.3823C19.4046 21.3866 19.4003 21.391 19.4003 21.3997C19.3959 21.417 19.3916 21.4344 19.3916 21.4562V28.5779C19.3916 28.6649 19.4438 28.7388 19.522 28.7692L25.4307 30.9823C25.4307 30.9823 25.4351 30.9823 25.4394 30.9823C25.4568 30.9866 25.4699 30.991 25.4873 30.991C25.4916 30.991 25.4959 30.991 25.5003 30.991C25.5046 30.991 25.509 30.991 25.5133 30.991C25.5307 30.991 25.5481 30.991 25.5612 30.9823C25.5612 30.9823 25.5655 30.9823 25.5699 30.9823L31.4786 28.7692C31.5568 28.7388 31.609 28.6649 31.609 28.5779V21.4562C31.609 21.4562 31.609 21.4475 31.609 21.4431V21.4344C31.609 21.3475 31.5568 21.2736 31.4786 21.2431L31.4829 21.2388ZM25.5003 23.4475L23.1046 22.5475L28.222 20.4475L30.8351 21.4257L25.5046 23.4431L25.5003 23.4475ZM25.5003 19.4301L27.6568 20.2388L22.5394 22.3388L21.1655 21.8257L20.1655 21.4518L25.4959 19.4344L25.5003 19.4301ZM25.2959 30.491L19.7916 28.4301V21.7431L22.3394 22.6997V24.3388C22.3394 24.4518 22.4307 24.5431 22.5438 24.5431C22.6568 24.5431 22.7481 24.4518 22.7481 24.3388V22.8518L25.2916 23.804V30.491H25.2959ZM31.2046 28.4301L25.7046 30.491V23.804L31.2046 21.7431V28.4301Z" fill="#4D6A00"/>
<path d="M25.5351 31.2041H25.4395C25.4395 31.2041 25.4264 31.2041 25.4004 31.1954L25.3699 31.1867L19.4438 28.9649C19.2786 28.9041 19.1699 28.7475 19.1699 28.5693V21.4475C19.1699 21.4084 19.1743 21.3736 19.1873 21.3301C19.2091 21.2693 19.2221 21.2475 19.2351 21.2258L19.2612 21.1867C19.2612 21.1867 19.2917 21.1519 19.3091 21.1345L19.3482 21.1041C19.3743 21.0823 19.4047 21.0693 19.4395 21.0562L25.3525 18.8171C25.4482 18.7823 25.5525 18.7823 25.6482 18.8171L31.5569 21.0301C31.7221 21.091 31.8308 21.2475 31.8308 21.4215V28.5649C31.8308 28.7388 31.7221 28.8997 31.5569 28.9606L25.6047 31.1867C25.5786 31.1954 25.5525 31.1954 25.5308 31.1954L25.5351 31.2041ZM20.0091 28.278L25.0786 30.178V23.9562L22.9699 23.1649V24.3388C22.9699 24.5693 22.783 24.7606 22.5482 24.7606C22.3134 24.7606 22.1264 24.5736 22.1264 24.3388V22.8475L20.0134 22.0562V28.278H20.0091ZM25.9221 23.9562V30.178L30.9873 28.278V22.0562L25.9221 23.9562ZM23.696 22.5388L25.5004 23.2128L30.2177 21.4258L28.2221 20.678L23.696 22.5345V22.5388ZM20.783 21.4475L22.5351 22.1041L27.0612 20.2475L25.5004 19.6606L20.783 21.4475Z" fill="#4D6A00" stroke="#4D6A00" stroke-width="0.5"/>
<path d="M25.3652 31.413H25.2696C25.2696 31.413 25.2565 31.413 25.2304 31.4043L25.2 31.3957L19.2739 29.1739C19.1087 29.113 19 28.9565 19 28.7783V21.6565C19 21.6174 19.0043 21.5826 19.0174 21.5391C19.0391 21.4783 19.0522 21.4565 19.0652 21.4348L19.0913 21.3957C19.0913 21.3957 19.1217 21.3609 19.1391 21.3435L19.1783 21.313C19.2043 21.2913 19.2348 21.2783 19.2696 21.2652L25.1826 19.0261C25.2783 18.9913 25.3826 18.9913 25.4783 19.0261L31.387 21.2391C31.5522 21.3 31.6609 21.4565 31.6609 21.6304V28.7739C31.6609 28.9478 31.5522 29.1087 31.387 29.1696L25.4348 31.3957C25.4087 31.4044 25.3826 31.4043 25.3609 31.4043L25.3652 31.413ZM19.8391 28.487L24.9087 30.387V24.1652L22.8 23.3739V24.5478C22.8 24.7783 22.613 24.9696 22.3783 24.9696C22.1435 24.9696 21.9565 24.7826 21.9565 24.5478V23.0565L19.8435 22.2652V28.487H19.8391ZM25.7522 24.1652V30.387L30.8174 28.487V22.2652L25.7522 24.1652ZM23.5261 22.7478L25.3304 23.4217L30.0478 21.6348L28.0522 20.887L23.5261 22.7435V22.7478ZM20.613 21.6565L22.3652 22.313L26.8913 20.4565L25.3304 19.8696L20.613 21.6565Z" fill="#4D6A00" stroke="#4D6A00" stroke-width="0.2"/>
</svg>
