<svg width="14" height="14" viewBox="0 0 14 14" fill="none" xmlns="http://www.w3.org/2000/svg">
<mask id="mask0_1558_15303" style="mask-type:luminance" maskUnits="userSpaceOnUse" x="0" y="0" width="14" height="14">
<path fill-rule="evenodd" clip-rule="evenodd" d="M0 0H13.8118V13.8118H0V0Z" fill="white"/>
</mask>
<g mask="url(#mask0_1558_15303)">
<path fill-rule="evenodd" clip-rule="evenodd" d="M6.23684 8.37075L8.82721 12.5733C8.94054 12.7575 9.11763 12.7553 9.18917 12.7454C9.26071 12.7355 9.43284 12.6916 9.49517 12.4826L12.7344 1.54242C12.791 1.34904 12.6869 1.21729 12.6402 1.17054C12.5948 1.12379 12.4652 1.02392 12.2775 1.07704L1.3295 4.28296C1.12196 4.34387 1.07663 4.51812 1.06671 4.58967C1.05679 4.66262 1.05396 4.84325 1.23742 4.95871L5.48813 7.61708L9.24371 3.82183C9.44984 3.61358 9.78629 3.61146 9.99525 3.81758C10.2042 4.02371 10.2056 4.36087 9.9995 4.56912L6.23684 8.37075ZM9.13392 13.8122C8.64092 13.8122 8.189 13.5614 7.92267 13.1307L5.17646 8.67462L0.674294 5.859C0.189086 5.55512 -0.0644973 5.01396 0.0141277 4.44517C0.0920444 3.87637 0.482336 3.42446 1.03059 3.26367L11.9786 0.0577486C12.4822 -0.0895847 13.022 0.0499569 13.3931 0.419707C13.7643 0.792999 13.9024 1.33842 13.7523 1.84417L10.513 12.7837C10.3508 13.334 9.8975 13.7229 9.33013 13.7987C9.26354 13.8072 9.19909 13.8122 9.13392 13.8122V13.8122Z" fill="#808080"/>
</g>
</svg>
