<svg width="30" height="36" viewBox="0 0 30 36" fill="none" xmlns="http://www.w3.org/2000/svg">
<path d="M6.50586 7.91602H8.62764V9.02052H6.50586V7.91602Z" fill="white" stroke="white" stroke-width="0.5"/>
<path d="M10.0449 7.91602H23.4915V9.02052H10.0449V7.91602Z" fill="white" stroke="white" stroke-width="0.5"/>
<path d="M2.10689 2.69754C2.10689 2.09508 2.59852 1.60451 3.20228 1.60451H26.7977C27.4015 1.60451 27.8931 2.09508 27.8931 2.69754V18.5967H29V2.69754C29 1.48689 28.0139 0.5 26.7977 0.5H3.20228C1.98614 0.5 1 1.48402 1 2.69754V18H2.10689V2.69754Z" fill="white" stroke="white" stroke-width="0.5"/>
<path d="M27.8931 28.041H23.7243C22.5111 28.041 21.522 29.025 21.522 30.2386V34.3984H3.20228C2.59852 34.3984 2.10689 33.9078 2.10689 33.3054V20.1201H1V33.3054C1 34.516 1.98614 35.5 3.20228 35.5H22.0769C22.0769 35.5 22.0827 35.5 22.0855 35.5C22.0999 35.5 22.1172 35.5 22.1315 35.5C22.1402 35.5 22.1488 35.5 22.1574 35.4972C22.166 35.4972 22.1747 35.4972 22.1862 35.4943C22.1948 35.4943 22.2034 35.4886 22.212 35.4886C22.2207 35.4886 22.2293 35.4857 22.2379 35.4828C22.2465 35.4828 22.2523 35.4771 22.2609 35.4742C22.2695 35.4714 22.2782 35.4685 22.2897 35.4627C22.2954 35.4627 22.3012 35.457 22.3098 35.4541C22.3213 35.4484 22.3299 35.4455 22.3385 35.4398C22.3443 35.4369 22.35 35.4341 22.3558 35.4312C22.3673 35.4255 22.3759 35.4197 22.3874 35.414C22.3932 35.4111 22.3989 35.4054 22.4047 35.4025C22.4133 35.3968 22.4219 35.391 22.4305 35.3824C22.4449 35.3709 22.4593 35.3595 22.4708 35.3451L28.839 28.9906C28.839 28.9906 28.862 28.9677 28.8735 28.9533C28.8764 28.9504 28.8793 28.9447 28.8821 28.9418C28.8908 28.9332 28.8965 28.9218 28.9051 28.9132C28.9051 28.9103 28.9109 28.9045 28.9138 28.9017C28.9224 28.8902 28.931 28.8759 28.9368 28.8615C28.9454 28.8472 28.9511 28.8328 28.9569 28.8185C28.9569 28.8156 28.9598 28.8099 28.9626 28.807C28.9684 28.7955 28.9713 28.7841 28.9741 28.7726C28.9741 28.7668 28.977 28.764 28.9799 28.7582C28.9856 28.7439 28.9885 28.7295 28.9914 28.7123C28.9943 28.6951 28.9971 28.6808 28.9971 28.6636C28.9971 28.6578 28.9971 28.655 28.9971 28.6492C28.9971 28.6377 28.9971 28.6234 28.9971 28.6119C28.9971 28.6119 28.9971 28.6062 28.9971 28.6033V21.7181H27.8903V28.0525L27.8931 28.041Z" fill="white" stroke="white" stroke-width="0.5"/>
<path d="M6.33008 13.166H23.3216V14.2705H6.33008V13.166Z" fill="white" stroke="white" stroke-width="0.5"/>
<path d="M8.38917 24.5327C8.43805 24.5327 8.6048 24.6217 8.7083 24.8081C8.8463 25.0549 8.90955 25.3991 8.97855 25.7635C8.99868 25.8696 9.0188 25.9729 9.03893 26.079C9.30918 27.3958 9.87844 28.6581 10.6892 29.734C10.8847 29.9922 11.2067 30.1241 11.5258 30.0753C11.8478 30.0266 12.1152 29.8085 12.2273 29.5044L12.3999 29.0311C12.5752 29.0053 12.742 28.9422 12.8915 28.8417C13.1905 28.6409 13.3544 28.3598 13.4435 28.1102C13.4607 28.1389 13.4809 28.1647 13.4981 28.1934C13.6361 28.3999 13.8575 28.5405 14.1076 28.5778C14.3549 28.6151 14.6079 28.5434 14.8005 28.3827L18.5898 25.2327L17.457 23.8758L14.4124 26.4032C13.9869 25.7979 13.547 25.204 13.0956 24.6217C12.8282 24.2774 12.351 24.1799 11.9686 24.3893C11.5862 24.5987 11.4166 25.0549 11.5632 25.4622C11.7415 25.9499 11.8277 26.4692 11.8191 26.9885C11.6063 27.0028 11.4051 27.0917 11.2556 27.2409C11.0371 26.7532 10.8732 26.2426 10.7668 25.7233C10.7467 25.6286 10.7295 25.534 10.7122 25.4393C10.626 24.9745 10.5282 24.4495 10.2493 23.9475C9.76056 23.0725 8.8233 22.6049 7.96654 22.8143C7.39728 22.952 6.42839 23.4799 6.34789 25.4565C6.28464 27.0085 6.34789 28.5749 6.54052 30.1155L8.29717 29.9004C8.11892 28.4544 8.05854 26.9827 8.11604 25.5282C8.14479 24.811 8.33455 24.5413 8.38342 24.5299L8.38917 24.5327Z" fill="white"/>
<path d="M6.33301 18.9922H23.3245V20.0967H6.33301V18.9922Z" fill="white" stroke="white" stroke-width="0.5"/>
</svg>
