<svg width="20" height="20" viewBox="0 0 20 20" fill="none" xmlns="http://www.w3.org/2000/svg">
<path d="M15.8621 2H4.13644C3.53351 2 3.04346 2.49441 3.04346 3.10414V16.8959C3.04346 17.5056 3.53351 18 4.13644 18H13.5204C13.5204 18 13.5361 18 13.5432 17.9986C13.5475 17.9986 13.5518 17.9971 13.5561 17.9971C13.5604 17.9957 13.5647 17.9957 13.5704 17.9942C13.5747 17.9942 13.579 17.9942 13.5833 17.9914C13.5875 17.9899 13.5918 17.9899 13.5961 17.9885C13.6004 17.987 13.6033 17.9856 13.6075 17.9841C13.6118 17.9827 13.6161 17.9813 13.6218 17.9784C13.6247 17.9769 13.6275 17.9755 13.6304 17.9741C13.6361 17.9726 13.6404 17.9697 13.6461 17.9668C13.649 17.9668 13.6504 17.964 13.6533 17.9625C13.659 17.9596 13.6647 17.9568 13.669 17.9539C13.6718 17.951 13.6747 17.9495 13.6775 17.9467C13.6818 17.9438 13.6861 17.9409 13.6904 17.9366C13.6975 17.9308 13.7047 17.925 13.7104 17.9193L16.8765 14.725C16.8765 14.725 16.8879 14.7135 16.8922 14.7077C16.8936 14.7049 16.8965 14.7034 16.8965 14.702C16.9008 14.6962 16.9051 14.6919 16.9079 14.6861C16.9094 14.6847 16.9108 14.6832 16.9122 14.6804C16.9165 14.6746 16.9194 14.6674 16.9236 14.6616C16.9279 14.653 16.9308 14.6443 16.9351 14.6371C16.9351 14.6357 16.9365 14.6328 16.9365 14.6314C16.9394 14.6256 16.9408 14.6198 16.9436 14.6141C16.9436 14.6112 16.9451 14.6097 16.9451 14.6068C16.9479 14.5996 16.9494 14.5924 16.9508 14.5838C16.9522 14.5751 16.9536 14.5679 16.9551 14.5593V14.5521C16.9551 14.5521 16.9565 14.5391 16.9565 14.5333V3.10414C16.9565 2.49441 16.4664 2 15.8621 2ZM16.4064 14.2523H14.3362C13.7318 14.2523 13.2418 14.7467 13.2418 15.3564V17.445H4.13644C3.83641 17.445 3.59209 17.1986 3.59209 16.8959V3.10414C3.59209 2.80144 3.83641 2.55495 4.13644 2.55495H15.8621C16.1621 2.55495 16.4064 2.80144 16.4064 3.10414V14.2523Z" fill="#91918A" stroke="#91918A" stroke-width="0.53"/>
<path d="M5.69092 5.91406H14.1348V6.46902H5.69092V5.91406Z" fill="#91918A" stroke="#91918A" stroke-width="0.53"/>
<path d="M6.71367 11.9138C6.73796 11.9138 6.82082 11.9584 6.87226 12.0521C6.94084 12.1761 6.97227 12.3491 7.00656 12.5321C7.01656 12.5855 7.02656 12.6374 7.03656 12.6907C7.17086 13.3523 7.45375 13.9865 7.85666 14.5271C7.95381 14.6568 8.11383 14.7231 8.27242 14.6986C8.43244 14.6741 8.56531 14.5646 8.62103 14.4118L8.70676 14.1739C8.79391 14.161 8.87678 14.1292 8.95107 14.0788C9.09966 13.9779 9.1811 13.8366 9.22539 13.7112C9.23396 13.7256 9.24396 13.7386 9.25253 13.753C9.32111 13.8568 9.43113 13.9274 9.55543 13.9462C9.6783 13.9649 9.80403 13.9289 9.89975 13.8482L11.7828 12.2655L11.2199 11.5837L9.70687 12.8536C9.49542 12.5494 9.27682 12.251 9.05251 11.9584C8.91964 11.7855 8.68247 11.7365 8.49245 11.8417C8.30242 11.9469 8.21813 12.1761 8.29099 12.3808C8.37958 12.6258 8.42244 12.8867 8.41815 13.1476C8.31243 13.1548 8.21241 13.1995 8.13812 13.2745C8.02954 13.0294 7.9481 12.7729 7.89523 12.5119C7.88523 12.4644 7.87666 12.4168 7.86809 12.3692C7.82523 12.1357 7.77665 11.872 7.63806 11.6197C7.39518 11.1801 6.92941 10.9451 6.50364 11.0503C6.22075 11.1195 5.73927 11.3847 5.69926 12.3779C5.66783 13.1577 5.69926 13.9447 5.79499 14.7188L6.66795 14.6107C6.57937 13.8842 6.54936 13.1447 6.57794 12.4139C6.59223 12.0536 6.68652 11.9181 6.71081 11.9123L6.71367 11.9138Z" fill="#91918A"/>
<path d="M5.69385 9.12891H14.1377V9.68386H5.69385V9.12891Z" fill="#91918A" stroke="#91918A" stroke-width="0.53"/>
</svg>
