<svg width="40" height="40" viewBox="0 0 40 40" fill="none" xmlns="http://www.w3.org/2000/svg">
<path d="M11.5059 9.91602H13.6276V11.0205H11.5059V9.91602Z" fill="#87BE33" stroke="#87BE33" stroke-width="0.5"/>
<path d="M15.0449 9.91602H28.4915V11.0205H15.0449V9.91602Z" fill="#87BE33" stroke="#87BE33" stroke-width="0.5"/>
<path d="M7.10689 4.69754C7.10689 4.09508 7.59852 3.60451 8.20228 3.60451H31.7977C32.4015 3.60451 32.8931 4.09508 32.8931 4.69754V20.5967H34V4.69754C34 3.48689 33.0139 2.5 31.7977 2.5H8.20228C6.98614 2.5 6 3.48402 6 4.69754V20H7.10689V4.69754Z" fill="#87BE33" stroke="#87BE33" stroke-width="0.5"/>
<path d="M32.8931 30.04H28.7243C27.5111 30.04 26.522 31.0241 26.522 32.2376V36.3974H8.20228C7.59852 36.3974 7.10689 35.9069 7.10689 35.3044V22.1191H6V35.3044C6 36.515 6.98614 37.4991 8.20228 37.4991H27.0769C27.0769 37.4991 27.0827 37.4991 27.0855 37.4991C27.0999 37.4991 27.1172 37.4991 27.1315 37.4991C27.1402 37.4991 27.1488 37.4991 27.1574 37.4962C27.166 37.4962 27.1747 37.4962 27.1862 37.4933C27.1948 37.4933 27.2034 37.4876 27.212 37.4876C27.2207 37.4876 27.2293 37.4847 27.2379 37.4819C27.2465 37.4819 27.2523 37.4761 27.2609 37.4732C27.2695 37.4704 27.2782 37.4675 27.2897 37.4618C27.2954 37.4618 27.3012 37.456 27.3098 37.4532C27.3213 37.4474 27.3299 37.4446 27.3385 37.4388C27.3443 37.436 27.35 37.4331 27.3558 37.4302C27.3673 37.4245 27.3759 37.4187 27.3874 37.413C27.3932 37.4101 27.3989 37.4044 27.4047 37.4015C27.4133 37.3958 27.4219 37.39 27.4305 37.3814C27.4449 37.37 27.4593 37.3585 27.4708 37.3441L33.839 30.9896C33.839 30.9896 33.862 30.9667 33.8735 30.9523C33.8764 30.9495 33.8793 30.9437 33.8821 30.9409C33.8908 30.9323 33.8965 30.9208 33.9051 30.9122C33.9051 30.9093 33.9109 30.9036 33.9138 30.9007C33.9224 30.8892 33.931 30.8749 33.9368 30.8605C33.9454 30.8462 33.9511 30.8319 33.9569 30.8175C33.9569 30.8146 33.9598 30.8089 33.9626 30.806C33.9684 30.7946 33.9713 30.7831 33.9741 30.7716C33.9741 30.7659 33.977 30.763 33.9799 30.7573C33.9856 30.7429 33.9885 30.7286 33.9914 30.7114C33.9943 30.6941 33.9971 30.6798 33.9971 30.6626C33.9971 30.6568 33.9971 30.654 33.9971 30.6482C33.9971 30.6368 33.9971 30.6224 33.9971 30.6109C33.9971 30.6109 33.9971 30.6052 33.9971 30.6023V23.7171H32.8903V30.0515L32.8931 30.04Z" fill="#87BE33" stroke="#87BE33" stroke-width="0.5"/>
<path d="M11.3301 15.166H28.3216V16.2705H11.3301V15.166Z" fill="#87BE33" stroke="#87BE33" stroke-width="0.5"/>
<path d="M13.3892 26.5317C13.438 26.5317 13.6048 26.6207 13.7083 26.8072C13.8463 27.0539 13.9096 27.3981 13.9786 27.7625C13.9987 27.8686 14.0188 27.9719 14.0389 28.0781C14.3092 29.3949 14.8784 30.6572 15.6892 31.733C15.8847 31.9912 16.2067 32.1231 16.5258 32.0744C16.8478 32.0256 17.1152 31.8076 17.2273 31.5035L17.3999 31.0301C17.5752 31.0043 17.742 30.9412 17.8915 30.8408C18.1905 30.6399 18.3544 30.3588 18.4435 30.1092C18.4607 30.1379 18.4809 30.1637 18.4981 30.1924C18.6361 30.399 18.8575 30.5395 19.1076 30.5768C19.3549 30.6141 19.6079 30.5424 19.8005 30.3818L23.5898 27.2317L22.457 25.8748L19.4124 28.4022C18.9869 27.7969 18.547 27.2031 18.0956 26.6207C17.8282 26.2764 17.351 26.1789 16.9686 26.3883C16.5862 26.5977 16.4166 27.0539 16.5632 27.4613C16.7415 27.949 16.8277 28.4682 16.8191 28.9875C16.6063 29.0018 16.4051 29.0908 16.2556 29.2399C16.0371 28.7522 15.8732 28.2416 15.7668 27.7223C15.7467 27.6276 15.7295 27.533 15.7122 27.4383C15.626 26.9736 15.5282 26.4486 15.2493 25.9465C14.7606 25.0715 13.8233 24.6039 12.9665 24.8133C12.3973 24.951 11.4284 25.4789 11.3479 27.4555C11.2846 29.0076 11.3479 30.574 11.5405 32.1145L13.2972 31.8994C13.1189 30.4535 13.0585 28.9817 13.116 27.5272C13.1448 26.81 13.3345 26.5404 13.3834 26.5289L13.3892 26.5317Z" fill="#87BE33"/>
<path d="M11.333 20.9922H28.3245V22.0967H11.333V20.9922Z" fill="#87BE33" stroke="#87BE33" stroke-width="0.5"/>
</svg>
