<svg width="20" height="20" viewBox="0 0 20 20" fill="none" xmlns="http://www.w3.org/2000/svg">
<path d="M15.8626 2H4.13693C3.534 2 3.04395 2.49441 3.04395 3.10414V16.8959C3.04395 17.5056 3.534 18 4.13693 18H13.5209C13.5209 18 13.5366 18 13.5437 17.9986C13.548 17.9986 13.5523 17.9971 13.5566 17.9971C13.5609 17.9957 13.5652 17.9957 13.5709 17.9942C13.5752 17.9942 13.5795 17.9942 13.5837 17.9914C13.588 17.9899 13.5923 17.9899 13.5966 17.9885C13.6009 17.987 13.6037 17.9856 13.608 17.9841C13.6123 17.9827 13.6166 17.9813 13.6223 17.9784C13.6252 17.9769 13.628 17.9755 13.6309 17.9741C13.6366 17.9726 13.6409 17.9697 13.6466 17.9668C13.6495 17.9668 13.6509 17.964 13.6537 17.9625C13.6595 17.9596 13.6652 17.9568 13.6695 17.9539C13.6723 17.951 13.6752 17.9495 13.678 17.9467C13.6823 17.9438 13.6866 17.9409 13.6909 17.9366C13.698 17.9308 13.7052 17.925 13.7109 17.9193L16.877 14.725C16.877 14.725 16.8884 14.7135 16.8927 14.7077C16.8941 14.7049 16.897 14.7034 16.897 14.702C16.9013 14.6962 16.9056 14.6919 16.9084 14.6861C16.9098 14.6847 16.9113 14.6832 16.9127 14.6804C16.917 14.6746 16.9198 14.6674 16.9241 14.6616C16.9284 14.653 16.9313 14.6443 16.9356 14.6371C16.9356 14.6357 16.937 14.6328 16.937 14.6314C16.9398 14.6256 16.9413 14.6198 16.9441 14.6141C16.9441 14.6112 16.9456 14.6097 16.9456 14.6068C16.9484 14.5996 16.9498 14.5924 16.9513 14.5838C16.9527 14.5751 16.9541 14.5679 16.9556 14.5593V14.5521C16.9556 14.5521 16.957 14.5391 16.957 14.5333V3.10414C16.957 2.49441 16.4669 2 15.8626 2ZM16.4069 14.2523H14.3367C13.7323 14.2523 13.2423 14.7467 13.2423 15.3564V17.445H4.13693C3.83689 17.445 3.59258 17.1986 3.59258 16.8959V3.10414C3.59258 2.80144 3.83689 2.55495 4.13693 2.55495H15.8626C16.1626 2.55495 16.4069 2.80144 16.4069 3.10414V14.2523Z" fill="#4D6A00" stroke="#4D6A00" stroke-width="0.53"/>
<path d="M5.69141 5.91309H14.1352V6.46804H5.69141V5.91309Z" fill="#4D6A00" stroke="#4D6A00" stroke-width="0.53"/>
<path d="M6.71465 11.9128C6.73893 11.9128 6.8218 11.9575 6.87323 12.0512C6.94181 12.1751 6.97325 12.3481 7.00754 12.5312C7.01754 12.5845 7.02754 12.6364 7.03754 12.6897C7.17184 13.3513 7.45473 13.9856 7.85763 14.5261C7.95479 14.6558 8.11481 14.7221 8.2734 14.6976C8.43342 14.6731 8.56629 14.5636 8.62201 14.4108L8.70773 14.173C8.79489 14.16 8.87775 14.1283 8.95205 14.0778C9.10064 13.9769 9.18207 13.8357 9.22637 13.7103C9.23494 13.7247 9.24494 13.7376 9.25351 13.7521C9.32209 13.8558 9.4321 13.9265 9.5564 13.9452C9.67928 13.9639 9.805 13.9279 9.90073 13.8472L11.7838 12.2645L11.2209 11.5827L9.70785 12.8526C9.4964 12.5485 9.2778 12.2501 9.05349 11.9575C8.92062 11.7845 8.68344 11.7355 8.49342 11.8407C8.3034 11.9459 8.21911 12.1751 8.29197 12.3798C8.38055 12.6248 8.42341 12.8857 8.41913 13.1466C8.3134 13.1539 8.21339 13.1985 8.1391 13.2735C8.03051 13.0285 7.94907 12.7719 7.89621 12.511C7.88621 12.4634 7.87764 12.4158 7.86906 12.3683C7.8262 12.1348 7.77763 11.871 7.63904 11.6187C7.39615 11.1791 6.93038 10.9441 6.50462 11.0494C6.22173 11.1185 5.74025 11.3838 5.70024 12.3769C5.66881 13.1567 5.70024 13.9438 5.79597 14.7178L6.66893 14.6097C6.58034 13.8832 6.55034 13.1438 6.57891 12.413C6.5932 12.0526 6.6875 11.9171 6.71179 11.9113L6.71465 11.9128Z" fill="#4D6A00"/>
<path d="M5.69434 9.12891H14.1382V9.68386H5.69434V9.12891Z" fill="#4D6A00" stroke="#4D6A00" stroke-width="0.53"/>
</svg>
