<svg width="101" height="101" viewBox="0 0 101 101" fill="none" xmlns="http://www.w3.org/2000/svg">
<path d="M51.1633 42.0826V22.8133C51.1633 22.274 51.6004 21.8367 52.1398 21.8367C52.6793 21.8367 53.1164 22.274 53.1164 22.8133V42.0826C53.1164 42.6219 52.6793 43.0592 52.1398 43.0592C51.6004 43.0592 51.1633 42.6221 51.1633 42.0826ZM41.2354 29.2861C40.6959 29.2861 40.2588 29.7234 40.2588 30.2627V42.0826C40.2588 42.6219 40.6959 43.0592 41.2354 43.0592C41.7748 43.0592 42.2119 42.6219 42.2119 42.0826V30.2627C42.2119 29.7234 41.7748 29.2861 41.2354 29.2861ZM19.4268 43.0592C19.9662 43.0592 20.4033 42.6219 20.4033 42.0826V35.2797C20.4033 34.7404 19.9662 34.3031 19.4268 34.3031C18.8873 34.3031 18.4502 34.7404 18.4502 35.2797V42.0826C18.4502 42.6221 18.8875 43.0592 19.4268 43.0592ZM30.3311 43.0592C30.8705 43.0592 31.3076 42.6219 31.3076 42.0826V29.8066C31.3076 29.2674 30.8705 28.8301 30.3311 28.8301C29.7916 28.8301 29.3545 29.2674 29.3545 29.8066V42.0826C29.3545 42.6221 29.7918 43.0592 30.3311 43.0592ZM40.2602 77.6656C40.2596 77.6656 40.259 77.6656 40.2586 77.6656L16.7889 77.7039C16.2494 77.7047 15.8131 78.1428 15.8139 78.682C15.8148 79.2207 16.2518 79.657 16.7904 79.657H16.792L40.2617 79.6188C40.8012 79.618 41.2375 79.1799 41.2367 78.6406C41.2357 78.1019 40.7988 77.6656 40.2602 77.6656ZM40.2602 68.4971C40.2596 68.4971 40.259 68.4971 40.2586 68.4971L16.7889 68.5354C16.2494 68.5361 15.8129 68.9742 15.8139 69.5135C15.8148 70.0522 16.2518 70.4885 16.7904 70.4885H16.792L40.2617 70.4502C40.8012 70.4494 41.2377 70.0113 41.2367 69.4721C41.2357 68.9332 40.7988 68.4971 40.2602 68.4971ZM40.2602 59.3283C40.2596 59.3283 40.259 59.3283 40.2586 59.3283L16.7889 59.3666C16.2494 59.3674 15.8129 59.8055 15.8139 60.3447C15.8148 60.8834 16.2518 61.3197 16.7904 61.3197H16.792L40.2617 61.2814C40.8012 61.2807 41.2377 60.8426 41.2367 60.3033C41.2357 59.7645 40.7988 59.3283 40.2602 59.3283ZM81.732 73.6269C81.191 74.6057 81.2148 75.809 81.7941 76.7674C82.5795 78.0666 82.2965 79.707 81.1211 80.6682C79.8225 81.7301 78.3801 82.599 76.8342 83.2512C75.4352 83.841 73.8525 83.3248 73.0709 82.023C72.4943 81.0631 71.4352 80.4754 70.3236 80.5004C69.2061 80.5213 68.1762 81.1432 67.6353 82.1236C67.2566 82.8107 66.6553 83.2961 65.9668 83.5305V89.1506C65.9668 89.6898 65.5297 90.1272 64.9902 90.1272H6.57617C6.03672 90.1272 5.59961 89.6898 5.59961 89.1506V11.8496C5.59961 11.3104 6.03672 10.873 6.57617 10.873H64.9902C65.5297 10.873 65.9668 11.3104 65.9668 11.8496V51.2594C66.4107 51.5096 66.7977 51.875 67.0795 52.3443C67.6461 53.2877 68.6727 53.8676 69.7691 53.8676C69.7885 53.8676 69.8076 53.8674 69.8271 53.867C70.9445 53.8461 71.9746 53.224 72.5152 52.2438C73.2459 50.9176 74.8059 50.3416 76.2232 50.8752C77.7996 51.4682 79.2768 52.2826 80.6135 53.2961C81.8227 54.2131 82.1658 55.8418 81.4295 57.1686C80.8857 58.1482 80.9064 59.352 81.4838 60.3102C82.0609 61.2682 83.1176 61.85 84.2355 61.8266C84.257 61.8262 84.2787 61.826 84.3 61.826C85.7893 61.826 87.0359 62.8814 87.2779 64.3578H87.2777C87.5492 66.0131 87.5789 67.6996 87.3664 69.3703C87.1754 70.8727 85.9379 71.9824 84.4234 72.0092C83.3041 72.0287 82.2729 72.6486 81.732 73.6269ZM64.0137 88.1738V83.5203C63.985 83.5103 63.9559 83.5029 63.9271 83.4922C62.3508 82.899 60.8738 82.0846 59.5373 81.0713C58.3279 80.1543 57.9848 78.5256 58.7211 77.1986C59.2648 76.2191 59.2441 75.0152 58.6668 74.057C58.0895 73.099 57.0266 72.515 55.915 72.5408C55.8936 72.5412 55.8719 72.5414 55.8506 72.5414C54.3617 72.5414 53.1148 71.4859 52.8729 70.0098C52.6014 68.3541 52.5717 66.6678 52.7842 64.9971C52.9752 63.4947 54.2127 62.385 55.7271 62.3582C56.8463 62.3385 57.8777 61.7186 58.4184 60.7402C58.9594 59.7615 58.9355 58.5584 58.3562 57.6C57.5709 56.3008 57.8541 54.6602 59.0293 53.6992C60.3285 52.6371 61.7709 51.7682 63.3162 51.1162C63.5451 51.0197 63.7791 50.9557 64.0135 50.917V12.8262H7.55273V88.1738H64.0137ZM84.3891 70.0563C84.924 70.0469 85.3615 69.6547 85.4289 69.1238C85.6178 67.64 85.5912 66.143 85.3506 64.6736C85.3506 64.6736 85.3506 64.6736 85.3504 64.6736C85.2639 64.1445 84.8033 63.7672 84.2754 63.7793C82.4666 63.8154 80.7477 62.8732 79.8109 61.3182C78.8738 59.7629 78.8398 57.8098 79.7217 56.2207C79.982 55.752 79.8607 55.1764 79.4334 54.8523C78.2471 53.9529 76.9357 53.2297 75.5357 52.7031C75.0352 52.5146 74.4838 52.718 74.2256 53.1869C73.3488 54.777 71.6773 55.7857 69.8637 55.8197C69.8322 55.8203 69.8008 55.8205 69.7695 55.8205C67.9902 55.8205 66.3246 54.8803 65.4055 53.3498C65.1293 52.8898 64.5695 52.7074 64.0756 52.9158C62.7023 53.4951 61.4203 54.2674 60.2656 55.2113C59.8504 55.5508 59.7502 56.1307 60.0279 56.5896C60.9678 58.1441 61.0059 60.0967 60.1279 61.6852C59.2502 63.2729 57.5771 64.2791 55.7617 64.3109C55.2268 64.3203 54.7893 64.7125 54.7219 65.2434C54.533 66.7269 54.5596 68.2242 54.8002 69.6936C54.8871 70.2227 55.3443 70.6049 55.8754 70.5879C55.9098 70.5873 55.9445 70.5869 55.9787 70.5869C57.7568 70.5869 59.4205 71.5232 60.3398 73.0488C61.277 74.6043 61.3109 76.5574 60.4289 78.1463C60.1688 78.615 60.29 79.1906 60.7174 79.5146C61.9037 80.4141 63.215 81.1373 64.615 81.6639C65.1156 81.852 65.6668 81.649 65.9252 81.1801C66.8022 79.5898 68.4736 78.5811 70.2875 78.5473C70.3186 78.5467 70.35 78.5465 70.3812 78.5465C72.1605 78.5465 73.8262 79.4867 74.7453 81.0172C75.0217 81.4771 75.5811 81.6596 76.0754 81.4512C77.449 80.8717 78.7309 80.0994 79.885 79.1557C80.3004 78.816 80.4006 78.2363 80.123 77.7773C79.1832 76.2227 79.1449 74.2701 80.0229 72.6816C80.9004 71.0941 82.5736 70.0881 84.3891 70.0563ZM75.3889 63.9822C77.1541 66.9121 76.2066 70.732 73.2768 72.4973C72.2777 73.0992 71.175 73.3857 70.0857 73.3857C67.9807 73.3857 65.9252 72.3158 64.7619 70.3852C62.9967 67.4551 63.9441 63.6353 66.874 61.8701C69.8041 60.1049 73.6238 61.0525 75.3889 63.9822ZM73.7158 64.9902C72.9189 63.6676 71.5104 62.9344 70.0682 62.9344C69.3217 62.9344 68.5666 63.1307 67.8818 63.5432C65.8746 64.7525 65.2252 67.3697 66.4348 69.3773C67.6439 71.3846 70.2611 72.0336 72.2688 70.8244C74.2762 69.6148 74.9254 66.9977 73.7158 64.9902ZM90.6301 82.3488L89.0445 82.2332C95.0223 77.2178 97.0926 68.807 93.9262 61.5037C93.7117 61.0092 93.1379 60.7816 92.6418 60.9961C92.1471 61.2107 91.9199 61.7857 92.1344 62.2805C94.9922 68.8721 93.0596 76.4762 87.5686 80.9186L87.6531 79.0018C87.6768 78.4629 87.2592 78.0068 86.7205 77.9832C86.1902 77.9598 85.7256 78.3772 85.702 78.9158L85.5227 82.9836C85.4994 83.5115 85.9004 83.9621 86.4271 84.0006L90.4879 84.2969C90.5121 84.2986 90.5361 84.2994 90.56 84.2994C91.067 84.2994 91.4955 83.9076 91.5328 83.3939C91.5721 82.8561 91.168 82.3881 90.6301 82.3488ZM53.4303 56.3842C53.9639 56.4111 54.4252 55.9902 54.4488 55.4516L54.6281 51.3838C54.6514 50.8559 54.2504 50.4053 53.7236 50.3668L49.6627 50.0705C49.1236 50.0322 48.6568 50.4356 48.6176 50.9734C48.5783 51.5113 48.9824 51.9791 49.5203 52.0186L51.1061 52.1342C45.1283 57.1496 43.058 65.5604 46.2246 72.8637C46.3842 73.232 46.7436 73.452 47.1211 73.452C47.2506 73.452 47.3824 73.426 47.509 73.3711C48.0037 73.1564 48.2309 72.5814 48.0164 72.0867C45.1586 65.4951 47.091 57.8908 52.582 53.4486L52.4975 55.3652C52.4738 55.9043 52.8914 56.3604 53.4303 56.3842Z" fill="#848789"/>
</svg>
