<?xml version="1.0" standalone="no"?>
<!DOCTYPE svg PUBLIC "-//W3C//DTD SVG 20010904//EN"
 "http://www.w3.org/TR/2001/REC-SVG-20010904/DTD/svg10.dtd">
<svg version="1.0" xmlns="http://www.w3.org/2000/svg"
 width="256.000000pt" height="256.000000pt" viewBox="0 0 256.000000 256.000000"
 preserveAspectRatio="xMidYMid meet">

<g transform="translate(0.000000,256.000000) scale(0.100000,-0.100000)"
fill="#87BE33" stroke="none">
<path d="M1240 2343 c-55 -11 -765 -266 -790 -285 -15 -11 -38 -39 -51 -61
l-24 -42 1 -450 0 -450 26 -97 c59 -218 185 -398 356 -511 37 -25 165 -98 285
-162 168 -90 223 -116 242 -111 30 8 449 234 507 274 164 113 291 298 350 507
22 78 22 94 23 545 l0 465 -23 37 c-13 21 -36 47 -52 58 -32 23 -737 274 -791
282 -19 3 -45 3 -59 1z m387 -278 c196 -70 363 -131 370 -137 21 -17 18 -793
-3 -896 -31 -151 -103 -281 -213 -385 -67 -63 -116 -94 -386 -240 l-120 -65
-95 50 c-352 187 -415 231 -497 341 -54 72 -103 175 -128 267 -16 56 -19 121
-22 489 -3 302 -1 427 7 435 7 7 678 252 727 265 2 1 164 -55 360 -124z"/>
<path d="M1386 1390 l-191 -189 -86 84 c-94 92 -116 101 -163 64 -20 -15 -26
-29 -26 -57 0 -34 10 -47 123 -160 109 -109 126 -122 157 -122 32 0 53 18 262
228 204 204 228 231 228 260 0 44 -38 82 -81 82 -29 0 -55 -22 -223 -190z"/>
</g>
</svg>
