<?xml version="1.0" standalone="no"?>
<!DOCTYPE svg PUBLIC "-//W3C//DTD SVG 20010904//EN"
 "http://www.w3.org/TR/2001/REC-SVG-20010904/DTD/svg10.dtd">
<svg version="1.0" xmlns="http://www.w3.org/2000/svg"
 width="512.000000pt" height="512.000000pt" viewBox="0 0 512.000000 512.000000"
 preserveAspectRatio="xMidYMid meet">

<g transform="translate(0.000000,512.000000) scale(0.100000,-0.100000)"
fill="grey" stroke="none">
<path d="M2340 4789 c-132 -14 -291 -47 -419 -85 -64 -20 -118 -37 -120 -40
-2 -2 20 -69 49 -150 48 -131 55 -145 74 -141 12 2 61 16 110 31 382 113 833
95 1203 -47 685 -265 1153 -872 1232 -1599 6 -54 11 -120 11 -148 l0 -50 161
0 162 0 -7 118 c-34 580 -272 1099 -686 1495 -338 324 -730 520 -1195 598
-139 23 -443 33 -575 18z"/>
<path d="M1375 4466 c-101 -44 -125 -178 -46 -257 112 -113 296 -12 267 146
-18 94 -131 151 -221 111z"/>
<path d="M905 4068 c-295 -319 -490 -729 -562 -1183 -24 -154 -24 -497 1 -655
77 -496 308 -940 666 -1283 395 -378 882 -591 1428 -623 l122 -7 0 162 0 161
-59 0 c-159 0 -426 52 -601 117 -1080 401 -1569 1642 -1052 2668 80 160 198
330 313 450 l39 41 -113 112 -114 113 -68 -73z"/>
<path d="M2385 3989 c-391 -53 -739 -253 -969 -559 -193 -257 -296 -559 -295
-870 0 -85 14 -229 24 -238 3 -3 65 5 138 17 195 33 175 22 164 94 -5 34 -6
116 -3 182 17 400 260 772 618 948 239 117 523 147 773 82 117 -30 294 -113
381 -178 l61 -45 84 101 c46 56 92 111 102 123 17 22 17 23 -65 83 -95 70
-269 159 -378 195 -186 61 -459 89 -635 65z"/>
<path d="M3615 3346 c-101 -44 -125 -178 -46 -257 112 -113 296 -12 267 146
-18 94 -131 151 -221 111z"/>
<path d="M2468 2867 c-69 -26 -126 -67 -160 -114 -51 -71 -63 -108 -63 -198 0
-72 3 -86 35 -144 23 -44 50 -75 85 -101 72 -53 109 -65 200 -65 72 0 86 3
144 35 44 23 75 50 101 85 53 72 65 109 65 200 0 72 -3 86 -34 144 -36 65 -95
119 -161 148 -50 21 -167 27 -212 10z"/>
<path d="M3775 2226 c-40 -19 -871 -853 -884 -889 -7 -18 -11 -200 -11 -523
l0 -494 160 0 160 0 0 448 0 447 320 320 320 320 320 -320 320 -320 0 -447 0
-448 160 0 160 0 0 800 0 800 -160 0 -160 0 0 -127 0 -128 -277 277 c-153 152
-291 282 -306 288 -38 14 -86 12 -122 -4z"/>
<path d="M1375 2066 c-101 -44 -125 -178 -46 -257 65 -65 157 -65 222 0 124
124 -15 327 -176 257z"/>
<path d="M3680 640 l0 -320 160 0 160 0 0 320 0 320 -160 0 -160 0 0 -320z"/>
</g>
</svg>
