<svg width="15" height="13" viewBox="0 0 15 13" fill="none" xmlns="http://www.w3.org/2000/svg">
<mask id="mask0_1558_15308" style="mask-type:luminance" maskUnits="userSpaceOnUse" x="0" y="0" width="15" height="13">
<path fill-rule="evenodd" clip-rule="evenodd" d="M0.414062 0.125488H14.5807V12.9931H0.414062V0.125488Z" fill="white"/>
</mask>
<g mask="url(#mask0_1558_15308)">
<path fill-rule="evenodd" clip-rule="evenodd" d="M1.47656 8.61061V10.0592C1.47656 10.5592 1.67065 11.0289 2.0241 11.3823C2.37756 11.7358 2.8479 11.9306 3.34727 11.9306H11.6461C12.6774 11.9306 13.5175 11.0919 13.5182 10.0606V8.60991C12.6073 8.37403 11.9323 7.54457 11.9316 6.5607C11.9316 5.57682 12.6066 4.74736 13.5175 4.51078L13.5182 3.06224C13.5189 2.02949 12.681 1.1887 11.6489 1.18799H3.3494C2.31735 1.18799 1.47727 2.02736 1.47656 3.05941V4.55895C1.82081 4.64111 2.14027 4.81041 2.4059 5.05832C2.80894 5.43445 3.04127 5.94445 3.0611 6.49553C3.06323 7.53395 2.38819 8.37261 1.47656 8.61061M11.6461 12.9931H3.34798C2.56385 12.9931 1.82719 12.6885 1.27256 12.1339C0.718646 11.5792 0.414062 10.8426 0.414062 10.0592V8.14666C0.414062 7.85341 0.652062 7.61541 0.945312 7.61541C1.52898 7.6147 2.00073 7.14153 2.00002 6.5607C1.9901 6.26461 1.87677 6.01811 1.68127 5.83536C1.48648 5.65261 1.23431 5.55274 0.963729 5.56761C0.817104 5.56903 0.679687 5.51874 0.576271 5.41886C0.472854 5.31899 0.414062 5.18016 0.414062 5.03636V3.06011C0.414771 1.44157 1.73156 0.125488 3.3494 0.125488H11.6454C13.2675 0.126197 14.5821 1.44511 14.5807 3.06295V4.97474C14.5807 5.26799 14.3427 5.50599 14.0495 5.50599C13.4679 5.50599 12.9941 5.97916 12.9941 6.55999C12.9948 7.14224 13.4679 7.61541 14.0495 7.61541C14.3427 7.61541 14.5807 7.85341 14.5807 8.14666V10.0592C14.58 11.677 13.2632 12.9931 11.6461 12.9931" fill="#4D6A00"/>
</g>
<path fill-rule="evenodd" clip-rule="evenodd" d="M6.15627 6.06189L6.51681 6.41322C6.71231 6.60518 6.80085 6.8786 6.7541 7.14564L6.6691 7.64006L7.11464 7.4056C7.35477 7.27739 7.64306 7.2781 7.88531 7.40701L8.32802 7.63935L8.24302 7.14422C8.19839 6.87293 8.28764 6.60164 8.48102 6.41322L8.84156 6.06189L8.34218 5.98964C8.07443 5.95068 7.8421 5.7821 7.72239 5.53772L7.49927 5.08651L7.27614 5.53843C7.15643 5.7821 6.9241 5.95068 6.65493 5.98964L6.15627 6.06189ZM8.64535 8.89947C8.5136 8.89947 8.38185 8.8676 8.26002 8.80314L7.49927 8.40435L6.73781 8.80385C6.45731 8.95047 6.12368 8.9271 5.86868 8.74151C5.61298 8.55522 5.4876 8.24639 5.54073 7.93472L5.68593 7.08756L5.07039 6.4876C4.84443 6.26731 4.76368 5.9436 4.86073 5.64326C4.95848 5.34222 5.21348 5.12618 5.52585 5.08085L6.37868 4.95618L6.75906 4.18481C6.8986 3.90147 7.18193 3.7251 7.49927 3.7251C7.81518 3.7251 8.09923 3.90147 8.23877 4.18551L8.61985 4.95618L9.47127 5.08085C9.78435 5.12618 10.0401 5.34222 10.1371 5.64326C10.2341 5.9436 10.1541 6.26731 9.92743 6.48831L9.31118 7.08826L9.4571 7.93472C9.51023 8.2471 9.38414 8.55664 9.12773 8.74222C8.98323 8.84635 8.81464 8.89947 8.64535 8.89947V8.89947Z" fill="#4D6A00"/>
</svg>
