<svg width="34" height="30" viewBox="0 0 34 30" fill="none" xmlns="http://www.w3.org/2000/svg">
<path d="M21.0886 4.43576V4.38195C21.0886 1.90674 15.905 0.561523 11.0443 0.561523C6.18358 0.561523 1 1.90674 1 4.38195V21.6008C1 23.2509 3.70838 25.0983 9.60941 25.3853V25.4391C9.60941 27.9143 14.7751 29.2596 19.6537 29.2596C20.7837 29.2596 21.9496 29.1878 23.0437 29.0264C22.8464 28.7574 22.667 28.4704 22.5235 28.1655C21.6447 28.2551 20.6761 28.3089 19.6537 28.3089C14.2908 28.3089 10.56 26.7844 10.56 25.4391V21.4035C12.2819 22.7846 16.0485 23.52 19.6537 23.52C20.5147 23.52 21.3935 23.4841 22.2545 23.3944C22.3621 23.0536 22.5056 22.7128 22.685 22.39C21.7523 22.5155 20.7478 22.5693 19.6537 22.5693C14.2908 22.5693 10.56 21.0448 10.56 19.6995V15.6639C12.2819 17.045 16.0485 17.7803 19.6537 17.7803C23.2589 17.7803 27.0255 17.045 28.7295 15.6639V19.1973C29.0523 19.2153 29.3752 19.2691 29.698 19.3587V8.22031C29.698 5.97828 25.483 4.66893 21.0886 4.43576ZM9.60941 24.4347C5.01773 24.1836 1.95062 22.8025 1.95062 21.6008V17.5472C3.20616 18.5875 5.6993 19.4664 9.60941 19.6637V24.4347ZM9.60941 18.6951C5.01773 18.444 1.95062 17.0629 1.95062 15.8612V11.8076C3.45727 13.0272 6.4885 13.7447 9.60941 13.9061V18.6951ZM9.60941 12.9555C4.99979 12.7044 1.95062 11.3233 1.95062 10.1216V6.06796C3.43933 7.28763 6.4885 8.00508 9.60941 8.1665V12.9555ZM9.89639 7.23382C5.14328 7.03652 1.95062 5.61955 1.95062 4.38195C1.95062 3.03673 5.68137 1.51215 11.0443 1.51215C16.4073 1.51215 20.1201 3.03673 20.1201 4.38195H19.6537C15.4746 4.38195 11.0623 5.38638 9.89639 7.23382ZM28.7295 13.9599C28.7295 15.3051 24.9987 16.8297 19.6537 16.8297C14.3087 16.8297 10.56 15.3051 10.56 13.9599V9.92426C12.2819 11.3054 16.0485 12.0407 19.6537 12.0407C23.2589 12.0407 27.0255 11.3054 28.7295 9.92426V13.9599ZM19.6537 11.0901C14.2908 11.0901 10.56 9.56553 10.56 8.22031C10.56 6.87509 14.2908 5.35051 19.6537 5.35051C25.0167 5.35051 28.7295 6.85716 28.7295 8.22031C28.7295 9.58347 24.9987 11.0901 19.6537 11.0901Z" fill="#87BE33" stroke="#87BE33" stroke-width="0.5"/>
<path d="M5.4611 10.7255C5.38622 10.7021 5.30472 10.6766 5.22241 10.6534C5.2216 10.6528 5.22078 10.6522 5.21994 10.6516C5.21565 10.6486 5.21128 10.6454 5.20668 10.642C5.18476 10.6174 5.17976 10.6056 5.17713 10.599L5.16225 10.5618L5.14163 10.5274C5.13454 10.5156 5.12932 10.5036 5.12621 10.4934C5.12343 10.4842 5.12322 10.4795 5.12321 10.4795L5.12321 10.4384L5.1164 10.3976C5.11597 10.395 5.11426 10.3819 5.11605 10.3392C5.11666 10.3244 5.11735 10.3121 5.1182 10.2968C5.11873 10.2873 5.11933 10.2767 5.12001 10.2636C5.12092 10.2461 5.12187 10.226 5.1225 10.2041C5.13491 10.1363 5.14045 10.1288 5.1415 10.1274C5.14156 10.1273 5.1416 10.1272 5.14163 10.1272C5.17413 10.073 5.18967 10.0571 5.19251 10.0545L5.20241 10.0471H5.22552L5.2413 10.0392C5.41435 10.0903 5.6001 10.141 5.77947 10.1899L5.78306 10.1909L5.78303 10.191L5.78671 10.1919C5.78755 10.1925 5.78862 10.1934 5.78993 10.1945C5.7987 10.202 5.81625 10.2202 5.83627 10.2562C5.85908 10.2973 5.87903 10.378 5.88083 10.5446C5.86679 10.6581 5.82541 10.7393 5.80403 10.7642L5.79343 10.7766L5.78366 10.7896C5.77829 10.7968 5.77378 10.8016 5.77044 10.8048H5.77027H5.76998H5.76969H5.7694H5.76911H5.76882H5.76853H5.76824H5.76795H5.76767H5.76738H5.76709H5.7668H5.76652H5.76623H5.76594H5.76566H5.76537H5.76509H5.7648H5.76452H5.76423H5.76395H5.76367H5.76338H5.7631H5.76282H5.76254H5.76225H5.76197H5.76169H5.76141H5.76113H5.76085H5.76057H5.76029H5.76001H5.75973H5.75945H5.75918H5.7589H5.75862H5.75834H5.75807H5.75779H5.75751H5.75724H5.75696H5.75669H5.75641H5.75614H5.75586H5.75559H5.75532H5.75504H5.75477H5.7545H5.75423H5.75395H5.75368H5.75341H5.75314H5.75287H5.7526H5.75233H5.75206H5.75179H5.75152H5.75125H5.75098H5.75072H5.75045H5.75018H5.74991H5.74965H5.74938H5.74911H5.74885H5.74858H5.74832H5.74805H5.74778H5.74752H5.74726H5.74699H5.74673H5.74646H5.7462H5.74594H5.74568H5.74541H5.74515H5.74489H5.74463H5.74437H5.74411H5.74385H5.74359H5.74333H5.74307H5.74281H5.74255H5.74229H5.74203H5.74177H5.74151H5.74126H5.741H5.74074H5.74048H5.74023H5.73997H5.73971H5.73946H5.7392H5.73895H5.73869H5.73844H5.73818H5.73793H5.73768H5.73742H5.73717H5.73692H5.73666H5.73641H5.73616H5.73591H5.73565H5.7354H5.73515H5.7349H5.73465H5.7344H5.73415H5.7339H5.73365H5.7334H5.73315H5.7329H5.73265H5.7324H5.73215H5.73191H5.73166H5.73141H5.73116H5.73092H5.73067H5.73042H5.73018H5.72993H5.72968H5.72944H5.72919H5.72895H5.7287H5.72846H5.72821H5.72797H5.72772H5.72748H5.72741C5.65381 10.785 5.57976 10.7624 5.5004 10.7377C5.48753 10.7337 5.47442 10.7296 5.4611 10.7255Z" fill="#87BE33" stroke="#87BE33"/>
<path d="M14.1417 13.6609C14.1453 13.6583 14.1486 13.6558 14.1516 13.6535H14.1747L14.1905 13.6456C14.3494 13.6926 14.519 13.7391 14.6845 13.7843L14.7252 13.8046L14.7718 13.8163C14.7726 13.8169 14.7737 13.8178 14.775 13.8189C14.7838 13.8264 14.8013 13.8446 14.8214 13.8806C14.8442 13.9217 14.8641 14.0024 14.8659 14.1689C14.8519 14.2825 14.8105 14.3636 14.7891 14.3886L14.7785 14.401L14.7688 14.414C14.7634 14.4211 14.7589 14.426 14.7555 14.4292H14.7554H14.7551H14.7548H14.7545H14.7542H14.7539H14.7536H14.7533H14.753H14.7528H14.7525H14.7522H14.7519H14.7516H14.7513H14.751H14.7507H14.7505H14.7502H14.7499H14.7496H14.7493H14.749H14.7488H14.7485H14.7482H14.7479H14.7476H14.7473H14.7471H14.7468H14.7465H14.7462H14.7459H14.7457H14.7454H14.7451H14.7448H14.7445H14.7443H14.744H14.7437H14.7434H14.7432H14.7429H14.7426H14.7423H14.7421H14.7418H14.7415H14.7412H14.741H14.7407H14.7404H14.7401H14.7399H14.7396H14.7393H14.739H14.7388H14.7385H14.7382H14.738H14.7377H14.7374H14.7372H14.7369H14.7366H14.7363H14.7361H14.7358H14.7355H14.7353H14.735H14.7347H14.7345H14.7342H14.7339H14.7337H14.7334H14.7331H14.7329H14.7326H14.7323H14.7321H14.7318H14.7316H14.7313H14.731H14.7308H14.7305H14.7302H14.73H14.7297H14.7295H14.7292H14.7289H14.7287H14.7284H14.7282H14.7279H14.7276H14.7274H14.7271H14.7269H14.7266H14.7263H14.7261H14.7258H14.7256H14.7253H14.7251H14.7248H14.7245H14.7243H14.724H14.7238H14.7235H14.7233H14.723H14.7228H14.7225H14.7223H14.722H14.7218H14.7215H14.7212H14.721H14.7207H14.7205H14.7202H14.72H14.7197H14.7195H14.7192H14.719H14.7187H14.7185H14.7182H14.718H14.7177H14.7175H14.7172H14.717H14.7167H14.7165H14.7163H14.716H14.7158H14.7155H14.7153H14.715H14.7148H14.7145H14.7143H14.714H14.7138H14.7135H14.7133H14.7131H14.7128H14.7126H14.7125C14.6389 14.4094 14.5648 14.3868 14.4855 14.3621C14.4726 14.3581 14.4595 14.354 14.4462 14.3499C14.3663 14.3249 14.2788 14.2976 14.1909 14.2731C14.1855 14.2696 14.1785 14.2648 14.1692 14.2581C14.1649 14.255 14.1605 14.2518 14.1559 14.2484C14.134 14.2238 14.129 14.212 14.1263 14.2054L14.1115 14.1682L14.0909 14.1339C14.0838 14.1221 14.0785 14.1101 14.0754 14.0998C14.0726 14.0907 14.0724 14.086 14.0724 14.086L14.0724 14.0448L14.0656 14.004C14.0652 14.0014 14.0635 13.9884 14.0653 13.9456C14.0659 13.9308 14.0666 13.9186 14.0674 13.9033C14.068 13.8938 14.0685 13.8832 14.0692 13.8701C14.0701 13.8526 14.0711 13.8324 14.0717 13.8106C14.0841 13.7428 14.0897 13.7352 14.0907 13.7338C14.0908 13.7337 14.0908 13.7337 14.0909 13.7336C14.1233 13.6795 14.1389 13.6636 14.1417 13.6609C14.1417 13.6609 14.1417 13.6609 14.1417 13.6609Z" fill="#87BE33" stroke="#87BE33"/>
<mask id="path-4-inside-1_4726_18986" fill="white">
<path d="M28.7299 21.4033V21.4571C28.7299 21.4571 28.6761 21.4571 28.6582 21.4571C28.6941 21.4392 28.712 21.4213 28.7299 21.4033Z"/>
</mask>
<path d="M28.7299 21.4033V21.4571C28.7299 21.4571 28.6761 21.4571 28.6582 21.4571C28.6941 21.4392 28.712 21.4213 28.7299 21.4033Z" fill="white"/>
<path d="M28.7299 21.4033H29.7299V18.9891L28.0228 20.6962L28.7299 21.4033ZM28.7299 21.4571V22.4571H29.7299V21.4571H28.7299ZM28.6582 21.4571L28.211 20.5627L28.6582 22.4571V21.4571ZM27.7299 21.4033V21.4571H29.7299V21.4033H27.7299ZM28.7299 21.4571C28.7299 20.4571 28.7299 20.4571 28.7299 20.4571C28.7299 20.4571 28.7299 20.4571 28.7299 20.4571C28.7299 20.4571 28.7299 20.4571 28.7299 20.4571C28.7299 20.4571 28.7299 20.4571 28.7299 20.4571C28.7299 20.4571 28.7299 20.4571 28.7299 20.4571C28.7299 20.4571 28.7299 20.4571 28.7299 20.4571C28.7299 20.4571 28.7299 20.4571 28.7299 20.4571C28.7299 20.4571 28.7299 20.4571 28.7299 20.4571C28.7299 20.4571 28.7299 20.4571 28.7299 20.4571C28.7299 20.4571 28.7299 20.4571 28.7299 20.4571C28.7299 20.4571 28.7299 20.4571 28.7299 20.4571C28.7299 20.4571 28.7299 20.4571 28.7299 20.4571C28.7299 20.4571 28.7299 20.4571 28.7298 20.4571C28.7298 20.4571 28.7298 20.4571 28.7298 20.4571C28.7298 20.4571 28.7298 20.4571 28.7298 20.4571C28.7298 20.4571 28.7298 20.4571 28.7298 20.4571C28.7298 20.4571 28.7298 20.4571 28.7298 20.4571C28.7298 20.4571 28.7298 20.4571 28.7298 20.4571C28.7297 20.4571 28.7297 20.4571 28.7297 20.4571C28.7297 20.4571 28.7297 20.4571 28.7297 20.4571C28.7297 20.4571 28.7297 20.4571 28.7297 20.4571C28.7297 20.4571 28.7297 20.4571 28.7297 20.4571C28.7296 20.4571 28.7296 20.4571 28.7296 20.4571C28.7296 20.4571 28.7296 20.4571 28.7296 20.4571C28.7296 20.4571 28.7296 20.4571 28.7296 20.4571C28.7296 20.4571 28.7296 20.4571 28.7295 20.4571C28.7295 20.4571 28.7295 20.4571 28.7295 20.4571C28.7295 20.4571 28.7295 20.4571 28.7295 20.4571C28.7295 20.4571 28.7295 20.4571 28.7294 20.4571C28.7294 20.4571 28.7294 20.4571 28.7294 20.4571C28.7294 20.4571 28.7294 20.4571 28.7294 20.4571C28.7294 20.4571 28.7294 20.4571 28.7293 20.4571C28.7293 20.4571 28.7293 20.4571 28.7293 20.4571C28.7293 20.4571 28.7293 20.4571 28.7293 20.4571C28.7292 20.4571 28.7292 20.4571 28.7292 20.4571C28.7292 20.4571 28.7292 20.4571 28.7292 20.4571C28.7292 20.4571 28.7292 20.4571 28.7291 20.4571C28.7291 20.4571 28.7291 20.4571 28.7291 20.4571C28.7291 20.4571 28.7291 20.4571 28.7291 20.4571C28.729 20.4571 28.729 20.4571 28.729 20.4571C28.729 20.4571 28.729 20.4571 28.729 20.4571C28.7289 20.4571 28.7289 20.4571 28.7289 20.4571C28.7289 20.4571 28.7289 20.4571 28.7289 20.4571C28.7288 20.4571 28.7288 20.4571 28.7288 20.4571C28.7288 20.4571 28.7288 20.4571 28.7288 20.4571C28.7287 20.4571 28.7287 20.4571 28.7287 20.4571C28.7287 20.4571 28.7287 20.4571 28.7287 20.4571C28.7286 20.4571 28.7286 20.4571 28.7286 20.4571C28.7286 20.4571 28.7286 20.4571 28.7285 20.4571C28.7285 20.4571 28.7285 20.4571 28.7285 20.4571C28.7285 20.4571 28.7285 20.4571 28.7284 20.4571C28.7284 20.4571 28.7284 20.4571 28.7284 20.4571C28.7284 20.4571 28.7283 20.4571 28.7283 20.4571C28.7283 20.4571 28.7283 20.4571 28.7283 20.4571C28.7282 20.4571 28.7282 20.4571 28.7282 20.4571C28.7282 20.4571 28.7282 20.4571 28.7281 20.4571C28.7281 20.4571 28.7281 20.4571 28.7281 20.4571C28.728 20.4571 28.728 20.4571 28.728 20.4571C28.728 20.4571 28.728 20.4571 28.7279 20.4571C28.7279 20.4571 28.7279 20.4571 28.7279 20.4571C28.7279 20.4571 28.7278 20.4571 28.7278 20.4571C28.7278 20.4571 28.7278 20.4571 28.7277 20.4571C28.7277 20.4571 28.7277 20.4571 28.7277 20.4571C28.7276 20.4571 28.7276 20.4571 28.7276 20.4571C28.7276 20.4571 28.7276 20.4571 28.7275 20.4571C28.7275 20.4571 28.7275 20.4571 28.7275 20.4571C28.7274 20.4571 28.7274 20.4571 28.7274 20.4571C28.7274 20.4571 28.7273 20.4571 28.7273 20.4571C28.7273 20.4571 28.7273 20.4571 28.7272 20.4571C28.7272 20.4571 28.7272 20.4571 28.7272 20.4571C28.7271 20.4571 28.7271 20.4571 28.7271 20.4571C28.7271 20.4571 28.727 20.4571 28.727 20.4571C28.727 20.4571 28.727 20.4571 28.7269 20.4571C28.7269 20.4571 28.7269 20.4571 28.7268 20.4571C28.7268 20.4571 28.7268 20.4571 28.7268 20.4571C28.7267 20.4571 28.7267 20.4571 28.7267 20.4571C28.7267 20.4571 28.7266 20.4571 28.7266 20.4571C28.7266 20.4571 28.7265 20.4571 28.7265 20.4571C28.7265 20.4571 28.7265 20.4571 28.7264 20.4571C28.7264 20.4571 28.7264 20.4571 28.7263 20.4571C28.7263 20.4571 28.7263 20.4571 28.7263 20.4571C28.7262 20.4571 28.7262 20.4571 28.7262 20.4571C28.7261 20.4571 28.7261 20.4571 28.7261 20.4571C28.7261 20.4571 28.726 20.4571 28.726 20.4571C28.726 20.4571 28.7259 20.4571 28.7259 20.4571C28.7259 20.4571 28.7258 20.4571 28.7258 20.4571C28.7258 20.4571 28.7258 20.4571 28.7257 20.4571C28.7257 20.4571 28.7257 20.4571 28.7256 20.4571C28.7256 20.4571 28.7256 20.4571 28.7255 20.4571C28.7255 20.4571 28.7255 20.4571 28.7254 20.4571C28.7254 20.4571 28.7254 20.4571 28.7254 20.4571C28.7253 20.4571 28.7253 20.4571 28.7253 20.4571C28.7252 20.4571 28.7252 20.4571 28.7252 20.4571C28.7251 20.4571 28.7251 20.4571 28.7251 20.4571C28.725 20.4571 28.725 20.4571 28.725 20.4571C28.7249 20.4571 28.7249 20.4571 28.7249 20.4571C28.7248 20.4571 28.7248 20.4571 28.7248 20.4571C28.7247 20.4571 28.7247 20.4571 28.7247 20.4571C28.7246 20.4571 28.7246 20.4571 28.7246 20.4571C28.7245 20.4571 28.7245 20.4571 28.7245 20.4571C28.7244 20.4571 28.7244 20.4571 28.7244 20.4571C28.7243 20.4571 28.7243 20.4571 28.7243 20.4571C28.7242 20.4571 28.7242 20.4571 28.7241 20.4571C28.7241 20.4571 28.7241 20.4571 28.724 20.4571C28.724 20.4571 28.724 20.4571 28.7239 20.4571C28.7239 20.4571 28.7239 20.4571 28.7238 20.4571C28.7238 20.4571 28.7238 20.4571 28.7237 20.4571C28.7237 20.4571 28.7236 20.4571 28.7236 20.4571C28.7236 20.4571 28.7235 20.4571 28.7235 20.4571C28.7235 20.4571 28.7234 20.4571 28.7234 20.4571C28.7233 20.4571 28.7233 20.4571 28.7233 20.4571C28.7232 20.4571 28.7232 20.4571 28.7232 20.4571C28.7231 20.4571 28.7231 20.4571 28.723 20.4571C28.723 20.4571 28.723 20.4571 28.7229 20.4571C28.7229 20.4571 28.7229 20.4571 28.7228 20.4571C28.7228 20.4571 28.7227 20.4571 28.7227 20.4571C28.7227 20.4571 28.7226 20.4571 28.7226 20.4571C28.7225 20.4571 28.7225 20.4571 28.7225 20.4571C28.7224 20.4571 28.7224 20.4571 28.7224 20.4571C28.7223 20.4571 28.7223 20.4571 28.7222 20.4571C28.7222 20.4571 28.7222 20.4571 28.7221 20.4571C28.7221 20.4571 28.722 20.4571 28.722 20.4571C28.722 20.4571 28.7219 20.4571 28.7219 20.4571C28.7218 20.4571 28.7218 20.4571 28.7218 20.4571C28.7217 20.4571 28.7217 20.4571 28.7216 20.4571C28.7216 20.4571 28.7215 20.4571 28.7215 20.4571C28.7215 20.4571 28.7214 20.4571 28.7214 20.4571C28.7213 20.4571 28.7213 20.4571 28.7213 20.4571C28.7212 20.4571 28.7212 20.4571 28.7211 20.4571C28.7211 20.4571 28.7211 20.4571 28.721 20.4571C28.721 20.4571 28.7209 20.4571 28.7209 20.4571C28.7208 20.4571 28.7208 20.4571 28.7208 20.4571C28.7207 20.4571 28.7207 20.4571 28.7206 20.4571C28.7206 20.4571 28.7205 20.4571 28.7205 20.4571C28.7205 20.4571 28.7204 20.4571 28.7204 20.4571C28.7203 20.4571 28.7203 20.4571 28.7202 20.4571C28.7202 20.4571 28.7202 20.4571 28.7201 20.4571C28.7201 20.4571 28.72 20.4571 28.72 20.4571C28.7199 20.4571 28.7199 20.4571 28.7198 20.4571C28.7198 20.4571 28.7198 20.4571 28.7197 20.4571C28.7197 20.4571 28.7196 20.4571 28.7196 20.4571C28.7195 20.4571 28.7195 20.4571 28.7194 20.4571C28.7194 20.4571 28.7194 20.4571 28.7193 20.4571C28.7193 20.4571 28.7192 20.4571 28.7192 20.4571C28.7191 20.4571 28.7191 20.4571 28.719 20.4571C28.719 20.4571 28.7189 20.4571 28.7189 20.4571C28.7189 20.4571 28.7188 20.4571 28.7188 20.4571C28.7187 20.4571 28.7187 20.4571 28.7186 20.4571C28.7186 20.4571 28.7185 20.4571 28.7185 20.4571C28.7184 20.4571 28.7184 20.4571 28.7183 20.4571C28.7183 20.4571 28.7183 20.4571 28.7182 20.4571C28.7182 20.4571 28.7181 20.4571 28.7181 20.4571C28.718 20.4571 28.718 20.4571 28.7179 20.4571C28.7179 20.4571 28.7178 20.4571 28.7178 20.4571C28.7177 20.4571 28.7177 20.4571 28.7176 20.4571C28.7176 20.4571 28.7175 20.4571 28.7175 20.4571C28.7175 20.4571 28.7174 20.4571 28.7174 20.4571C28.7173 20.4571 28.7173 20.4571 28.7172 20.4571C28.7172 20.4571 28.7171 20.4571 28.7171 20.4571C28.717 20.4571 28.717 20.4571 28.7169 20.4571C28.7169 20.4571 28.7168 20.4571 28.7168 20.4571C28.7167 20.4571 28.7167 20.4571 28.7166 20.4571C28.7166 20.4571 28.7165 20.4571 28.7165 20.4571C28.7164 20.4571 28.7164 20.4571 28.7163 20.4571C28.7163 20.4571 28.7162 20.4571 28.7162 20.4571C28.7161 20.4571 28.7161 20.4571 28.716 20.4571C28.716 20.4571 28.7159 20.4571 28.7159 20.4571C28.7158 20.4571 28.7158 20.4571 28.7157 20.4571C28.7157 20.4571 28.7156 20.4571 28.7156 20.4571C28.7155 20.4571 28.7155 20.4571 28.7154 20.4571C28.7154 20.4571 28.7153 20.4571 28.7153 20.4571C28.7152 20.4571 28.7152 20.4571 28.7151 20.4571C28.7151 20.4571 28.715 20.4571 28.715 20.4571C28.7149 20.4571 28.7149 20.4571 28.7148 20.4571C28.7148 20.4571 28.7147 20.4571 28.7147 20.4571C28.7146 20.4571 28.7146 20.4571 28.7145 20.4571C28.7145 20.4571 28.7144 20.4571 28.7144 20.4571C28.7143 20.4571 28.7143 20.4571 28.7142 20.4571C28.7142 20.4571 28.7141 20.4571 28.714 20.4571C28.714 20.4571 28.7139 20.4571 28.7139 20.4571C28.7138 20.4571 28.7138 20.4571 28.7137 20.4571C28.7137 20.4571 28.7136 20.4571 28.7136 20.4571C28.7135 20.4571 28.7135 20.4571 28.7134 20.4571C28.7134 20.4571 28.7133 20.4571 28.7133 20.4571C28.7132 20.4571 28.7132 20.4571 28.7131 20.4571C28.7131 20.4571 28.713 20.4571 28.7129 20.4571C28.7129 20.4571 28.7128 20.4571 28.7128 20.4571C28.7127 20.4571 28.7127 20.4571 28.7126 20.4571C28.7126 20.4571 28.7125 20.4571 28.7125 20.4571C28.7124 20.4571 28.7124 20.4571 28.7123 20.4571C28.7122 20.4571 28.7122 20.4571 28.7121 20.4571C28.7121 20.4571 28.712 20.4571 28.712 20.4571C28.7119 20.4571 28.7119 20.4571 28.7118 20.4571C28.7118 20.4571 28.7117 20.4571 28.7117 20.4571C28.7116 20.4571 28.7115 20.4571 28.7115 20.4571C28.7114 20.4571 28.7114 20.4571 28.7113 20.4571C28.7113 20.4571 28.7112 20.4571 28.7112 20.4571C28.7111 20.4571 28.711 20.4571 28.711 20.4571C28.7109 20.4571 28.7109 20.4571 28.7108 20.4571C28.7108 20.4571 28.7107 20.4571 28.7107 20.4571C28.7106 20.4571 28.7106 20.4571 28.7105 20.4571C28.7104 20.4571 28.7104 20.4571 28.7103 20.4571C28.7103 20.4571 28.7102 20.4571 28.7102 20.4571C28.7101 20.4571 28.71 20.4571 28.71 20.4571C28.7099 20.4571 28.7099 20.4571 28.7098 20.4571C28.7098 20.4571 28.7097 20.4571 28.7097 20.4571C28.7096 20.4571 28.7095 20.4571 28.7095 20.4571C28.7094 20.4571 28.7094 20.4571 28.7093 20.4571C28.7093 20.4571 28.7092 20.4571 28.7091 20.4571C28.7091 20.4571 28.709 20.4571 28.709 20.4571C28.7089 20.4571 28.7089 20.4571 28.7088 20.4571C28.7088 20.4571 28.7087 20.4571 28.7086 20.4571C28.7086 20.4571 28.7085 20.4571 28.7085 20.4571C28.7084 20.4571 28.7084 20.4571 28.7083 20.4571C28.7082 20.4571 28.7082 20.4571 28.7081 20.4571C28.7081 20.4571 28.708 20.4571 28.708 20.4571C28.7079 20.4571 28.7078 20.4571 28.7078 20.4571C28.7077 20.4571 28.7077 20.4571 28.7076 20.4571C28.7075 20.4571 28.7075 20.4571 28.7074 20.4571C28.7074 20.4571 28.7073 20.4571 28.7073 20.4571C28.7072 20.4571 28.7071 20.4571 28.7071 20.4571C28.707 20.4571 28.707 20.4571 28.7069 20.4571C28.7069 20.4571 28.7068 20.4571 28.7067 20.4571C28.7067 20.4571 28.7066 20.4571 28.7066 20.4571C28.7065 20.4571 28.7064 20.4571 28.7064 20.4571C28.7063 20.4571 28.7063 20.4571 28.7062 20.4571C28.7062 20.4571 28.7061 20.4571 28.706 20.4571C28.706 20.4571 28.7059 20.4571 28.7059 20.4571C28.7058 20.4571 28.7057 20.4571 28.7057 20.4571C28.7056 20.4571 28.7056 20.4571 28.7055 20.4571C28.7054 20.4571 28.7054 20.4571 28.7053 20.4571C28.7053 20.4571 28.7052 20.4571 28.7051 20.4571C28.7051 20.4571 28.705 20.4571 28.705 20.4571C28.7049 20.4571 28.7049 20.4571 28.7048 20.4571C28.7047 20.4571 28.7047 20.4571 28.7046 20.4571C28.7046 20.4571 28.7045 20.4571 28.7044 20.4571C28.7044 20.4571 28.7043 20.4571 28.7043 20.4571C28.7042 20.4571 28.7041 20.4571 28.7041 20.4571C28.704 20.4571 28.704 20.4571 28.7039 20.4571C28.7038 20.4571 28.7038 20.4571 28.7037 20.4571C28.7037 20.4571 28.7036 20.4571 28.7035 20.4571C28.7035 20.4571 28.7034 20.4571 28.7034 20.4571C28.7033 20.4571 28.7032 20.4571 28.7032 20.4571C28.7031 20.4571 28.7031 20.4571 28.703 20.4571C28.7029 20.4571 28.7029 20.4571 28.7028 20.4571C28.7028 20.4571 28.7027 20.4571 28.7026 20.4571C28.7026 20.4571 28.7025 20.4571 28.7024 20.4571C28.7024 20.4571 28.7023 20.4571 28.7023 20.4571C28.7022 20.4571 28.7021 20.4571 28.7021 20.4571C28.702 20.4571 28.702 20.4571 28.7019 20.4571C28.7018 20.4571 28.7018 20.4571 28.7017 20.4571C28.7017 20.4571 28.7016 20.4571 28.7015 20.4571C28.7015 20.4571 28.7014 20.4571 28.7014 20.4571C28.7013 20.4571 28.7012 20.4571 28.7012 20.4571C28.7011 20.4571 28.701 20.4571 28.701 20.4571C28.7009 20.4571 28.7009 20.4571 28.7008 20.4571C28.7007 20.4571 28.7007 20.4571 28.7006 20.4571C28.7006 20.4571 28.7005 20.4571 28.7004 20.4571C28.7004 20.4571 28.7003 20.4571 28.7002 20.4571C28.7002 20.4571 28.7001 20.4571 28.7001 20.4571C28.7 20.4571 28.6999 20.4571 28.6999 20.4571C28.6998 20.4571 28.6998 20.4571 28.6997 20.4571C28.6996 20.4571 28.6996 20.4571 28.6995 20.4571C28.6994 20.4571 28.6994 20.4571 28.6993 20.4571C28.6993 20.4571 28.6992 20.4571 28.6991 20.4571C28.6991 20.4571 28.699 20.4571 28.699 20.4571C28.6989 20.4571 28.6988 20.4571 28.6988 20.4571C28.6987 20.4571 28.6986 20.4571 28.6986 20.4571C28.6985 20.4571 28.6985 20.4571 28.6984 20.4571C28.6983 20.4571 28.6983 20.4571 28.6982 20.4571C28.6981 20.4571 28.6981 20.4571 28.698 20.4571C28.698 20.4571 28.6979 20.4571 28.6978 20.4571C28.6978 20.4571 28.6977 20.4571 28.6976 20.4571C28.6976 20.4571 28.6975 20.4571 28.6975 20.4571C28.6974 20.4571 28.6973 20.4571 28.6973 20.4571C28.6972 20.4571 28.6972 20.4571 28.6971 20.4571C28.697 20.4571 28.697 20.4571 28.6969 20.4571C28.6968 20.4571 28.6968 20.4571 28.6967 20.4571C28.6967 20.4571 28.6966 20.4571 28.6965 20.4571C28.6965 20.4571 28.6964 20.4571 28.6963 20.4571C28.6963 20.4571 28.6962 20.4571 28.6962 20.4571C28.6961 20.4571 28.696 20.4571 28.696 20.4571C28.6959 20.4571 28.6958 20.4571 28.6958 20.4571C28.6957 20.4571 28.6956 20.4571 28.6956 20.4571C28.6955 20.4571 28.6955 20.4571 28.6954 20.4571C28.6953 20.4571 28.6953 20.4571 28.6952 20.4571C28.6951 20.4571 28.6951 20.4571 28.695 20.4571C28.695 20.4571 28.6949 20.4571 28.6948 20.4571C28.6948 20.4571 28.6947 20.4571 28.6946 20.4571C28.6946 20.4571 28.6945 20.4571 28.6945 20.4571C28.6944 20.4571 28.6943 20.4571 28.6943 20.4571C28.6942 20.4571 28.6941 20.4571 28.6941 20.4571C28.694 20.4571 28.694 20.4571 28.6939 20.4571C28.6938 20.4571 28.6938 20.4571 28.6937 20.4571C28.6936 20.4571 28.6936 20.4571 28.6935 20.4571C28.6934 20.4571 28.6934 20.4571 28.6933 20.4571C28.6933 20.4571 28.6932 20.4571 28.6931 20.4571C28.6931 20.4571 28.693 20.4571 28.6929 20.4571C28.6929 20.4571 28.6928 20.4571 28.6928 20.4571C28.6927 20.4571 28.6926 20.4571 28.6926 20.4571C28.6925 20.4571 28.6924 20.4571 28.6924 20.4571C28.6923 20.4571 28.6923 20.4571 28.6922 20.4571C28.6921 20.4571 28.6921 20.4571 28.692 20.4571C28.6919 20.4571 28.6919 20.4571 28.6918 20.4571C28.6917 20.4571 28.6917 20.4571 28.6916 20.4571C28.6916 20.4571 28.6915 20.4571 28.6914 20.4571C28.6914 20.4571 28.6913 20.4571 28.6912 20.4571C28.6912 20.4571 28.6911 20.4571 28.6911 20.4571C28.691 20.4571 28.6909 20.4571 28.6909 20.4571C28.6908 20.4571 28.6907 20.4571 28.6907 20.4571C28.6906 20.4571 28.6906 20.4571 28.6905 20.4571C28.6904 20.4571 28.6904 20.4571 28.6903 20.4571C28.6902 20.4571 28.6902 20.4571 28.6901 20.4571C28.69 20.4571 28.69 20.4571 28.6899 20.4571C28.6899 20.4571 28.6898 20.4571 28.6897 20.4571C28.6897 20.4571 28.6896 20.4571 28.6895 20.4571C28.6895 20.4571 28.6894 20.4571 28.6894 20.4571C28.6893 20.4571 28.6892 20.4571 28.6892 20.4571C28.6891 20.4571 28.689 20.4571 28.689 20.4571C28.6889 20.4571 28.6888 20.4571 28.6888 20.4571C28.6887 20.4571 28.6887 20.4571 28.6886 20.4571C28.6885 20.4571 28.6885 20.4571 28.6884 20.4571C28.6883 20.4571 28.6883 20.4571 28.6882 20.4571C28.6882 20.4571 28.6881 20.4571 28.688 20.4571C28.688 20.4571 28.6879 20.4571 28.6878 20.4571C28.6878 20.4571 28.6877 20.4571 28.6877 20.4571C28.6876 20.4571 28.6875 20.4571 28.6875 20.4571C28.6874 20.4571 28.6873 20.4571 28.6873 20.4571C28.6872 20.4571 28.6872 20.4571 28.6871 20.4571C28.687 20.4571 28.687 20.4571 28.6869 20.4571C28.6868 20.4571 28.6868 20.4571 28.6867 20.4571C28.6866 20.4571 28.6866 20.4571 28.6865 20.4571C28.6865 20.4571 28.6864 20.4571 28.6863 20.4571C28.6863 20.4571 28.6862 20.4571 28.6861 20.4571C28.6861 20.4571 28.686 20.4571 28.686 20.4571C28.6859 20.4571 28.6858 20.4571 28.6858 20.4571C28.6857 20.4571 28.6856 20.4571 28.6856 20.4571C28.6855 20.4571 28.6855 20.4571 28.6854 20.4571C28.6853 20.4571 28.6853 20.4571 28.6852 20.4571C28.6851 20.4571 28.6851 20.4571 28.685 20.4571C28.685 20.4571 28.6849 20.4571 28.6848 20.4571C28.6848 20.4571 28.6847 20.4571 28.6847 20.4571C28.6846 20.4571 28.6845 20.4571 28.6845 20.4571C28.6844 20.4571 28.6843 20.4571 28.6843 20.4571C28.6842 20.4571 28.6842 20.4571 28.6841 20.4571C28.684 20.4571 28.684 20.4571 28.6839 20.4571C28.6838 20.4571 28.6838 20.4571 28.6837 20.4571C28.6837 20.4571 28.6836 20.4571 28.6835 20.4571C28.6835 20.4571 28.6834 20.4571 28.6833 20.4571C28.6833 20.4571 28.6832 20.4571 28.6832 20.4571C28.6831 20.4571 28.683 20.4571 28.683 20.4571C28.6829 20.4571 28.6829 20.4571 28.6828 20.4571C28.6827 20.4571 28.6827 20.4571 28.6826 20.4571C28.6825 20.4571 28.6825 20.4571 28.6824 20.4571C28.6824 20.4571 28.6823 20.4571 28.6822 20.4571C28.6822 20.4571 28.6821 20.4571 28.6821 20.4571C28.682 20.4571 28.6819 20.4571 28.6819 20.4571C28.6818 20.4571 28.6817 20.4571 28.6817 20.4571C28.6816 20.4571 28.6816 20.4571 28.6815 20.4571C28.6814 20.4571 28.6814 20.4571 28.6813 20.4571C28.6813 20.4571 28.6812 20.4571 28.6811 20.4571C28.6811 20.4571 28.681 20.4571 28.6809 20.4571C28.6809 20.4571 28.6808 20.4571 28.6808 20.4571C28.6807 20.4571 28.6806 20.4571 28.6806 20.4571C28.6805 20.4571 28.6805 20.4571 28.6804 20.4571C28.6803 20.4571 28.6803 20.4571 28.6802 20.4571C28.6802 20.4571 28.6801 20.4571 28.68 20.4571C28.68 20.4571 28.6799 20.4571 28.6799 20.4571C28.6798 20.4571 28.6797 20.4571 28.6797 20.4571C28.6796 20.4571 28.6796 20.4571 28.6795 20.4571C28.6794 20.4571 28.6794 20.4571 28.6793 20.4571C28.6792 20.4571 28.6792 20.4571 28.6791 20.4571C28.6791 20.4571 28.679 20.4571 28.6789 20.4571C28.6789 20.4571 28.6788 20.4571 28.6788 20.4571C28.6787 20.4571 28.6786 20.4571 28.6786 20.4571C28.6785 20.4571 28.6785 20.4571 28.6784 20.4571C28.6783 20.4571 28.6783 20.4571 28.6782 20.4571C28.6782 20.4571 28.6781 20.4571 28.678 20.4571C28.678 20.4571 28.6779 20.4571 28.6779 20.4571C28.6778 20.4571 28.6778 20.4571 28.6777 20.4571C28.6776 20.4571 28.6776 20.4571 28.6775 20.4571C28.6775 20.4571 28.6774 20.4571 28.6773 20.4571C28.6773 20.4571 28.6772 20.4571 28.6772 20.4571C28.6771 20.4571 28.677 20.4571 28.677 20.4571C28.6769 20.4571 28.6769 20.4571 28.6768 20.4571C28.6767 20.4571 28.6767 20.4571 28.6766 20.4571C28.6766 20.4571 28.6765 20.4571 28.6764 20.4571C28.6764 20.4571 28.6763 20.4571 28.6763 20.4571C28.6762 20.4571 28.6762 20.4571 28.6761 20.4571C28.676 20.4571 28.676 20.4571 28.6759 20.4571C28.6759 20.4571 28.6758 20.4571 28.6757 20.4571C28.6757 20.4571 28.6756 20.4571 28.6756 20.4571C28.6755 20.4571 28.6755 20.4571 28.6754 20.4571C28.6753 20.4571 28.6753 20.4571 28.6752 20.4571C28.6752 20.4571 28.6751 20.4571 28.675 20.4571C28.675 20.4571 28.6749 20.4571 28.6749 20.4571C28.6748 20.4571 28.6748 20.4571 28.6747 20.4571C28.6746 20.4571 28.6746 20.4571 28.6745 20.4571C28.6745 20.4571 28.6744 20.4571 28.6744 20.4571C28.6743 20.4571 28.6742 20.4571 28.6742 20.4571C28.6741 20.4571 28.6741 20.4571 28.674 20.4571C28.674 20.4571 28.6739 20.4571 28.6738 20.4571C28.6738 20.4571 28.6737 20.4571 28.6737 20.4571C28.6736 20.4571 28.6736 20.4571 28.6735 20.4571C28.6734 20.4571 28.6734 20.4571 28.6733 20.4571C28.6733 20.4571 28.6732 20.4571 28.6732 20.4571C28.6731 20.4571 28.673 20.4571 28.673 20.4571C28.6729 20.4571 28.6729 20.4571 28.6728 20.4571C28.6728 20.4571 28.6727 20.4571 28.6727 20.4571C28.6726 20.4571 28.6725 20.4571 28.6725 20.4571C28.6724 20.4571 28.6724 20.4571 28.6723 20.4571C28.6723 20.4571 28.6722 20.4571 28.6721 20.4571C28.6721 20.4571 28.672 20.4571 28.672 20.4571C28.6719 20.4571 28.6719 20.4571 28.6718 20.4571C28.6718 20.4571 28.6717 20.4571 28.6717 20.4571C28.6716 20.4571 28.6715 20.4571 28.6715 20.4571C28.6714 20.4571 28.6714 20.4571 28.6713 20.4571C28.6713 20.4571 28.6712 20.4571 28.6712 20.4571C28.6711 20.4571 28.671 20.4571 28.671 20.4571C28.6709 20.4571 28.6709 20.4571 28.6708 20.4571C28.6708 20.4571 28.6707 20.4571 28.6707 20.4571C28.6706 20.4571 28.6706 20.4571 28.6705 20.4571C28.6704 20.4571 28.6704 20.4571 28.6703 20.4571C28.6703 20.4571 28.6702 20.4571 28.6702 20.4571C28.6701 20.4571 28.6701 20.4571 28.67 20.4571C28.67 20.4571 28.6699 20.4571 28.6699 20.4571C28.6698 20.4571 28.6697 20.4571 28.6697 20.4571C28.6696 20.4571 28.6696 20.4571 28.6695 20.4571C28.6695 20.4571 28.6694 20.4571 28.6694 20.4571C28.6693 20.4571 28.6693 20.4571 28.6692 20.4571C28.6692 20.4571 28.6691 20.4571 28.6691 20.4571C28.669 20.4571 28.6689 20.4571 28.6689 20.4571C28.6688 20.4571 28.6688 20.4571 28.6687 20.4571C28.6687 20.4571 28.6686 20.4571 28.6686 20.4571C28.6685 20.4571 28.6685 20.4571 28.6684 20.4571C28.6684 20.4571 28.6683 20.4571 28.6683 20.4571C28.6682 20.4571 28.6682 20.4571 28.6681 20.4571C28.6681 20.4571 28.668 20.4571 28.668 20.4571C28.6679 20.4571 28.6679 20.4571 28.6678 20.4571C28.6678 20.4571 28.6677 20.4571 28.6676 20.4571C28.6676 20.4571 28.6675 20.4571 28.6675 20.4571C28.6674 20.4571 28.6674 20.4571 28.6673 20.4571C28.6673 20.4571 28.6672 20.4571 28.6672 20.4571C28.6671 20.4571 28.6671 20.4571 28.667 20.4571C28.667 20.4571 28.6669 20.4571 28.6669 20.4571C28.6668 20.4571 28.6668 20.4571 28.6667 20.4571C28.6667 20.4571 28.6666 20.4571 28.6666 20.4571C28.6665 20.4571 28.6665 20.4571 28.6664 20.4571C28.6664 20.4571 28.6663 20.4571 28.6663 20.4571C28.6662 20.4571 28.6662 20.4571 28.6661 20.4571C28.6661 20.4571 28.666 20.4571 28.666 20.4571C28.6659 20.4571 28.6659 20.4571 28.6658 20.4571C28.6658 20.4571 28.6657 20.4571 28.6657 20.4571C28.6656 20.4571 28.6656 20.4571 28.6655 20.4571C28.6655 20.4571 28.6655 20.4571 28.6654 20.4571C28.6654 20.4571 28.6653 20.4571 28.6653 20.4571C28.6652 20.4571 28.6652 20.4571 28.6651 20.4571C28.6651 20.4571 28.665 20.4571 28.665 20.4571C28.6649 20.4571 28.6649 20.4571 28.6648 20.4571C28.6648 20.4571 28.6647 20.4571 28.6647 20.4571C28.6646 20.4571 28.6646 20.4571 28.6645 20.4571C28.6645 20.4571 28.6644 20.4571 28.6644 20.4571C28.6644 20.4571 28.6643 20.4571 28.6643 20.4571C28.6642 20.4571 28.6642 20.4571 28.6641 20.4571C28.6641 20.4571 28.664 20.4571 28.664 20.4571C28.6639 20.4571 28.6639 20.4571 28.6638 20.4571C28.6638 20.4571 28.6637 20.4571 28.6637 20.4571C28.6637 20.4571 28.6636 20.4571 28.6636 20.4571C28.6635 20.4571 28.6635 20.4571 28.6634 20.4571C28.6634 20.4571 28.6633 20.4571 28.6633 20.4571C28.6632 20.4571 28.6632 20.4571 28.6632 20.4571C28.6631 20.4571 28.6631 20.4571 28.663 20.4571C28.663 20.4571 28.6629 20.4571 28.6629 20.4571C28.6628 20.4571 28.6628 20.4571 28.6628 20.4571C28.6627 20.4571 28.6627 20.4571 28.6626 20.4571C28.6626 20.4571 28.6625 20.4571 28.6625 20.4571C28.6624 20.4571 28.6624 20.4571 28.6624 20.4571C28.6623 20.4571 28.6623 20.4571 28.6622 20.4571C28.6622 20.4571 28.6621 20.4571 28.6621 20.4571C28.6621 20.4571 28.662 20.4571 28.662 20.4571C28.6619 20.4571 28.6619 20.4571 28.6618 20.4571C28.6618 20.4571 28.6618 20.4571 28.6617 20.4571C28.6617 20.4571 28.6616 20.4571 28.6616 20.4571C28.6615 20.4571 28.6615 20.4571 28.6615 20.4571C28.6614 20.4571 28.6614 20.4571 28.6613 20.4571C28.6613 20.4571 28.6612 20.4571 28.6612 20.4571C28.6612 20.4571 28.6611 20.4571 28.6611 20.4571C28.661 20.4571 28.661 20.4571 28.661 20.4571C28.6609 20.4571 28.6609 20.4571 28.6608 20.4571C28.6608 20.4571 28.6607 20.4571 28.6607 20.4571C28.6607 20.4571 28.6606 20.4571 28.6606 20.4571C28.6605 20.4571 28.6605 20.4571 28.6605 20.4571C28.6604 20.4571 28.6604 20.4571 28.6603 20.4571C28.6603 20.4571 28.6603 20.4571 28.6602 20.4571C28.6602 20.4571 28.6601 20.4571 28.6601 20.4571C28.6601 20.4571 28.66 20.4571 28.66 20.4571C28.6599 20.4571 28.6599 20.4571 28.6599 20.4571C28.6598 20.4571 28.6598 20.4571 28.6598 20.4571C28.6597 20.4571 28.6597 20.4571 28.6596 20.4571C28.6596 20.4571 28.6596 20.4571 28.6595 20.4571C28.6595 20.4571 28.6594 20.4571 28.6594 20.4571C28.6594 20.4571 28.6593 20.4571 28.6593 20.4571C28.6593 20.4571 28.6592 20.4571 28.6592 20.4571C28.6591 20.4571 28.6591 20.4571 28.6591 20.4571C28.659 20.4571 28.659 20.4571 28.659 20.4571C28.6589 20.4571 28.6589 20.4571 28.6588 20.4571C28.6588 20.4571 28.6588 20.4571 28.6587 20.4571C28.6587 20.4571 28.6587 20.4571 28.6586 20.4571C28.6586 20.4571 28.6586 20.4571 28.6585 20.4571C28.6585 20.4571 28.6585 20.4571 28.6584 20.4571C28.6584 20.4571 28.6583 20.4571 28.6583 20.4571C28.6583 20.4571 28.6582 20.4571 28.6582 20.4571V22.4571C28.6582 22.4571 28.6583 22.4571 28.6583 22.4571C28.6583 22.4571 28.6584 22.4571 28.6584 22.4571C28.6585 22.4571 28.6585 22.4571 28.6585 22.4571C28.6586 22.4571 28.6586 22.4571 28.6586 22.4571C28.6587 22.4571 28.6587 22.4571 28.6587 22.4571C28.6588 22.4571 28.6588 22.4571 28.6588 22.4571C28.6589 22.4571 28.6589 22.4571 28.659 22.4571C28.659 22.4571 28.659 22.4571 28.6591 22.4571C28.6591 22.4571 28.6591 22.4571 28.6592 22.4571C28.6592 22.4571 28.6593 22.4571 28.6593 22.4571C28.6593 22.4571 28.6594 22.4571 28.6594 22.4571C28.6594 22.4571 28.6595 22.4571 28.6595 22.4571C28.6596 22.4571 28.6596 22.4571 28.6596 22.4571C28.6597 22.4571 28.6597 22.4571 28.6598 22.4571C28.6598 22.4571 28.6598 22.4571 28.6599 22.4571C28.6599 22.4571 28.6599 22.4571 28.66 22.4571C28.66 22.4571 28.6601 22.4571 28.6601 22.4571C28.6601 22.4571 28.6602 22.4571 28.6602 22.4571C28.6603 22.4571 28.6603 22.4571 28.6603 22.4571C28.6604 22.4571 28.6604 22.4571 28.6605 22.4571C28.6605 22.4571 28.6605 22.4571 28.6606 22.4571C28.6606 22.4571 28.6607 22.4571 28.6607 22.4571C28.6607 22.4571 28.6608 22.4571 28.6608 22.4571C28.6609 22.4571 28.6609 22.4571 28.661 22.4571C28.661 22.4571 28.661 22.4571 28.6611 22.4571C28.6611 22.4571 28.6612 22.4571 28.6612 22.4571C28.6612 22.4571 28.6613 22.4571 28.6613 22.4571C28.6614 22.4571 28.6614 22.4571 28.6615 22.4571C28.6615 22.4571 28.6615 22.4571 28.6616 22.4571C28.6616 22.4571 28.6617 22.4571 28.6617 22.4571C28.6618 22.4571 28.6618 22.4571 28.6618 22.4571C28.6619 22.4571 28.6619 22.4571 28.662 22.4571C28.662 22.4571 28.6621 22.4571 28.6621 22.4571C28.6621 22.4571 28.6622 22.4571 28.6622 22.4571C28.6623 22.4571 28.6623 22.4571 28.6624 22.4571C28.6624 22.4571 28.6624 22.4571 28.6625 22.4571C28.6625 22.4571 28.6626 22.4571 28.6626 22.4571C28.6627 22.4571 28.6627 22.4571 28.6628 22.4571C28.6628 22.4571 28.6628 22.4571 28.6629 22.4571C28.6629 22.4571 28.663 22.4571 28.663 22.4571C28.6631 22.4571 28.6631 22.4571 28.6632 22.4571C28.6632 22.4571 28.6632 22.4571 28.6633 22.4571C28.6633 22.4571 28.6634 22.4571 28.6634 22.4571C28.6635 22.4571 28.6635 22.4571 28.6636 22.4571C28.6636 22.4571 28.6637 22.4571 28.6637 22.4571C28.6637 22.4571 28.6638 22.4571 28.6638 22.4571C28.6639 22.4571 28.6639 22.4571 28.664 22.4571C28.664 22.4571 28.6641 22.4571 28.6641 22.4571C28.6642 22.4571 28.6642 22.4571 28.6643 22.4571C28.6643 22.4571 28.6644 22.4571 28.6644 22.4571C28.6644 22.4571 28.6645 22.4571 28.6645 22.4571C28.6646 22.4571 28.6646 22.4571 28.6647 22.4571C28.6647 22.4571 28.6648 22.4571 28.6648 22.4571C28.6649 22.4571 28.6649 22.4571 28.665 22.4571C28.665 22.4571 28.6651 22.4571 28.6651 22.4571C28.6652 22.4571 28.6652 22.4571 28.6653 22.4571C28.6653 22.4571 28.6654 22.4571 28.6654 22.4571C28.6655 22.4571 28.6655 22.4571 28.6655 22.4571C28.6656 22.4571 28.6656 22.4571 28.6657 22.4571C28.6657 22.4571 28.6658 22.4571 28.6658 22.4571C28.6659 22.4571 28.6659 22.4571 28.666 22.4571C28.666 22.4571 28.6661 22.4571 28.6661 22.4571C28.6662 22.4571 28.6662 22.4571 28.6663 22.4571C28.6663 22.4571 28.6664 22.4571 28.6664 22.4571C28.6665 22.4571 28.6665 22.4571 28.6666 22.4571C28.6666 22.4571 28.6667 22.4571 28.6667 22.4571C28.6668 22.4571 28.6668 22.4571 28.6669 22.4571C28.6669 22.4571 28.667 22.4571 28.667 22.4571C28.6671 22.4571 28.6671 22.4571 28.6672 22.4571C28.6672 22.4571 28.6673 22.4571 28.6673 22.4571C28.6674 22.4571 28.6674 22.4571 28.6675 22.4571C28.6675 22.4571 28.6676 22.4571 28.6676 22.4571C28.6677 22.4571 28.6678 22.4571 28.6678 22.4571C28.6679 22.4571 28.6679 22.4571 28.668 22.4571C28.668 22.4571 28.6681 22.4571 28.6681 22.4571C28.6682 22.4571 28.6682 22.4571 28.6683 22.4571C28.6683 22.4571 28.6684 22.4571 28.6684 22.4571C28.6685 22.4571 28.6685 22.4571 28.6686 22.4571C28.6686 22.4571 28.6687 22.4571 28.6687 22.4571C28.6688 22.4571 28.6688 22.4571 28.6689 22.4571C28.6689 22.4571 28.669 22.4571 28.6691 22.4571C28.6691 22.4571 28.6692 22.4571 28.6692 22.4571C28.6693 22.4571 28.6693 22.4571 28.6694 22.4571C28.6694 22.4571 28.6695 22.4571 28.6695 22.4571C28.6696 22.4571 28.6696 22.4571 28.6697 22.4571C28.6697 22.4571 28.6698 22.4571 28.6699 22.4571C28.6699 22.4571 28.67 22.4571 28.67 22.4571C28.6701 22.4571 28.6701 22.4571 28.6702 22.4571C28.6702 22.4571 28.6703 22.4571 28.6703 22.4571C28.6704 22.4571 28.6704 22.4571 28.6705 22.4571C28.6706 22.4571 28.6706 22.4571 28.6707 22.4571C28.6707 22.4571 28.6708 22.4571 28.6708 22.4571C28.6709 22.4571 28.6709 22.4571 28.671 22.4571C28.671 22.4571 28.6711 22.4571 28.6712 22.4571C28.6712 22.4571 28.6713 22.4571 28.6713 22.4571C28.6714 22.4571 28.6714 22.4571 28.6715 22.4571C28.6715 22.4571 28.6716 22.4571 28.6717 22.4571C28.6717 22.4571 28.6718 22.4571 28.6718 22.4571C28.6719 22.4571 28.6719 22.4571 28.672 22.4571C28.672 22.4571 28.6721 22.4571 28.6721 22.4571C28.6722 22.4571 28.6723 22.4571 28.6723 22.4571C28.6724 22.4571 28.6724 22.4571 28.6725 22.4571C28.6725 22.4571 28.6726 22.4571 28.6727 22.4571C28.6727 22.4571 28.6728 22.4571 28.6728 22.4571C28.6729 22.4571 28.6729 22.4571 28.673 22.4571C28.673 22.4571 28.6731 22.4571 28.6732 22.4571C28.6732 22.4571 28.6733 22.4571 28.6733 22.4571C28.6734 22.4571 28.6734 22.4571 28.6735 22.4571C28.6736 22.4571 28.6736 22.4571 28.6737 22.4571C28.6737 22.4571 28.6738 22.4571 28.6738 22.4571C28.6739 22.4571 28.674 22.4571 28.674 22.4571C28.6741 22.4571 28.6741 22.4571 28.6742 22.4571C28.6742 22.4571 28.6743 22.4571 28.6744 22.4571C28.6744 22.4571 28.6745 22.4571 28.6745 22.4571C28.6746 22.4571 28.6746 22.4571 28.6747 22.4571C28.6748 22.4571 28.6748 22.4571 28.6749 22.4571C28.6749 22.4571 28.675 22.4571 28.675 22.4571C28.6751 22.4571 28.6752 22.4571 28.6752 22.4571C28.6753 22.4571 28.6753 22.4571 28.6754 22.4571C28.6755 22.4571 28.6755 22.4571 28.6756 22.4571C28.6756 22.4571 28.6757 22.4571 28.6757 22.4571C28.6758 22.4571 28.6759 22.4571 28.6759 22.4571C28.676 22.4571 28.676 22.4571 28.6761 22.4571C28.6762 22.4571 28.6762 22.4571 28.6763 22.4571C28.6763 22.4571 28.6764 22.4571 28.6764 22.4571C28.6765 22.4571 28.6766 22.4571 28.6766 22.4571C28.6767 22.4571 28.6767 22.4571 28.6768 22.4571C28.6769 22.4571 28.6769 22.4571 28.677 22.4571C28.677 22.4571 28.6771 22.4571 28.6772 22.4571C28.6772 22.4571 28.6773 22.4571 28.6773 22.4571C28.6774 22.4571 28.6775 22.4571 28.6775 22.4571C28.6776 22.4571 28.6776 22.4571 28.6777 22.4571C28.6778 22.4571 28.6778 22.4571 28.6779 22.4571C28.6779 22.4571 28.678 22.4571 28.678 22.4571C28.6781 22.4571 28.6782 22.4571 28.6782 22.4571C28.6783 22.4571 28.6783 22.4571 28.6784 22.4571C28.6785 22.4571 28.6785 22.4571 28.6786 22.4571C28.6786 22.4571 28.6787 22.4571 28.6788 22.4571C28.6788 22.4571 28.6789 22.4571 28.6789 22.4571C28.679 22.4571 28.6791 22.4571 28.6791 22.4571C28.6792 22.4571 28.6792 22.4571 28.6793 22.4571C28.6794 22.4571 28.6794 22.4571 28.6795 22.4571C28.6796 22.4571 28.6796 22.4571 28.6797 22.4571C28.6797 22.4571 28.6798 22.4571 28.6799 22.4571C28.6799 22.4571 28.68 22.4571 28.68 22.4571C28.6801 22.4571 28.6802 22.4571 28.6802 22.4571C28.6803 22.4571 28.6803 22.4571 28.6804 22.4571C28.6805 22.4571 28.6805 22.4571 28.6806 22.4571C28.6806 22.4571 28.6807 22.4571 28.6808 22.4571C28.6808 22.4571 28.6809 22.4571 28.6809 22.4571C28.681 22.4571 28.6811 22.4571 28.6811 22.4571C28.6812 22.4571 28.6813 22.4571 28.6813 22.4571C28.6814 22.4571 28.6814 22.4571 28.6815 22.4571C28.6816 22.4571 28.6816 22.4571 28.6817 22.4571C28.6817 22.4571 28.6818 22.4571 28.6819 22.4571C28.6819 22.4571 28.682 22.4571 28.6821 22.4571C28.6821 22.4571 28.6822 22.4571 28.6822 22.4571C28.6823 22.4571 28.6824 22.4571 28.6824 22.4571C28.6825 22.4571 28.6825 22.4571 28.6826 22.4571C28.6827 22.4571 28.6827 22.4571 28.6828 22.4571C28.6829 22.4571 28.6829 22.4571 28.683 22.4571C28.683 22.4571 28.6831 22.4571 28.6832 22.4571C28.6832 22.4571 28.6833 22.4571 28.6833 22.4571C28.6834 22.4571 28.6835 22.4571 28.6835 22.4571C28.6836 22.4571 28.6837 22.4571 28.6837 22.4571C28.6838 22.4571 28.6838 22.4571 28.6839 22.4571C28.684 22.4571 28.684 22.4571 28.6841 22.4571C28.6842 22.4571 28.6842 22.4571 28.6843 22.4571C28.6843 22.4571 28.6844 22.4571 28.6845 22.4571C28.6845 22.4571 28.6846 22.4571 28.6847 22.4571C28.6847 22.4571 28.6848 22.4571 28.6848 22.4571C28.6849 22.4571 28.685 22.4571 28.685 22.4571C28.6851 22.4571 28.6851 22.4571 28.6852 22.4571C28.6853 22.4571 28.6853 22.4571 28.6854 22.4571C28.6855 22.4571 28.6855 22.4571 28.6856 22.4571C28.6856 22.4571 28.6857 22.4571 28.6858 22.4571C28.6858 22.4571 28.6859 22.4571 28.686 22.4571C28.686 22.4571 28.6861 22.4571 28.6861 22.4571C28.6862 22.4571 28.6863 22.4571 28.6863 22.4571C28.6864 22.4571 28.6865 22.4571 28.6865 22.4571C28.6866 22.4571 28.6866 22.4571 28.6867 22.4571C28.6868 22.4571 28.6868 22.4571 28.6869 22.4571C28.687 22.4571 28.687 22.4571 28.6871 22.4571C28.6872 22.4571 28.6872 22.4571 28.6873 22.4571C28.6873 22.4571 28.6874 22.4571 28.6875 22.4571C28.6875 22.4571 28.6876 22.4571 28.6877 22.4571C28.6877 22.4571 28.6878 22.4571 28.6878 22.4571C28.6879 22.4571 28.688 22.4571 28.688 22.4571C28.6881 22.4571 28.6882 22.4571 28.6882 22.4571C28.6883 22.4571 28.6883 22.4571 28.6884 22.4571C28.6885 22.4571 28.6885 22.4571 28.6886 22.4571C28.6887 22.4571 28.6887 22.4571 28.6888 22.4571C28.6888 22.4571 28.6889 22.4571 28.689 22.4571C28.689 22.4571 28.6891 22.4571 28.6892 22.4571C28.6892 22.4571 28.6893 22.4571 28.6894 22.4571C28.6894 22.4571 28.6895 22.4571 28.6895 22.4571C28.6896 22.4571 28.6897 22.4571 28.6897 22.4571C28.6898 22.4571 28.6899 22.4571 28.6899 22.4571C28.69 22.4571 28.69 22.4571 28.6901 22.4571C28.6902 22.4571 28.6902 22.4571 28.6903 22.4571C28.6904 22.4571 28.6904 22.4571 28.6905 22.4571C28.6906 22.4571 28.6906 22.4571 28.6907 22.4571C28.6907 22.4571 28.6908 22.4571 28.6909 22.4571C28.6909 22.4571 28.691 22.4571 28.6911 22.4571C28.6911 22.4571 28.6912 22.4571 28.6912 22.4571C28.6913 22.4571 28.6914 22.4571 28.6914 22.4571C28.6915 22.4571 28.6916 22.4571 28.6916 22.4571C28.6917 22.4571 28.6917 22.4571 28.6918 22.4571C28.6919 22.4571 28.6919 22.4571 28.692 22.4571C28.6921 22.4571 28.6921 22.4571 28.6922 22.4571C28.6923 22.4571 28.6923 22.4571 28.6924 22.4571C28.6924 22.4571 28.6925 22.4571 28.6926 22.4571C28.6926 22.4571 28.6927 22.4571 28.6928 22.4571C28.6928 22.4571 28.6929 22.4571 28.6929 22.4571C28.693 22.4571 28.6931 22.4571 28.6931 22.4571C28.6932 22.4571 28.6933 22.4571 28.6933 22.4571C28.6934 22.4571 28.6934 22.4571 28.6935 22.4571C28.6936 22.4571 28.6936 22.4571 28.6937 22.4571C28.6938 22.4571 28.6938 22.4571 28.6939 22.4571C28.694 22.4571 28.694 22.4571 28.6941 22.4571C28.6941 22.4571 28.6942 22.4571 28.6943 22.4571C28.6943 22.4571 28.6944 22.4571 28.6945 22.4571C28.6945 22.4571 28.6946 22.4571 28.6946 22.4571C28.6947 22.4571 28.6948 22.4571 28.6948 22.4571C28.6949 22.4571 28.695 22.4571 28.695 22.4571C28.6951 22.4571 28.6951 22.4571 28.6952 22.4571C28.6953 22.4571 28.6953 22.4571 28.6954 22.4571C28.6955 22.4571 28.6955 22.4571 28.6956 22.4571C28.6956 22.4571 28.6957 22.4571 28.6958 22.4571C28.6958 22.4571 28.6959 22.4571 28.696 22.4571C28.696 22.4571 28.6961 22.4571 28.6962 22.4571C28.6962 22.4571 28.6963 22.4571 28.6963 22.4571C28.6964 22.4571 28.6965 22.4571 28.6965 22.4571C28.6966 22.4571 28.6967 22.4571 28.6967 22.4571C28.6968 22.4571 28.6968 22.4571 28.6969 22.4571C28.697 22.4571 28.697 22.4571 28.6971 22.4571C28.6972 22.4571 28.6972 22.4571 28.6973 22.4571C28.6973 22.4571 28.6974 22.4571 28.6975 22.4571C28.6975 22.4571 28.6976 22.4571 28.6976 22.4571C28.6977 22.4571 28.6978 22.4571 28.6978 22.4571C28.6979 22.4571 28.698 22.4571 28.698 22.4571C28.6981 22.4571 28.6981 22.4571 28.6982 22.4571C28.6983 22.4571 28.6983 22.4571 28.6984 22.4571C28.6985 22.4571 28.6985 22.4571 28.6986 22.4571C28.6986 22.4571 28.6987 22.4571 28.6988 22.4571C28.6988 22.4571 28.6989 22.4571 28.699 22.4571C28.699 22.4571 28.6991 22.4571 28.6991 22.4571C28.6992 22.4571 28.6993 22.4571 28.6993 22.4571C28.6994 22.4571 28.6994 22.4571 28.6995 22.4571C28.6996 22.4571 28.6996 22.4571 28.6997 22.4571C28.6998 22.4571 28.6998 22.4571 28.6999 22.4571C28.6999 22.4571 28.7 22.4571 28.7001 22.4571C28.7001 22.4571 28.7002 22.4571 28.7002 22.4571C28.7003 22.4571 28.7004 22.4571 28.7004 22.4571C28.7005 22.4571 28.7006 22.4571 28.7006 22.4571C28.7007 22.4571 28.7007 22.4571 28.7008 22.4571C28.7009 22.4571 28.7009 22.4571 28.701 22.4571C28.701 22.4571 28.7011 22.4571 28.7012 22.4571C28.7012 22.4571 28.7013 22.4571 28.7014 22.4571C28.7014 22.4571 28.7015 22.4571 28.7015 22.4571C28.7016 22.4571 28.7017 22.4571 28.7017 22.4571C28.7018 22.4571 28.7018 22.4571 28.7019 22.4571C28.702 22.4571 28.702 22.4571 28.7021 22.4571C28.7021 22.4571 28.7022 22.4571 28.7023 22.4571C28.7023 22.4571 28.7024 22.4571 28.7024 22.4571C28.7025 22.4571 28.7026 22.4571 28.7026 22.4571C28.7027 22.4571 28.7028 22.4571 28.7028 22.4571C28.7029 22.4571 28.7029 22.4571 28.703 22.4571C28.7031 22.4571 28.7031 22.4571 28.7032 22.4571C28.7032 22.4571 28.7033 22.4571 28.7034 22.4571C28.7034 22.4571 28.7035 22.4571 28.7035 22.4571C28.7036 22.4571 28.7037 22.4571 28.7037 22.4571C28.7038 22.4571 28.7038 22.4571 28.7039 22.4571C28.704 22.4571 28.704 22.4571 28.7041 22.4571C28.7041 22.4571 28.7042 22.4571 28.7043 22.4571C28.7043 22.4571 28.7044 22.4571 28.7044 22.4571C28.7045 22.4571 28.7046 22.4571 28.7046 22.4571C28.7047 22.4571 28.7047 22.4571 28.7048 22.4571C28.7049 22.4571 28.7049 22.4571 28.705 22.4571C28.705 22.4571 28.7051 22.4571 28.7051 22.4571C28.7052 22.4571 28.7053 22.4571 28.7053 22.4571C28.7054 22.4571 28.7054 22.4571 28.7055 22.4571C28.7056 22.4571 28.7056 22.4571 28.7057 22.4571C28.7057 22.4571 28.7058 22.4571 28.7059 22.4571C28.7059 22.4571 28.706 22.4571 28.706 22.4571C28.7061 22.4571 28.7062 22.4571 28.7062 22.4571C28.7063 22.4571 28.7063 22.4571 28.7064 22.4571C28.7064 22.4571 28.7065 22.4571 28.7066 22.4571C28.7066 22.4571 28.7067 22.4571 28.7067 22.4571C28.7068 22.4571 28.7069 22.4571 28.7069 22.4571C28.707 22.4571 28.707 22.4571 28.7071 22.4571C28.7071 22.4571 28.7072 22.4571 28.7073 22.4571C28.7073 22.4571 28.7074 22.4571 28.7074 22.4571C28.7075 22.4571 28.7075 22.4571 28.7076 22.4571C28.7077 22.4571 28.7077 22.4571 28.7078 22.4571C28.7078 22.4571 28.7079 22.4571 28.708 22.4571C28.708 22.4571 28.7081 22.4571 28.7081 22.4571C28.7082 22.4571 28.7082 22.4571 28.7083 22.4571C28.7084 22.4571 28.7084 22.4571 28.7085 22.4571C28.7085 22.4571 28.7086 22.4571 28.7086 22.4571C28.7087 22.4571 28.7088 22.4571 28.7088 22.4571C28.7089 22.4571 28.7089 22.4571 28.709 22.4571C28.709 22.4571 28.7091 22.4571 28.7091 22.4571C28.7092 22.4571 28.7093 22.4571 28.7093 22.4571C28.7094 22.4571 28.7094 22.4571 28.7095 22.4571C28.7095 22.4571 28.7096 22.4571 28.7097 22.4571C28.7097 22.4571 28.7098 22.4571 28.7098 22.4571C28.7099 22.4571 28.7099 22.4571 28.71 22.4571C28.71 22.4571 28.7101 22.4571 28.7102 22.4571C28.7102 22.4571 28.7103 22.4571 28.7103 22.4571C28.7104 22.4571 28.7104 22.4571 28.7105 22.4571C28.7106 22.4571 28.7106 22.4571 28.7107 22.4571C28.7107 22.4571 28.7108 22.4571 28.7108 22.4571C28.7109 22.4571 28.7109 22.4571 28.711 22.4571C28.711 22.4571 28.7111 22.4571 28.7112 22.4571C28.7112 22.4571 28.7113 22.4571 28.7113 22.4571C28.7114 22.4571 28.7114 22.4571 28.7115 22.4571C28.7115 22.4571 28.7116 22.4571 28.7117 22.4571C28.7117 22.4571 28.7118 22.4571 28.7118 22.4571C28.7119 22.4571 28.7119 22.4571 28.712 22.4571C28.712 22.4571 28.7121 22.4571 28.7121 22.4571C28.7122 22.4571 28.7122 22.4571 28.7123 22.4571C28.7124 22.4571 28.7124 22.4571 28.7125 22.4571C28.7125 22.4571 28.7126 22.4571 28.7126 22.4571C28.7127 22.4571 28.7127 22.4571 28.7128 22.4571C28.7128 22.4571 28.7129 22.4571 28.7129 22.4571C28.713 22.4571 28.7131 22.4571 28.7131 22.4571C28.7132 22.4571 28.7132 22.4571 28.7133 22.4571C28.7133 22.4571 28.7134 22.4571 28.7134 22.4571C28.7135 22.4571 28.7135 22.4571 28.7136 22.4571C28.7136 22.4571 28.7137 22.4571 28.7137 22.4571C28.7138 22.4571 28.7138 22.4571 28.7139 22.4571C28.7139 22.4571 28.714 22.4571 28.714 22.4571C28.7141 22.4571 28.7142 22.4571 28.7142 22.4571C28.7143 22.4571 28.7143 22.4571 28.7144 22.4571C28.7144 22.4571 28.7145 22.4571 28.7145 22.4571C28.7146 22.4571 28.7146 22.4571 28.7147 22.4571C28.7147 22.4571 28.7148 22.4571 28.7148 22.4571C28.7149 22.4571 28.7149 22.4571 28.715 22.4571C28.715 22.4571 28.7151 22.4571 28.7151 22.4571C28.7152 22.4571 28.7152 22.4571 28.7153 22.4571C28.7153 22.4571 28.7154 22.4571 28.7154 22.4571C28.7155 22.4571 28.7155 22.4571 28.7156 22.4571C28.7156 22.4571 28.7157 22.4571 28.7157 22.4571C28.7158 22.4571 28.7158 22.4571 28.7159 22.4571C28.7159 22.4571 28.716 22.4571 28.716 22.4571C28.7161 22.4571 28.7161 22.4571 28.7162 22.4571C28.7162 22.4571 28.7163 22.4571 28.7163 22.4571C28.7164 22.4571 28.7164 22.4571 28.7165 22.4571C28.7165 22.4571 28.7166 22.4571 28.7166 22.4571C28.7167 22.4571 28.7167 22.4571 28.7168 22.4571C28.7168 22.4571 28.7169 22.4571 28.7169 22.4571C28.717 22.4571 28.717 22.4571 28.7171 22.4571C28.7171 22.4571 28.7172 22.4571 28.7172 22.4571C28.7173 22.4571 28.7173 22.4571 28.7174 22.4571C28.7174 22.4571 28.7175 22.4571 28.7175 22.4571C28.7175 22.4571 28.7176 22.4571 28.7176 22.4571C28.7177 22.4571 28.7177 22.4571 28.7178 22.4571C28.7178 22.4571 28.7179 22.4571 28.7179 22.4571C28.718 22.4571 28.718 22.4571 28.7181 22.4571C28.7181 22.4571 28.7182 22.4571 28.7182 22.4571C28.7183 22.4571 28.7183 22.4571 28.7183 22.4571C28.7184 22.4571 28.7184 22.4571 28.7185 22.4571C28.7185 22.4571 28.7186 22.4571 28.7186 22.4571C28.7187 22.4571 28.7187 22.4571 28.7188 22.4571C28.7188 22.4571 28.7189 22.4571 28.7189 22.4571C28.7189 22.4571 28.719 22.4571 28.719 22.4571C28.7191 22.4571 28.7191 22.4571 28.7192 22.4571C28.7192 22.4571 28.7193 22.4571 28.7193 22.4571C28.7194 22.4571 28.7194 22.4571 28.7194 22.4571C28.7195 22.4571 28.7195 22.4571 28.7196 22.4571C28.7196 22.4571 28.7197 22.4571 28.7197 22.4571C28.7198 22.4571 28.7198 22.4571 28.7198 22.4571C28.7199 22.4571 28.7199 22.4571 28.72 22.4571C28.72 22.4571 28.7201 22.4571 28.7201 22.4571C28.7202 22.4571 28.7202 22.4571 28.7202 22.4571C28.7203 22.4571 28.7203 22.4571 28.7204 22.4571C28.7204 22.4571 28.7205 22.4571 28.7205 22.4571C28.7205 22.4571 28.7206 22.4571 28.7206 22.4571C28.7207 22.4571 28.7207 22.4571 28.7208 22.4571C28.7208 22.4571 28.7208 22.4571 28.7209 22.4571C28.7209 22.4571 28.721 22.4571 28.721 22.4571C28.7211 22.4571 28.7211 22.4571 28.7211 22.4571C28.7212 22.4571 28.7212 22.4571 28.7213 22.4571C28.7213 22.4571 28.7213 22.4571 28.7214 22.4571C28.7214 22.4571 28.7215 22.4571 28.7215 22.4571C28.7215 22.4571 28.7216 22.4571 28.7216 22.4571C28.7217 22.4571 28.7217 22.4571 28.7218 22.4571C28.7218 22.4571 28.7218 22.4571 28.7219 22.4571C28.7219 22.4571 28.722 22.4571 28.722 22.4571C28.722 22.4571 28.7221 22.4571 28.7221 22.4571C28.7222 22.4571 28.7222 22.4571 28.7222 22.4571C28.7223 22.4571 28.7223 22.4571 28.7224 22.4571C28.7224 22.4571 28.7224 22.4571 28.7225 22.4571C28.7225 22.4571 28.7225 22.4571 28.7226 22.4571C28.7226 22.4571 28.7227 22.4571 28.7227 22.4571C28.7227 22.4571 28.7228 22.4571 28.7228 22.4571C28.7229 22.4571 28.7229 22.4571 28.7229 22.4571C28.723 22.4571 28.723 22.4571 28.723 22.4571C28.7231 22.4571 28.7231 22.4571 28.7232 22.4571C28.7232 22.4571 28.7232 22.4571 28.7233 22.4571C28.7233 22.4571 28.7233 22.4571 28.7234 22.4571C28.7234 22.4571 28.7235 22.4571 28.7235 22.4571C28.7235 22.4571 28.7236 22.4571 28.7236 22.4571C28.7236 22.4571 28.7237 22.4571 28.7237 22.4571C28.7238 22.4571 28.7238 22.4571 28.7238 22.4571C28.7239 22.4571 28.7239 22.4571 28.7239 22.4571C28.724 22.4571 28.724 22.4571 28.724 22.4571C28.7241 22.4571 28.7241 22.4571 28.7241 22.4571C28.7242 22.4571 28.7242 22.4571 28.7243 22.4571C28.7243 22.4571 28.7243 22.4571 28.7244 22.4571C28.7244 22.4571 28.7244 22.4571 28.7245 22.4571C28.7245 22.4571 28.7245 22.4571 28.7246 22.4571C28.7246 22.4571 28.7246 22.4571 28.7247 22.4571C28.7247 22.4571 28.7247 22.4571 28.7248 22.4571C28.7248 22.4571 28.7248 22.4571 28.7249 22.4571C28.7249 22.4571 28.7249 22.4571 28.725 22.4571C28.725 22.4571 28.725 22.4571 28.7251 22.4571C28.7251 22.4571 28.7251 22.4571 28.7252 22.4571C28.7252 22.4571 28.7252 22.4571 28.7253 22.4571C28.7253 22.4571 28.7253 22.4571 28.7254 22.4571C28.7254 22.4571 28.7254 22.4571 28.7254 22.4571C28.7255 22.4571 28.7255 22.4571 28.7255 22.4571C28.7256 22.4571 28.7256 22.4571 28.7256 22.4571C28.7257 22.4571 28.7257 22.4571 28.7257 22.4571C28.7258 22.4571 28.7258 22.4571 28.7258 22.4571C28.7258 22.4571 28.7259 22.4571 28.7259 22.4571C28.7259 22.4571 28.726 22.4571 28.726 22.4571C28.726 22.4571 28.7261 22.4571 28.7261 22.4571C28.7261 22.4571 28.7261 22.4571 28.7262 22.4571C28.7262 22.4571 28.7262 22.4571 28.7263 22.4571C28.7263 22.4571 28.7263 22.4571 28.7263 22.4571C28.7264 22.4571 28.7264 22.4571 28.7264 22.4571C28.7265 22.4571 28.7265 22.4571 28.7265 22.4571C28.7265 22.4571 28.7266 22.4571 28.7266 22.4571C28.7266 22.4571 28.7267 22.4571 28.7267 22.4571C28.7267 22.4571 28.7267 22.4571 28.7268 22.4571C28.7268 22.4571 28.7268 22.4571 28.7268 22.4571C28.7269 22.4571 28.7269 22.4571 28.7269 22.4571C28.727 22.4571 28.727 22.4571 28.727 22.4571C28.727 22.4571 28.7271 22.4571 28.7271 22.4571C28.7271 22.4571 28.7271 22.4571 28.7272 22.4571C28.7272 22.4571 28.7272 22.4571 28.7272 22.4571C28.7273 22.4571 28.7273 22.4571 28.7273 22.4571C28.7273 22.4571 28.7274 22.4571 28.7274 22.4571C28.7274 22.4571 28.7274 22.4571 28.7275 22.4571C28.7275 22.4571 28.7275 22.4571 28.7275 22.4571C28.7276 22.4571 28.7276 22.4571 28.7276 22.4571C28.7276 22.4571 28.7276 22.4571 28.7277 22.4571C28.7277 22.4571 28.7277 22.4571 28.7277 22.4571C28.7278 22.4571 28.7278 22.4571 28.7278 22.4571C28.7278 22.4571 28.7279 22.4571 28.7279 22.4571C28.7279 22.4571 28.7279 22.4571 28.7279 22.4571C28.728 22.4571 28.728 22.4571 28.728 22.4571C28.728 22.4571 28.728 22.4571 28.7281 22.4571C28.7281 22.4571 28.7281 22.4571 28.7281 22.4571C28.7282 22.4571 28.7282 22.4571 28.7282 22.4571C28.7282 22.4571 28.7282 22.4571 28.7283 22.4571C28.7283 22.4571 28.7283 22.4571 28.7283 22.4571C28.7283 22.4571 28.7284 22.4571 28.7284 22.4571C28.7284 22.4571 28.7284 22.4571 28.7284 22.4571C28.7285 22.4571 28.7285 22.4571 28.7285 22.4571C28.7285 22.4571 28.7285 22.4571 28.7285 22.4571C28.7286 22.4571 28.7286 22.4571 28.7286 22.4571C28.7286 22.4571 28.7286 22.4571 28.7287 22.4571C28.7287 22.4571 28.7287 22.4571 28.7287 22.4571C28.7287 22.4571 28.7287 22.4571 28.7288 22.4571C28.7288 22.4571 28.7288 22.4571 28.7288 22.4571C28.7288 22.4571 28.7288 22.4571 28.7289 22.4571C28.7289 22.4571 28.7289 22.4571 28.7289 22.4571C28.7289 22.4571 28.7289 22.4571 28.729 22.4571C28.729 22.4571 28.729 22.4571 28.729 22.4571C28.729 22.4571 28.729 22.4571 28.7291 22.4571C28.7291 22.4571 28.7291 22.4571 28.7291 22.4571C28.7291 22.4571 28.7291 22.4571 28.7291 22.4571C28.7292 22.4571 28.7292 22.4571 28.7292 22.4571C28.7292 22.4571 28.7292 22.4571 28.7292 22.4571C28.7292 22.4571 28.7292 22.4571 28.7293 22.4571C28.7293 22.4571 28.7293 22.4571 28.7293 22.4571C28.7293 22.4571 28.7293 22.4571 28.7293 22.4571C28.7294 22.4571 28.7294 22.4571 28.7294 22.4571C28.7294 22.4571 28.7294 22.4571 28.7294 22.4571C28.7294 22.4571 28.7294 22.4571 28.7294 22.4571C28.7295 22.4571 28.7295 22.4571 28.7295 22.4571C28.7295 22.4571 28.7295 22.4571 28.7295 22.4571C28.7295 22.4571 28.7295 22.4571 28.7295 22.4571C28.7296 22.4571 28.7296 22.4571 28.7296 22.4571C28.7296 22.4571 28.7296 22.4571 28.7296 22.4571C28.7296 22.4571 28.7296 22.4571 28.7296 22.4571C28.7296 22.4571 28.7296 22.4571 28.7297 22.4571C28.7297 22.4571 28.7297 22.4571 28.7297 22.4571C28.7297 22.4571 28.7297 22.4571 28.7297 22.4571C28.7297 22.4571 28.7297 22.4571 28.7297 22.4571C28.7297 22.4571 28.7297 22.4571 28.7298 22.4571C28.7298 22.4571 28.7298 22.4571 28.7298 22.4571C28.7298 22.4571 28.7298 22.4571 28.7298 22.4571C28.7298 22.4571 28.7298 22.4571 28.7298 22.4571C28.7298 22.4571 28.7298 22.4571 28.7298 22.4571C28.7298 22.4571 28.7298 22.4571 28.7298 22.4571C28.7299 22.4571 28.7299 22.4571 28.7299 22.4571C28.7299 22.4571 28.7299 22.4571 28.7299 22.4571C28.7299 22.4571 28.7299 22.4571 28.7299 22.4571C28.7299 22.4571 28.7299 22.4571 28.7299 22.4571C28.7299 22.4571 28.7299 22.4571 28.7299 22.4571C28.7299 22.4571 28.7299 22.4571 28.7299 22.4571C28.7299 22.4571 28.7299 22.4571 28.7299 22.4571C28.7299 22.4571 28.7299 22.4571 28.7299 22.4571C28.7299 22.4571 28.7299 22.4571 28.7299 22.4571C28.7299 22.4571 28.7299 22.4571 28.7299 22.4571C28.7299 22.4571 28.7299 22.4571 28.7299 22.4571C28.7299 22.4571 28.7299 22.4571 28.7299 22.4571C28.7299 22.4571 28.7299 22.4571 28.7299 21.4571ZM29.1054 22.3516C29.2887 22.2599 29.3985 22.149 29.4371 22.1104L28.0228 20.6962C28.011 20.7081 28.0383 20.6796 28.0761 20.6494C28.1198 20.6144 28.1658 20.5853 28.211 20.5627L29.1054 22.3516Z" fill="#87BE33" mask="url(#path-4-inside-1_4726_18986)"/>
<path d="M27.062 21.943C27.5723 21.6529 28.0995 21.4909 28.6587 21.4571C28.6642 21.4571 28.6696 21.4554 28.6755 21.4536C28.6892 21.4495 28.7055 21.4445 28.7305 21.4571M27.062 21.943L25.8953 23.0347L25.8955 23.0344L25.8248 22.9637L25.7538 23.0342L25.7541 23.0344L23.4203 25.3682L23.3496 25.4389L23.4203 25.5096L23.9784 26.0677L24.0491 26.1384L24.1198 26.0677L24.9122 25.2753C24.9104 25.3237 24.9092 25.3719 24.9089 25.4201M27.062 21.943L27.0434 21.9244L26.9727 21.9951L27.0242 22.0809C27.0313 22.0766 27.0385 22.0723 27.0457 22.0681L27.2418 22.2642L27.7081 22.7305C28.0489 22.5691 28.3897 22.4794 28.7305 22.4615C28.9816 22.4256 29.2327 22.4256 29.5018 22.4794M27.062 21.943L26.5961 27.2325C26.6858 27.3402 26.7754 27.4478 26.8831 27.5554C27.0265 27.6989 27.17 27.8244 27.3315 27.95C27.8157 28.2728 28.3897 28.4343 28.9995 28.4343C29.8246 28.4343 30.5241 28.1473 31.116 27.5554C31.7079 26.9635 31.9949 26.264 31.9949 25.4389C31.9949 24.6138 31.7079 23.8964 31.116 23.3224C30.7214 22.9099 30.2551 22.6408 29.6991 22.5332C29.6622 22.5087 29.617 22.5009 29.5691 22.4927C29.547 22.489 29.5244 22.4851 29.5018 22.4794M28.7305 21.4571C28.9816 21.4212 29.2327 21.4391 29.5018 21.475M28.7305 21.4571L28.7164 21.3581C28.7247 21.3569 28.7331 21.3557 28.7414 21.3546M28.7305 21.4571L28.7752 21.3676C28.7642 21.3621 28.753 21.3578 28.7414 21.3546M29.5018 21.475C29.5735 21.475 29.6452 21.4929 29.6991 21.5109M29.5018 21.475V21.375C29.5041 21.375 29.5064 21.375 29.5087 21.375M29.5018 21.475L29.515 21.3759C29.5129 21.3756 29.5108 21.3753 29.5087 21.375M29.6991 21.5109C30.5241 21.6364 31.2236 22.0131 31.8155 22.605C32.6047 23.3942 32.9993 24.3448 32.9993 25.4389C32.9993 26.533 32.6047 27.4657 31.8155 28.2549C31.0263 29.0441 30.0936 29.4387 28.9995 29.4387C27.9054 29.4387 27.0445 29.08 26.2732 28.3446M29.6991 21.5109L29.7141 21.412C29.7169 21.4124 29.7196 21.4128 29.7224 21.4133M29.6991 21.5109L29.7307 21.416C29.728 21.4151 29.7252 21.4142 29.7224 21.4133M26.2732 28.3446C26.2374 28.3266 26.2015 28.2908 26.1656 28.2549C25.9504 28.0397 25.771 27.8065 25.6275 27.5554M26.2732 28.3446L26.2285 28.434C26.2235 28.4315 26.2186 28.4289 26.2137 28.426M26.2732 28.3446L26.2042 28.417C26.2074 28.42 26.2106 28.423 26.2137 28.426M25.6275 27.5554C25.4661 27.3222 25.3585 27.089 25.2509 26.8379C25.0706 26.3463 24.9951 25.8397 25.0108 25.3182L24.9089 25.4201M25.6275 27.5554L25.5453 27.6123C25.5445 27.6111 25.5437 27.6099 25.5428 27.6087M25.6275 27.5554L25.5407 27.605C25.5414 27.6063 25.5421 27.6075 25.5428 27.6087M24.9089 25.4201C24.9054 25.9167 24.9841 26.401 25.157 26.8724L25.1568 26.8724L25.1589 26.8773C25.2666 27.1284 25.3768 27.3682 25.5428 27.6087M24.9089 25.4201L24.1198 26.2091L24.0491 26.2798L23.9784 26.2091L23.2789 25.5096L23.2082 25.4389L23.2789 25.3682L25.7541 22.893L25.8251 22.822L25.8958 22.8932L28.3531 25.3685L28.4233 25.4392L28.3528 25.5096L27.6533 26.2091L27.5826 26.2798L27.5119 26.2091L26.1487 24.846C26.0534 25.2918 26.0672 25.7371 26.1901 26.1831C26.2946 26.5486 26.4504 26.877 26.6742 27.1701C26.7638 27.2775 26.8503 27.3813 26.9538 27.4847C27.0933 27.6242 27.2327 27.7464 27.39 27.8688C27.8556 28.1783 28.4088 28.3343 28.9995 28.3343C29.7981 28.3343 30.4722 28.0578 31.0453 27.4847C31.6184 26.9116 31.8949 26.2375 31.8949 25.4389C31.8949 24.6394 31.6178 23.9483 31.0464 23.3942L31.0437 23.3916L31.0438 23.3915C30.6622 22.9927 30.2141 22.7348 29.68 22.6314L29.6603 22.6276L29.6436 22.6164C29.6333 22.6096 29.6176 22.6037 29.5875 22.5977C29.5805 22.5962 29.5707 22.5946 29.5594 22.5926C29.5356 22.5885 29.5051 22.5832 29.48 22.577M29.5018 22.4794L29.4775 22.5764C29.4783 22.5766 29.4791 22.5768 29.48 22.577M29.5018 22.4794L29.4821 22.5775C29.4814 22.5773 29.4807 22.5772 29.48 22.577M29.48 22.577C29.2242 22.5262 28.9852 22.5261 28.7446 22.5605L28.7358 22.5617L28.7357 22.5613C28.4093 22.5785 28.0812 22.6645 27.7509 22.8209L27.6872 22.8511L27.6374 22.8012L27.1711 22.3349L26.902 22.0659L26.8115 21.9753L26.9213 21.9094C27.4705 21.5798 28.0404 21.3952 28.6477 21.3575M28.6477 21.3575C28.6462 21.358 28.6452 21.3583 28.6446 21.3585C28.6444 21.3585 28.6443 21.3586 28.6443 21.3586C28.6435 21.3588 28.6432 21.3589 28.6432 21.3589C28.6432 21.3588 28.647 21.3578 28.6527 21.3573C28.6545 21.3572 28.6566 21.3571 28.6587 21.3571V21.3569L28.6527 21.3572C28.651 21.3573 28.6494 21.3574 28.6477 21.3575ZM28.6477 21.3575C28.6522 21.3562 28.6604 21.3538 28.6683 21.3523C28.6819 21.3496 28.6989 21.3478 28.7186 21.3502C28.7263 21.3511 28.7339 21.3526 28.7414 21.3546M28.7414 21.3546C28.9956 21.3217 29.2475 21.3404 29.5087 21.375M29.5087 21.375C29.5891 21.3761 29.6658 21.395 29.7224 21.4133M29.7224 21.4133C30.5667 21.5436 31.2826 21.9306 31.8862 22.5343C32.6939 23.342 33.0993 24.3179 33.0993 25.4389C33.0993 26.5604 32.6936 27.5183 31.8862 28.3256C31.0789 29.133 30.121 29.5387 28.9995 29.5387C27.8836 29.5387 27.0008 29.1726 26.2137 28.426M26.2137 28.426C26.1688 28.3997 26.1286 28.3594 26.1 28.3307C26.0982 28.3289 26.0965 28.3273 26.0949 28.3256C25.8748 28.1055 25.6906 27.8665 25.5428 27.6087" fill="#87BE33" stroke="#87BE33" stroke-width="0.2"/>
</svg>
