<svg width="29" height="34" viewBox="0 0 29 34" fill="none" xmlns="http://www.w3.org/2000/svg">
<path d="M19.8819 9.92315C19.8819 9.92315 19.8819 9.90599 19.8819 9.88883C19.8819 7.504 14.9235 6.23438 10.274 6.23438C5.62441 6.23438 0.666016 7.504 0.666016 9.88883V26.3596C0.666016 27.9209 3.25673 29.7052 8.90141 29.9798V30.0141C8.90141 32.3989 13.8598 33.6685 18.5094 33.6685C23.1589 33.6685 28.1173 32.3817 28.1173 30.0141V13.5433C28.1173 11.3987 24.0854 10.1462 19.8819 9.92315ZM27.208 13.5433C27.208 14.8472 23.6393 16.2884 18.5094 16.2884C13.3794 16.2884 9.81073 14.8472 9.81073 13.5433C9.81073 12.2393 13.3794 10.7982 18.5094 10.7982C23.6393 10.7982 27.208 12.2393 27.208 13.5433ZM10.274 7.1437C15.4039 7.1437 18.9726 8.58489 18.9726 9.88883H18.5094C14.5118 9.88883 10.2911 10.8325 9.19308 12.5996C4.6293 12.4109 1.5925 11.0555 1.5925 9.88883C1.5925 8.58489 5.16117 7.1437 10.2911 7.1437H10.274ZM1.57534 11.5016C2.99938 12.6683 5.91608 13.3546 8.90141 13.509V13.5433V18.0728C4.5092 17.8326 1.57534 16.5115 1.57534 15.3619V11.4844V11.5016ZM1.57534 16.9919C2.99938 18.1585 5.91608 18.8448 8.90141 18.9992V23.5802C4.5092 23.34 1.57534 22.0189 1.57534 20.8694V16.9919ZM1.57534 26.3596V22.465C2.77634 23.4601 5.16117 24.3008 8.90141 24.4895V29.0704C4.5092 28.8302 1.57534 27.5091 1.57534 26.3596ZM18.5094 32.7592C13.3794 32.7592 9.81073 31.318 9.81073 30.0141V26.1537C11.4578 27.4748 15.0608 28.1783 18.5094 28.1783C21.9579 28.1783 25.5609 27.4748 27.208 26.1537V30.0141C27.208 31.318 23.6393 32.7592 18.5094 32.7592ZM18.5094 27.2689C13.3794 27.2689 9.81073 25.8277 9.81073 24.5238V20.6635C11.4578 21.9846 15.0608 22.688 18.5094 22.688C21.9579 22.688 25.5609 21.9846 27.208 20.6635V24.5238C27.208 25.8277 23.6393 27.2689 18.5094 27.2689ZM18.5094 21.7787C13.3794 21.7787 9.81073 20.3375 9.81073 19.0335V15.1732C11.4578 16.4943 15.0608 17.1977 18.5094 17.1977C21.9579 17.1977 25.5609 16.4943 27.208 15.1732V19.0335C27.208 20.3375 23.6393 21.7787 18.5094 21.7787Z" fill="#3370BF" stroke="#3370BF" stroke-width="0.5"/>
<path d="M4.54342 16.3382C4.73215 16.3897 4.92087 16.4583 5.12676 16.5098C5.16107 16.5098 5.19539 16.5098 5.24686 16.5098C5.38411 16.5098 5.52137 16.4412 5.62431 16.3039C5.72726 16.1838 5.79588 15.9951 5.81304 15.8064C5.81304 15.6176 5.79588 15.4289 5.7101 15.2745C5.62431 15.1201 5.50421 15.0171 5.36696 14.9828C5.17823 14.9313 4.9895 14.8799 4.81793 14.8284C4.7493 14.8112 4.66352 14.7941 4.59489 14.8284C4.52626 14.8284 4.44048 14.8799 4.38901 14.9313C4.32038 14.9828 4.26891 15.0514 4.21743 15.1372C4.16596 15.223 4.14881 15.3088 4.13165 15.4117C4.13165 15.5147 4.11449 15.6176 4.13165 15.7206C4.13165 15.8235 4.16596 15.9265 4.21743 16.0122C4.25175 16.098 4.30322 16.1667 4.37185 16.2353C4.44048 16.2868 4.5091 16.3382 4.57773 16.3554L4.54342 16.3382Z" fill="#3370BF"/>
<path d="M13.9295 18.4145C13.7407 18.363 13.552 18.3115 13.3804 18.26C13.3118 18.2429 13.226 18.2257 13.1574 18.26C13.0888 18.26 13.0201 18.3115 12.9515 18.363C12.8829 18.4145 12.8314 18.4831 12.7799 18.5689C12.7285 18.6547 12.7113 18.7404 12.6941 18.8434C12.6941 18.9463 12.677 19.0493 12.6941 19.1522C12.6941 19.2552 12.7285 19.3581 12.7799 19.4439C12.8142 19.5297 12.8657 19.5983 12.9343 19.6669C13.003 19.7184 13.0716 19.7699 13.1402 19.787C13.329 19.8385 13.5177 19.9071 13.7236 19.9586C13.7579 19.9586 13.7922 19.9586 13.8437 19.9586C13.9809 19.9586 14.1182 19.89 14.2211 19.7527C14.3241 19.6326 14.3927 19.4439 14.4099 19.2552C14.4099 19.0664 14.3927 18.8777 14.3069 18.7233C14.2211 18.5689 14.101 18.4659 13.9638 18.4316L13.9295 18.4145Z" fill="#3370BF"/>
<path d="M24.3592 10.7626C24.3592 9.3042 24.7709 8.06889 25.6116 7.05663C26.4523 6.04436 27.4646 5.5468 28.6656 5.5468C27.4646 5.5468 26.4523 5.04925 25.6116 4.03698C24.7709 3.02471 24.3592 1.78941 24.3592 0.331055C24.3592 1.78941 23.9474 3.02471 23.1067 4.03698C22.266 5.04925 21.2537 5.5468 20.0527 5.5468C21.2537 5.5468 22.266 6.04436 23.1067 7.05663C23.9474 8.06889 24.3592 9.3042 24.3592 10.7626Z" fill="#3370BF"/>
<path d="M16.9662 5.58123C16.9662 5.08368 17.1034 4.67191 17.3951 4.32877C17.6868 3.98562 18.0299 3.81405 18.4245 3.81405C18.0127 3.81405 17.6696 3.64248 17.3951 3.29934C17.1206 2.9562 16.9662 2.54443 16.9662 2.04688C16.9662 2.54443 16.8289 2.9562 16.5372 3.29934C16.2456 3.64248 15.9024 3.81405 15.5078 3.81405C15.9196 3.81405 16.2627 3.98562 16.5372 4.32877C16.8118 4.67191 16.9662 5.08368 16.9662 5.58123Z" fill="#3370BF"/>
</svg>
