<svg width="30" height="30" viewBox="0 0 30 30" fill="none" xmlns="http://www.w3.org/2000/svg">
<g clip-path="url(#clip0_7162_546)">
<path d="M28.7581 6.34261L21.4259 3.595C21.4244 3.5944 21.4231 3.59403 21.4216 3.59343L15.1643 1.24862C15.0577 1.20857 14.9405 1.20879 14.8338 1.24931L1.24008 6.39663C1.20489 6.40999 1.1709 6.42779 1.13937 6.44973C1.13485 6.45285 1.13159 6.45726 1.12724 6.46052C1.11563 6.46919 1.10596 6.47934 1.09526 6.48898C1.07346 6.50861 1.05343 6.52933 1.0358 6.55238C1.02654 6.56449 1.01818 6.57665 1.01017 6.58961C0.994606 6.61473 0.982189 6.64108 0.971603 6.66871C0.966682 6.68153 0.960903 6.69358 0.957069 6.70688C0.945282 6.74822 0.9375 6.79088 0.9375 6.83494V23.2126C0.9375 23.408 1.05881 23.5829 1.24191 23.6516L14.8357 28.7456C14.8425 28.7481 14.8501 28.7472 14.8571 28.7494C14.8935 28.7617 14.9312 28.7667 14.9694 28.7698C14.9797 28.7705 14.9897 28.7753 15 28.7753C15.001 28.7753 15.0019 28.7749 15.003 28.7749C15.004 28.7749 15.0049 28.7753 15.006 28.7753C15.0163 28.7753 15.0262 28.7705 15.0366 28.7698C15.0747 28.7667 15.1125 28.7617 15.1489 28.7494C15.1559 28.7472 15.1634 28.7481 15.1703 28.7456L28.7581 23.6516C28.9412 23.5829 29.0625 23.408 29.0625 23.2126V6.83494C29.0625 6.8247 29.0595 6.81503 29.0588 6.80487C29.0593 6.7966 29.0625 6.78905 29.0625 6.78069C29.062 6.58569 28.9412 6.41105 28.7581 6.34261ZM14.9993 11.4281L9.48521 9.36179L21.2509 4.53053L27.2639 6.7839L14.9993 11.4281ZM15.0009 2.18841L19.9602 4.04684L8.19466 8.87817L5.03597 7.69453L2.73605 6.83265L15.0009 2.18841ZM14.5312 27.6302L1.875 22.8876V7.51129L7.73895 9.70867V13.4812C7.73895 13.7401 7.94861 13.95 8.2077 13.95C8.4668 13.95 8.67645 13.7401 8.67645 13.4812V10.06L14.5312 12.2539V27.6302ZM28.125 22.8878L15.4747 27.6302V12.2517L28.125 7.51129V22.8878Z" fill="#3370BF" stroke="#3370BF"/>
</g>
<defs>
<clipPath id="clip0_7162_546">
<rect width="30" height="30" fill="white"/>
</clipPath>
</defs>
</svg>
