<svg width="25" height="24" viewBox="0 0 25 24" fill="none" xmlns="http://www.w3.org/2000/svg">
<path d="M8.66602 20C6.71602 20 5.06185 19.3208 3.70352 17.9625C2.34518 16.6042 1.66602 14.95 1.66602 13C1.66602 11.2167 2.25352 9.6625 3.42852 8.3375C4.60352 7.0125 6.07435 6.25 7.84102 6.05L6.26602 4.4L7.66602 3L11.666 7L7.66602 11L6.26602 9.575L7.74102 8.1C6.55768 8.33333 5.58268 8.90833 4.81602 9.825C4.04935 10.7417 3.66602 11.8 3.66602 13C3.66602 14.3833 4.15352 15.5625 5.12852 16.5375C6.10352 17.5125 7.28268 18 8.66602 18H11.666V20H8.66602ZM13.666 11V4H22.666V11H13.666ZM13.666 20V13H22.666V20H13.666ZM15.666 18H20.666V15H15.666V18Z" fill="#3370BF"/>
</svg>
