<svg width="15" height="15" viewBox="0 0 15 15" fill="none" xmlns="http://www.w3.org/2000/svg">
<mask id="mask0_1558_15295" style="mask-type:luminance" maskUnits="userSpaceOnUse" x="0" y="4" width="15" height="11">
<path fill-rule="evenodd" clip-rule="evenodd" d="M0 4.8125H14.1664V14.5478H0V4.8125Z" fill="white"/>
</mask>
<g mask="url(#mask0_1558_15295)">
<path fill-rule="evenodd" clip-rule="evenodd" d="M11.0252 14.5478H3.14146C1.40958 14.5478 0 13.139 0 11.4064V7.95325C0 6.22138 1.40958 4.8125 3.14146 4.8125H3.80233C4.09558 4.8125 4.33358 5.0505 4.33358 5.34375C4.33358 5.637 4.09558 5.875 3.80233 5.875H3.14146C1.99467 5.875 1.0625 6.80717 1.0625 7.95325V11.4064C1.0625 12.5532 1.99467 13.4853 3.14146 13.4853H11.0252C12.1713 13.4853 13.1042 12.5532 13.1042 11.4064V7.94688C13.1042 6.80433 12.1748 5.875 11.033 5.875H10.365C10.0718 5.875 9.83379 5.637 9.83379 5.34375C9.83379 5.0505 10.0718 4.8125 10.365 4.8125H11.033C12.7606 4.8125 14.1667 6.21854 14.1667 7.94688V11.4064C14.1667 13.139 12.7571 14.5478 11.0252 14.5478" fill="#4D6A00"/>
</g>
<mask id="mask1_1558_15295" style="mask-type:luminance" maskUnits="userSpaceOnUse" x="6" y="0" width="2" height="10">
<path fill-rule="evenodd" clip-rule="evenodd" d="M6.55469 0H7.61719V9.59147H6.55469V0Z" fill="white"/>
</mask>
<g mask="url(#mask1_1558_15295)">
<path fill-rule="evenodd" clip-rule="evenodd" d="M7.08594 9.59154C6.79269 9.59154 6.55469 9.35354 6.55469 9.06029V0.53125C6.55469 0.238 6.79269 0 7.08594 0C7.37919 0 7.61719 0.238 7.61719 0.53125V9.06029C7.61719 9.35354 7.37919 9.59154 7.08594 9.59154" fill="#4D6A00"/>
</g>
<path fill-rule="evenodd" clip-rule="evenodd" d="M5.01545 3.13714C4.88016 3.13714 4.74416 3.08543 4.64074 2.98201C4.4332 2.77518 4.43178 2.43943 4.63932 2.23118L6.70412 0.15718C6.90316 -0.0432787 7.25732 -0.0432787 7.45637 0.15718L9.52187 2.23118C9.7287 2.43943 9.72799 2.77518 9.52045 2.98201C9.3122 3.18885 8.97645 3.18885 8.76962 2.9806L7.08024 1.28485L5.39157 2.9806C5.28816 3.08543 5.15145 3.13714 5.01545 3.13714" fill="#4D6A00"/>
</svg>
