<svg width="77" height="69" viewBox="0 0 77 69" fill="none" xmlns="http://www.w3.org/2000/svg">
<path fill-rule="evenodd" clip-rule="evenodd" d="M47.893 5.84293L75.4537 53.6753C76.0603 55.103 76.3257 56.264 76.4015 57.47C76.5531 60.2879 75.5675 63.0268 73.634 65.1346C71.7006 67.2349 69.0848 68.4747 66.2415 68.625H10.7409C9.56567 68.5536 8.39045 68.2869 7.29105 67.8736C1.79406 65.6569 -0.859661 59.42 1.37705 54.0134L29.1274 5.80911C30.0751 4.11464 31.5157 2.6531 33.2975 1.71381C38.4533 -1.14538 45.0118 0.733197 47.893 5.84293ZM41.7894 37.3655C41.7894 39.1689 40.3109 40.6755 38.4912 40.6755C36.6715 40.6755 35.1551 39.1689 35.1551 37.3655V26.7365C35.1551 24.9293 36.6715 23.4677 38.4912 23.4677C40.3109 23.4677 41.7894 24.9293 41.7894 26.7365V37.3655ZM38.4912 53.525C36.6715 53.525 35.1551 52.0184 35.1551 50.2187C35.1551 48.4115 36.6715 46.9086 38.4912 46.9086C40.3109 46.9086 41.7894 48.3777 41.7894 50.1774C41.7894 52.0184 40.3109 53.525 38.4912 53.525Z" fill="#F7A042"/>
</svg>
